<mxfile host="app.diagrams.net" modified="2024-02-08T21:20:43.660Z" agent="Mozilla/5.0 (Windows NT 10.0; Win64; x64) AppleWebKit/537.36 (KHTML, like Gecko) Chrome/121.0.0.0 Safari/537.36" etag="oHk4CTvwXLoKtSARL_66" version="21.3.7" type="device">
  <diagram name="Page-1" id="XXX">
    <mxGraphModel dx="7624" dy="4879" grid="1" gridSize="10" guides="1" tooltips="1" connect="1" arrows="1" fold="1" page="1" pageScale="1" pageWidth="827" pageHeight="1169" math="0" shadow="0">
      <root>
        <mxCell id="0" />
        <mxCell id="1" parent="0" />
        <mxCell id="1aiJ_BxQlEHNXpEwWQYT-19" value="" style="shape=image;verticalLabelPosition=bottom;labelBackgroundColor=default;verticalAlign=top;aspect=fixed;imageAspect=0;image=data:image/png,iVBORw0KGgoAAAANSUhEUgAAAgAAAAIACAYAAAD0eNT6AAAAAXNSR0IArs4c6QAAIABJREFUeAHt3XuMZGl93vFejIljx5Hj2GJ62KUv0zULi+kaPHaCY0XCUZCJlMRyDDaSbySRImLFtiz7DwRMTc9eYNn1zu7CssxtjZTYdPWAsRxiyZEvEzw9wNLVgCKvjY3BjpjquU9X94ABL+yJT88W2zvTPd1dXafrvXxWqq2e7qpT7/s9z/v7PefUqaeGhrbwX1EMvWD5T3b/8NKZXQc7s8O/15nd/Ved2eHFzuxw4YYBDdAADdAADeyYBhbLHrw4u/t/Lc3uaix/bPe/KIqh27bQ0jf30M7pl/6TpdPDb+/MDv+NnbtjO5epYixpgAZogAa2ooG/6ZwZftviqdHv2lx3v8WjilNDL1ycHf6Vzuzwksav8dMADdAADdBABBo4vbuzeHr4l8sefosWv/6frnx09x2Ls8OzdnYEO5tD3opD9lh6oQEayEUDn+x89MVj63f6Nf7SOT28vzM7fEHz1/xpgAZogAZoIGoNXF6affGr12j1N/+qMzv8A075R72zc3G25ukojgZogAY2p4Gl8sD+5o6/6jeLZ4ZHOrPDF7k9BoAGaIAGaIAGktLAhfKt/VUt/7kfy4sFOrO7P26HJ7XDuePNuWOccKIBGkheA4unh8+seWHgs1f7Jw+AwWFwaIAGaIAGctXA0pndv/Tcof/Q0FD5OX/v+1sQuS4I86Z9GqCBjDSw+LycgGdDfhz9OwVGAzRAAzRAA6lr4Mzw21bOApTRgZ3Z4S9k5H6IO3Vxmx+N0wAN0MCtNPA3K7HBZba/5u/0Fw3QAA3QAA3ko4HlMy/5oaFnv9jnVk7B3zhJGqABGqABGkhIA0uzuw4MXf9Wv3xcD4drX9MADdAADeSugcUzuz8y1Jnd9bncQZi/YkADNEADNJCVBs4M/2V5BmA5q0kndArHflOwaIAGaIAGetLA6d2d0gB8vacna6TeD6MBGqABGqCBWDXwdGkAvswAcJA0QAM0QAM0kJUGvjS0NLurbadntdNjdavG7UiLBmiABvqlgdPDXyzPAHyUAWAAaIAGaIAGaCArDZwaWjw9/KidntVO56D75aBth5ZogAYi1cDSmeFHSgPw4wwAA0ADNEADNEAD+Whg8czuHxs6/79f/B2d2eFrdnw+O96+tq9pgAZoIGsNXCt7/8oXAnVO7/oNYshaDE7jRXoaz7q1bmmABnrQwImV5l/+b/lju1/WmR3+Rg8b0Tg0DhqgARqgARqIRwPfuDK76xXfNADlD84CcJEMIA3QAA3QQPIaeO7ov+sCrv3Jru/tzA5ftPOT3/mcejxO3b6yr2iABvqpgQvLp3Z/T7fvP+9+6fTw67wVwAAwgTRAAzRAA8lp4Bud2d2vfV7Tv/EfS6d3/YIdn9yO76eDtC1HJDRAAzQQmQYWTw//8o39fs1/d2Z3/VpndvgZRoARoAEaoAEaoIGoNfDM4uldv7pms1/vl53Z3T/lq4Kj3ukcemQOXZG13miABvqsgaXO6V1vWK/P3/L3Sx+9vdaZ3f1HfR6QxqQx0QAN0AAN0EC1GviDpY/dPnHLJr+ZP5aRgZ3Tw08yAtwpDdAADdAADQSsgdPDT149vfvfbaa3b+kxi2desq9zZtf9ndnhVmd2+OtEELAIqnWWnDu+NEADNBCGBp7uzA7PdWaH37l4+iX1LTX1Xh9cPHXXi659fPjli7O7fmTxj17ys0sfuv3Tyx+646+WPnj7wtLJO64uz9zxlaWZOwo3DGiABmiABmigZw18benkHZ3lsrd+8I7PL3/o9s+UPXfx9K7XlCm+ZS/utY/37XlLT4zcvXxipHDDgAZogAZogAaq0cDSidFDfWvc/dpQMTX0wuUTI5+w06vZ6bjiSgM0QAN5a+DaiZFWcXT/t/arb/d1O52jd+xZPjFyjUjzFqn9b//TAA3QQH81cO3EyJeXnxi7s69Nu98bu3Z89L/a8f3d8XjiSQM0QAN5a+DaE6Nv7ne/rmR7y0+MfIRY8xar/W//0wAN0EB/NHDtiZf+flEM3VZJw+73Rq/9xsT3Lp8YOW/n92fn44gjDdAADWSrgUtfev/orn736Uq3t3x89McINlvB+jSIT8TQAA3QQB80cO34S19fabOuauPLx0dOMAFMAA3QAA3QAA30pIHjVfXnyrd7/r+/+DuWT4z8hR3f047nnvvgnmmP9miABiLVwOcvPXHnd1beqKt8gc4Td/zA8omRv4t0B2jCmjAN0AAN0MBOa+Dp5SdGfqjK3rxj25YSyIEzgDRAAzRAA5vTQJBpf706BimBm9vpFgdONEADNJC3BoJO++vVBEgJzFvUipr9TwM0QAO31kAUaX+9mgApgbfe+RYHPjRAAzSQrwaiSfvr1QRICcxX3AqbfU8DNEADa2sgqrS/Xg2AlMC1d75FgQsN0AANZKuB+NL+ejUBUgKzFflOf5TG6/n4Fg3QQPAaiDbtr3cTICWQ22eEaIAGaCB7DcSb9terAZASmL3og3flCjON0gANVKyB+NP+ejUBUgItrooXF5Ph9C8N0ECoGkgn7a9XEyAlkAlgAmiABmggNw0klfbXqwGQEmjh57bwzZfmaSBvDSSZ9terCZASmPdiUAztfxqggVw0kHTaX68mQEqgApBLATBPWqeBfDWQfNpfryZASmC+i0JBtO9pgAZS10AWaX+9GgApgQpAsgXg+EixdHSkWHzfaNF53G0tBiWbktHycesg2XWQ9ycS8kn769UESAlU/FIqfktHRotLD+wpzh2aKNqNmtsmGJSsLj24pyjZpaQFc8m7tmWX9te7CZASqFhEXiyOjxSXDo8XCwc1/V6NT8nu8kPjzgjkfdScignML+2vVwMgJTDy5pd7wTo+Ulx81x5H+5s42t+MOShZeltATYj4oCjftL9eTYCUQAs+1gV/+fCY5t+n5t81CJcPj6dyJGgeeR0gSPvr1QRICWQCYjMBnSOjRdtp/74boIWpWtE5Yj3Eth5yH6+0v167/9DQkJRABS+2AnLp18f73vy6R8G535dsY9OD8eZbw6T9baP5d58qJTDfBRRj8Tx3j6v9qzIqJdsYNWHM+dUwaX/dDt6HeymB+S2gGIvm0vERp//7/N7/88zEwVpRMo5RG8ac136T9teHxr96E1IC81pAMRbMztFRp/+rNACNWlEyjlEbxpxP/ZL2t7pz9+lnKYH5LKBoi+VxBuB5R+wVmIHlYwxAtOsjj6v/pf31qefftBkpgUxA6MWvvFq96iaY6/YXDtUc/efRRKPdz9L+bmrb/f3F8nEpgaE3wZzHd/EBAUBVGZSLD/gUQM5rK4K5S/vrb7u/eWtSAp0FCLkQdB4fcyFgBaf+y2yF8guEQt73xpZ1bZL2d3O7ruY3UgKzXmjBN4ELYoD7/jZIeWZFg7XuA9WAtL9qWv36W5USqBgEWgyK8kK1c/fKA+jXWwElS98FYL2Hut6l/a3fpyv7i5RABSHUglCOa+nYSHH+HUzAdk3AhXfsWWEZ8r42tnxrkbS/ylr8xhuWEpjvwoui6B4fKa48Olacv9eFgVs1AufvnVhh58jfGg91rUv727hHV/4IKYEKRKgFYvW4yi8JuvruseLKw+NF+c12bjczKNmUjEpWq9n52RoPUQPS/ipv75t7ASmBCkSIBcKY6JIG0tSAtL/N9eYdeZSUwDQXmeJpv9IADQSoAWl/O9LZt/AiUgIVigALhVPZkutoIDENSPvbQmPeyYdKCWQCmAAaoAEaqFAD0v52sqlv5bWkBFr4FS58R3KJHcnRinqxRQ1I+9tKQx7EY6UEWtRbXNQau8ZOAzSwkQak/Q2ioffymlICmQAmgAZogAb6pQFpf7104gE9R0qghd+vhW87tEQDeWtA2t+AGvl2XlZKYN6LVtG2/2mABrarAWl/2+nCA36ulEAFYLsFwPNpiAby1YC0vwE38e2+vJTAfBevwm3f0wAN9KoBaX/b7b4BPF9KoALQawHwPNqhgWw1IO0vgP7dlyFICcx2EW/00R5/9/EvGqCBmzQg7a8vrTecjUgJZAIczdEADdDAJjQg7S+c1t2fkUgJtPA3sfBvOhLwHLqhgaw0IO2vPy03vK1ICcxqIWvmTu3SAA1sRQPS/sJr2/0dkZRAJsARHQ3QAA3cqAFpf/3ttUFuTUqghX/jwo/h30vHRoorj4wXF965pzh/z0SxcHdYt3JM5djKMZZjjYGpMdpPXQ1I+wuyXVczKCmBFn534Qd/f3ykuPLweLFwaKJoN2pR3MqxXn54jAlw+j0KDUj7q6bPBr1VKYFMQPDN/8RoceFde6Jo+muZk3LsyydGo2gC4WvBeq1qH0n7C7pVVzc4KYGKSlVFpR/bvfjgeLTNv2sIyjn0g4VtWKtVaEDaX3X9NfgtSwlUVKooKv3Y5uJjo9E3/64JuPpebwf0QxO20fd6Je0v+C5d8QClBPZ9UTni68N7v+fvi/fUf7fxd+/LuWhe1lloGpD2V3FzjWXzUgIVp5CKU+fIaNE+GMcFf90mf8v7g7Wic9S1ACFpzFhGpP3F0qCrHqeUQAYgpIJ45d1jyZz+7xqDck4hMTaWrNe8tL+qm2ps25cSmHVBCKo5lR+h6zbOVO6vHGYAmI4gaoy0v9ia806NV0pgEAs0qGY8iKJdfu4/lcbfnUc5p0Gw9JrW9GoNSPvbqW4a4etICVQsVheLQf189T3pnQEo5zQonl7Xui41IO0vwqa800OWEqhYDLphLB0tPwIYT/Jf9yh//fuJopzToLl6/XzXtrS/ne6kEb+elMB8C0UoTeLCO9L5GGD5HQGhcDWOPNe2tL+IG/Ighi4lMM9CEUqDWHw8kY8CHqwVi487/R+KrnIch7S/QXTQyF9TSiADMOhieflw/BcDlnMYNEevn/ValvYXeS8e2PClBGZdOIJoXJceGo8zFOhgrSjHrvlaQ4PUgLS/gbXPNF5YSqACNsgCVr52+b0A5+6J56LAcqzlmAfNzetnv3al/aXRhgc3CymB2ReRYBpZ2VQv/fp4cfGde4ryIsGQbuWYyrEtvlfjZzyCqBnS/gbXNtN6ZSmBQSzoYBqxAk8PNBC0BqT9pdWCBz8bKYFBL3jmoA/fQKip0XgKGpD2N/h+mdwIpAQqjikUR3Og45Q1IO0vudYbzoSkBCqeKRdPc6PvmDUg7S+cXpnsSKQEKpIxF0ljp99UNSDtL9m2G9bEpAQqoqkWUfOi7Rg1IO0vrB6Z9GikBCqSMRZJY6bbRDUg7S/pjhvg5KQEKqaJFlOfqPCJiqg0IO0vwAaZw5CkBDIBTAAN0MBANSDtL4dmG+IcpQQOdOFHdZSiSdAKDfRdA9L+QmyMOY1JSmDfF7XG7hQ0DdDARhqQ9pdTow15rlICmQBHdzRAAzunAWl/IXfEzMYmJXDnFr4iizUN5K0BaX+ZNdgYpislMO+ipCnZ/zRQvQak/cXQDTMdo5TA6guAIosxDeSrAWl/mTbXWKYtJTDf4qQx2fc0UJ0GpP3F0gUzHqeUwOoKgOKKLQ1kqwFpfxn31aimLiUw2yK15keXlo6PFIuPjRaXD48VFx8cLy4+4LYmgwfHi8uHx1dYlcw0ewy6GpD2F1ULNFgpgYrX8rHR4tLh8WJhqla0G25bYVAyK9ktMwKM0IkRaX9aalwEpATmbQA6R0eLc/dOaPzbND7n791TLB0Z1QTzDQaS9hdX6zPaLgEpgXmagKVjo8XC3Zr/Vo74b/XYkuXSsTy11D0Fnum9tL9uM3EfJwEpgfkV7vPv2OPIf5tH/jcagvPvmHAWILOzANL+4ux5Rr2KgJTAvAxAebHfjc3Lv/tz/cPiY2NMQCYmQNrfqibix7gJSAnMxwRcvN/Rf1WG5+K79jAAGRgAaX9x9zujX4OAlMA8TIAr/vtztL+WiSjZZvpeeFbzlva3RgPxq/gJSAlM2wSUF6qt1bj8rn+mwMWAaa8haX/x9zkzWIeAlMC0i1fniPf/qzY7JWNnAZJdR9L+1ukdfp0IASmByRavokyvq7oB5r795RMMQKoGSNpfIk3ONG5NQEpguibg/D0+/1+VSSmDlVJtfuYl7e/WXcNfkyEgJTBdA3DpoXFnAfqcAdA1FJcfGmcA0vwUgLS/ZLqbiWyKgJTANE1AeZHawpSzAN2m3a/78hMAZcKiI+Xk1o20v011DA9KjoCUwOSK2UqDuvromLMAfT4LUDLV/NNbL9L+kmtrJrRZAlIC0yto3Sa18lbAwf59/K1fR9LRbedgrShZdrm6T2fNSPvbbKfwuGQJSAlMp6Dd2JyuvnvMVwFv40zAwqFaccWRf5LmR9pfsi3NxLZKQEpguiZg+dhIcfnhseL8fRNF+6BrAzY8A3Fwoii/+OfK4bFi+bj3/G80lan8W9rfVruExydNQEpgwiZg9ZXbx0ZXvtq2vFjQ7fkMll3kl+TR/o2mRdpf0q3M5HohICUwEwOw2gz4OYuGd2MDzPzf0v56aRCekz4BKYFMQObNgSFI3BRK+0u/j5nhNghICWQCmAAaSFQDx7dRGj0VgfQJSAlU/BMt/o7uEz+630C30v7Sb19m2A8CUgKZgA2KqWaadzONbf9L++tHY7CNfAhICWQCmAAaSEED0v7y6Vtm2icCUgIV/xSKvznkrWNpf31qCDaTHwEpgXkXT83T/o9ZA9L+8utZZtxnAlICNYGYm4Cx56tfaX99bgY2lycBKYH5FlEN1L6PUQPS/vLsVWZdAQEpgZpAjE3AmLPVrbS/CvqATWZMQEpgtsU0to98GW/mH1GU9pdxozL16ghICWQCHFXTQOAakPZXXQuw5ZwJSAlU/AMv/o7+8z76l/aXc4My9+oJSAlkApgAGghQA9L+qi//XgGBoSEpgRpAgA3A0X/GR//S/nQmBHaIgJTAfA3A0tHRYvHx0eLqY2NB3coxlWNjTPLTprS/HSr8XgaBLgEpgXkV2iuPjBfn750o2o1a0Lfz9+0prj46xghkcjZA2l+3IrtHYIcJSAlM3wR0jowU5+7dE3TTX8uUlGalHLszAmkzkPa3w0XfyyGwmoCUwHQL7NKR0WLhUNhH/Gs1/+7vyrGXc2AC0tSotL/VldjPCAyAgJTANIvr0rGR4tw94Z/y7zb79e7LOSwdT3MfZW5spP0NoN57SQRuIiAlML0Gc/nweHSn/dczAeVcMm+Wyc1f2t9NZdgvEBgcASmBaZmAmE/932gEzh2aSK4BZm5opP0NrtR7ZQRuJiAlMB0DUH6k7sYmGvu/yzll3jRTmb+0v5vLr98gMHgCUgLTMAFXHhlLzgCUc2IAotentL/Bl3kjQGB9AlICoy+yRUrv/3fPXLgOIH5dSvtbv+76CwJBEJASGH+hLUN/uo0zlXtnAOLWpbS/IMq7QSCwMQEpgXEX28X3JngNwHu9BRDrWyDS/jauuR6BQFAEpARGbAKOjxQLU/FnAHTPXiysfArARYDRGoAnRt8cVHEzGAQQ2JiAlMB4TcDlh9J5G6CcS6zNL/dxS/vbuM56BAJBEpASGK8BWD42UizcHf9ZgHIO5Vxyb6SRzl/aX5CV3aAQ2CQBKYHxNp+VPICpeL8LoD1VKxbf59R/pM2/kPa3ySLrYQiETEBKYLwmoPO+0eJchGcCyjGXY4+1+Rn3iLS/kIu6sSGwWQJSAuM1AGUjKr8YqPwcfQxvCZSNvxyrLwCKWnPS/jZbXD0OgRgISAmMuiB/80i6PKq++p6xovxcfZkXEMZtbGVMjviT0Ji0vxgKujEisFUCUgKTKNDfNANOU9uf/daAtL+tVlWPRyASAlICNYx+NwzbS0dT0v4iKeSGiUCvBKQEplOwNV/7sl8akPbXa0X1PAQiIyAlUOPoV+OwnTS0dE3aX2RV3HAR2AYBKYFpFG4N2H7crgak/W2jkHoqAjESkBKocWy3cXh+EhqS9hdjATdmBLZLQEpgEgXcpwJO2I+9mjFpf9utop6PQMQEpARqHr02D8+LXjvS/iKu3YaOwLYJSAmMvog7A+AMQC8akPa37eppAwgkQEBKIBPgaD4rDUj7S6BumwICfSMgJTCrBtDLEaPnJHKmQdpf38qmDSGQBgEpgQyAswDpa0DaXxr12iwQ6DsBKYHpNwBNPt99LO2v7yXTBhFIi4CUwHwbBHOQ9r6X9pdWrTYbBCohICUw7Uag0ee3f6X9VVIqbRSB9AhICcyvQTAFSe9zaX/plWkzQqA6AlICk24IruhP5Ir+zRg3aX/V1UlbRiBZAlICt28Clo6PFFceHSsuvmtPce7uiWJhqrzV3NZkMLHCqGR15d1jxfKJUUZl+0ZF2l+yFdrEEKiQgJTA7RmAq4+NrTS0dqNWuG2dwbl7JoqrjzEBmznKX+cx0v4qrI82jUDyBKQE9mYCrjwyXrQbExr/ts3PRFGyXKfB+f36Zwik/SVfnU0QgR0gICVwaybg6nvGivbBrR/xOkuwDrODtWLxPeVbAlvbDzk/XtrfDhRGL4FADgSkBG6h8RwbLRYOrdPItn00nO92zx2aKJaPeTtgM6ZG2l8OVdkcEdhBAlICN2cCLj9cnvrPt1FXOfcrh50F2MgASPvbwaLopRDIiYCUwI1NwPn7vO9flQk4f++EtwE2eBtE2l9OFdlcEdhhAlICb2ECjo9477/Ssx8TxfLxW/DfoDludPQc+9+l/e1wMfRyCORGQErg+g2oc3TU6f9KDUCtKBnH3qgrGr+0v9yKsfkiMAgCUgLXNgFLDEDlBmjp2NrsK2qq0ZgNaX+DqIReE4FMCUgJXKMRlW8BTLkGoKprANoHXQOwjtGR9pdpHTZtBAZCQErgGgbgxEhx4Z17Kj8KrqzBVnz6frvjvnD/nmiOyNdp1FWMX9rfQCqgF0UgcwJSAm82AVffPcYAVGQkSrY72FhjeC1pf5nXYNNHYKAEpATeYAKOjxQ+Ctj/HISSqU8APF9r0v4GWvq8OAIISAl8flEuj1CXjkgD3O7p/tXPXzg0UXSOuPp/9dkPaX9qLwIIBEFASuDNJmDxfaPFubv7fyS8ujHm8PPC3RNFyXJ188v9Z2l/QZQ9g0AAgS4BKYE3m4CloyPFpQf2FAu+GGjL10WUzC49MF4syf+/yfxI++tWHfcIIBAMASmBN5uAlbcEjo4UVx4ZKy4+OF5cvH+P260YPDheXHl0TONfJ9VQ2l8w5c5AEEBgNQEpgWsbgNxPWZt/33Qh7W91wfEzAgiERUBKYN+K/U2nfjXSvNlK+wur1hkNAgisQUBKYN6NilGpZP9L+1uj1vgVAggERkBKYCUNwBmBdd4Xz8BwSPsLrMYZDgII3IKAlEAmIIPGvBOmTNrfLeqMPyGAQKAEpAQyAUzA9jQg7S/Q4mZYCCBwawJSArdX/DXPvPlJ+7t1ffFXBBAInICUwLybGBPT2/6X9hd4YTM8BBDYHAEpgb01Ac0zX27S/jZXWzwKAQQiICAlMN9mxshsbd9L+4ugoBkiAghsnoCUwK01AU0zW17S/jZfVjwSAQRiISAlMNumthMfl0viNaT9xVLNjBMBBLZMQEogE+DsxroakPa35YriCQggEA0BKYHrFv8kjmA19573r7S/aKqYgSKAQM8EpAT23CSYhDTjgKX99VxNPBEBBKIjICWQCXC24LoGpP1FV74MGAEEtkNASiADwACMFNL+tlNFPBcBBKIlICVwayagc2S0uPzwWHHxwfHi4v17wro9OL4ytnKMGvvm9qu0v2hLl4EjgEA/CEgJ3LhZdB4fLS68Y6JoN2pR3C7ct6cox8wI3HrfSvvrRwWxDQQQiJqAlMD1G8WVR8aLhYNxNP7VBqUcczl2JmDtfSvtL+qSZfAIINAvAlIC124SZQNd3VRj/JkJWHPfSvvrV/GwHQQQiJ+AlMDnN4rO+0aiPPK/0aSUZwJcF/D8fSvtL/56ZQYIINBnAlICn2sU5UV+NzbTWP994f493gp4Lr9A2l+f64bNIYBAAgSkBF43AEvH0jj67xqW8izA8rHnzE3G1wVI+0ugTpkCAghUREBK4Ehx9T1jyRz9d03A1cfGcj8LIO2vopphswggkBCB3FMCrzwc/8V/3cbfvS/zCzI+8i+k/SVUoEwFAQSqI5B7SuDlFA3A4Xw/Eijtr7paYcsIIJAggZxTAq8+mt5bAFcezfMMgLS/BIuTKSGAQPUEck0JLD821z11nsr9UqYRwdL+qq8TXgEBBBIlkGtK4Ll744n+3ciklHPJ8f1/aX+JFiXTQgCBnSGQa0pgSp8EKOeSoQGQ9rczJcKrIIBAygRyTQksA3Q2OroO/e8X3pVnCJC0v5QrkrkhgMCOEsgxJbAMBDof0bcA3mhGyrGXc8jw6F/a345WBy+GAAJJE8g3JXC0uPzrcX0j4MJUbWXMy8ezbP7S/pKuRCaHAAIDIZBzSmDnyEhx6aHx4vy9E8XCofC+Hrgc0/n7JopLh8eLcqwZHvWXc5b2N5DK4EURQCALArmnBGbaWKMwFNL+sihBJokAAoMikHtKIAMQ5tkFaX+DqgheFwEEsiKQc0ogAxCeAZD2l1X5MVkEEBg0gVxTAhmAAA3AE6NvHvR68PoIIIBAVgRyTQlkAsIxAdL+sio5JosAAqEQyDUlkAEIxgBI+wulGBgHAgjkRyDXlEAmYPAmQNpffvXGjBFAIDACOaYEMgADNwDS/gKrA4aDAAIZEsg3JXDgTTCKz+dXYJak/WVYZ0wZAQQCJZBzSmAFDS7Xxr6ZeUv7C7QGGBYCCGRMQEqgMwJVmyFpfxkXGFNHAIFwCUgJZACqNADS/sJd+0aGAAIIDEkJZAKqMAHS/hQXBBBAIAICUgKZgH6bgGvS/iJY+YaIAAIIDA0NSQlkAvplAqT9KSkIIIBARASkBDIAfTIA0v4iWveGigACCKwQkBLIBGzXBEj7U0wQQACBSAlICWQCtmECpP1Fuu4NGwEEEBiSEsgA9GgApP2pHwgggEDsBKRADrm1AAATFklEQVQEMgFbNAHS/mJf9MaPAAIIdAlICWQCNmsCpP11V417BBBAIAECUgIZgM0YAGl/CSx2U0AAAQRuJCAlkAm4lQmQ9nfjivFvBBBAICECUgKZgPVMgLS/hBa6qSCAAAJrEZASyATcaAKk/a21UvwOAQQQSIyAlEAG4AYDIO0vsTVuOggggMC6BKQEMgFdEyDtb91l4g8IIIBAmgSkBDIByydGpP2lubzNCgEEEFifgJTA7A2AtL/1l4e/IIAAAmkTkBKYrQmQ9pf20jY7BBBAYGMCUgLzMwHS/jZeFx6BAAIIJE9ASmBeBkDaX/JL2gQRQACBzROQEpiHCZD2t/k14ZEIIIBANgSkBKZvAqT9ZbOcTRQBBBDYGgEpgemaAGl/W1sLHo0AAghkRUBKYLIGQNpfVivZZBFAAIEeCEgJTM8ESPvrYSF4CgIIIJAjASmBSZkAaX85LmJzRgABBHohICUwGQMg7a+XBeA5CCCAQM4EpARGbwKk/eW8gM0dAQQQ2A4BKYHxmgBpf9tRvucigAACmROQEhinAZD2l/nCNX0EEECgHwSkBMZlAqT99UP1toEAAgggsEJASmA8JkDan0WLAAIIINA3AkUxdNu5eya+snD3ROEWLoNyH5X7qm873oYQQAABBBBoN2p/227UCregGfwtpSKAAAIIINBXAgxA0I2/a8wYgL6q3sYQQAABBIYYAAbAMkAAAQQQyJAAA8AAZCh7U0YAAQQQYAAYAKsAAQQQQCBDAgwAA5Ch7E0ZAQQQQIABYACsAgQQQACBDAkwAAxAhrI3ZQQQQAABBoABsAoQQAABBDIkwAAwABnK3pQRQAABBBgABsAqQAABBBDIkAADwABkKHtTRgABBBBgABgAqwABBBBAIEMCDAADkKHsTRkBBBBAgAFgAKwCBBBAAIEMCTAADECGsjdlBBBAAAEGgAGwChBAAAEEMiTAADAAGcrelBFAAAEEGAAGwCpAAAEEEMiQAAPAAGQoe1NGAAEEEGAAGACrAAEEEEAgQwIMAAOQoexNGQEEEECAAWAArAIEEEAAgQwJMAAMQIayN2UEEEAAAQaAAbAKEEAAAQQyJMAAMAAZyt6UEUAAAQQYAAbAKkAAAQQQyJAAA8AAZCh7U0YAAQQQYAAYAKsAAQQQQCBDAgwAA5Ch7E0ZAQQQQIABYACsAgQQQACBDAkwAAxAhrI3ZQQQQAABBoABsAoQQAABBDIkwAAwABnK3pQRQAABBBgABsAqQAABBBDIkAADwABkKHtTRgABBBBgABgAqwABBBBAIEMCDAADkKHsTRkBBBBAgAFgAKwCBBBAAIEMCTAADECGsjdlBBBAAAEGgAGwChBAAAEEMiTAADAAGcrelBFAAAEEGAAGwCpAAAEEEMiQAAPAAGQoe1NGAAEEEGAAGACrAAEEEEAgQwIMAAOQoexNGQEEEECAAWAArAIEEEAAgQwJMAAMQIayN2UEEEAAAQaAAbAKEEAAAQQyJMAAMAAZyt6UEUAAAQQYAAbAKkAAAQQQyJAAA8AAZCh7U0YAAQQQYAAYAKsAAQQQQCBDAgwAA5Ch7E0ZAQQQQIABYACsAgQQQACBDAkwAAxAhrI3ZQQQQAABBoABsAoQQAABBDIkwAAwABnK3pQRQAABBBgABsAqQAABBBDIkAADwABkKHtTRgABBBBgABgAqwABBBBAIEMCDAADkKHsTRkBBBBAgAFgAKwCBBBAAIEMCTAADECGsjdlBBBAAAEGgAGwChBAAAEEMiTAADAAGcrelBFAAAEEGAAGwCpAAAEEEMiQAAPAAGQoe1NGAAEEEGAAGACrAAEEEEAgQwIMAAOQoexNGQEEEECAAWAArAIEEEAAgQwJMAAMQIayN2UEEEAAAQaAAbAKEEAAAQQyJMAAMAAZyt6UEUAAAQQYAAbAKkAAAQQQyJAAAxCFAfhyhtI0ZQQQQACBKgkwAFEYgP9XpQZsGwEEEEAgQwIMQPgGYKFRezJDaZoyAggggECVBBiA8A1Au1H7n1VqwLYRQAABBDIkwACEbwAWDux9a4bSNGUEEEAAgSoJMAAxGIA9+6vUgG0jgAACCGRIgAEI3gBcKKaGXpChNE0ZAQQQQKBKAgxA4Abg4N5DVe5/20YAAQQQyJQAAxC0AfjSwtTe78lUmqaNAAIIIFAlAQYgaANwf5X73rYRQAABBDImwAAEawCe+uKv3P4PM5amqSOAAAIIVEmAAQjSAHz17IG99Sr3u20jgAACCGROoN2ofandCLIJFjmOa6FR+7uFRu0nMpel6SOAAAIIVE2g3ahdyLHRhjjnleY/VfsPVe9z20cAAQQQQGCo3aj9WYjNMMMxnT07dee/IkkEEEAAAQR2hMDZA7XfzrDZBvb2wkTzi1Ov+O4d2eFeBAEEEEAAgZLA2UbtbQzAQK6B+Ea7Ufvw2amJV1MiAggggAACO07g3IG9P8gA7JgB+HK7Ufv99oHar33x7eO1Hd/ZXhABBBBAAIEugTJnvt2o/TUT0FcT8HS7MfEX5dsrC43ave0De99Yfqzvqam7XtTl7h4BBBBAAIGBEyi/bpYB6MkAPN1u1D670ugP1u7pNvrP/eLEPxj4TjUABBBAAAEENiLw11Oj39Vu1K4wAeuagKfPNmqfbx+ofaTdqN1/9sDen1s4sGf/wtTub9+Irb8jgAACCCAQNIGzjb2/ygDUyiP6Pz/bqH1ooVG7u93Y+1NfPPCyVzp1H7R0DQ4BBBBAYDsEnr0W4HQmJmDNI3rZ+9tRkOcigAACCERL4Pzb7xxLKRmwTNZrN2pPLRyofbDd2Dt19sDET56f2vN9juijlaiBI4AAAghUReDsgYkfajdq12I6E/DNRt/Ye3Kl0Tcm3nDuwMQrWv9l/7dWxcl2EUAAAQQQSI5AGU7Tbuy9GpoJeLbR/+nCSqOfOHi2bPRTE3dp9MlJ0IQQQAABBAZFYOHg+EvbjdrHB2ECyka/1lX3fz01+m2D4uF1EUAAAQQQyIZA+V75woGJt1T4lcFfazcm/m/74N6Z9oGJxtmpidcvvL32ckf02UjMRBFAAAEEQiZw4a1jL15JtGvULvZ4RuB6o29MNM82agfK77tfmNr7smLqNS8Med7GhgACCCCAAAJDQ0Nlw243aq9tH6w92G7UPtpu1NrtRq38Upvut+tdbjdqn26Xjf5A7e1lo2+//c47NXryQQABBBBAAAEEEEAAAQQQQAABBBBAAAEEEEAAAQQQQAABBBBAAAEEEEAAAQQQQAABBBBAAAEEEEAAAQQQQAABBBBAAAEEEEAAAQQQQAABBBBAAAEEEEAAAQQQQAABBBBAAAEEEEAAAQQQQAABBBBAAAEEEEAAAQQQQAABBBBAAAEEEEAAAQQQQAABBBBAAAEEEEAAAQQQQAABBBBAAAEEEEAAAQQQQAABBBBAAAEEEEAAAQQQQAABBBBAAAEEEEAAAQQQQAABBBBAAAEEEEAAAQQQQAABBBBAAAEEEEAAAQQQQAABBBBAAAEEEEAAAQQQQAABBBBAAAEEEEAAAQQQQAABBBBAAAEEEEiUQL355N7J6bn/XN7KnxOdpmkhgAACCCCAQEngNadOvXByunWs3mw9U2+2imdvz9Sbc0fLv6GEAAIIIIAAAgkS2NdsPbKq8XcNwMr9ZHPu4QSnbEoIIIAAAgjkTWDf9Nxrbjjyf54BKP/2qpm5f503JbNHAAEEEEAgIQL7P9L69nqz9bn1jv5X/f4Ld5186h8lNHVTQQABBBBAIF8Ctzr1v6r5d88IPJQvKTNHAAEEEEAgEQKTzflX15utr6/R6LsN/8b7b+ybmfvhRKZvGggggAACCORH4K6TT71ostn6sy00/64Z+NPyufkRM2MEEEAAAQQSIPD3F/Y1emj+KyZgcnr+rQkgMAUEEEAAAQTyIrDvtz5dqzdbX+nVANSbra9Onpy7My9qZosAAggggEDkBCab83+wjebffSvgj4eK4rbIURg+AggggAACeRDYN9P6+T40/xUTsK85/9N5UDNLBBBAAAEEIibwsg8/+U/rzdbFfhmA+kzrwitOfuy7I0Zi6AgggAACCKRPoN6cP9K35t/9voCZucfSJ2eGCCCAAAIIREqgPj33qi1+5r/7Xv9G919/VfNT9UixGDYCCCCAAAIJEyiK2/Y15z7a96P/7lmAZmvWBYEJ68fUEEAAAQTiJFCfnvvZCpv/yhmCyebcG+OkY9QIIIAAAggkSODO3539znqz1a7aANSbrbO+LChBAZkSAggggECcBCabcw/sQPO//rHAmbn74qRk1AgggAACCCRE4PtPzk/Um62v7ZQBuJ4Q+ORYQghNBQEEEEAAgfgI1KdbMzvY/J+9FqD1W/GRMmIEEEAAAQQSIbCv+ckf/Psv/Hlmpw1A+ZqvPDm/PxGMpoEAAggggEBcBOrNuT8cQPPvZgb8cVy0jBYBBBBAAIEECLyyOfdvBtj8r18Q+IG51yaA0hQQQAABBBCIhMBU8YJ6s/WpQRuAerP1maGp4gWRUDNMBBBAAAEE4iYw2Zz7uQCa//WzAL4tMG4xGT0CCCCAQBwE9h9tfWu92fpCOAag9VevOXXqhXHQM0oEEEAAAQQiJbBvev5NoTT/b45jZv5nIsVp2AgggAACCERA4Pp7/5/9ZuN97ot6ulfmD+R+stn6M9cCRKAfQ0QAAQQQiJNAfXr+p0Jr/t3xTM7M/UScVI0aAQQQQACBkAkUxW31Zmu+23ADvP+0rwsOWUDGhgACCCAQJYHJ6bl/H2DTf95bDmU2QZRwDRoBBBBAAIFQCdSb82dCNwD1ZuvjofIzLgQQQAABBKIjUJ9p/UgEzX/lbMDk9Py/jA6wASOAAAIIIBAigXqz9TuxGIB6s3UyRIbGhAACCCCAQFQE9p9svbTebH09IgPw9ORvfuL2qCAbLAIIIIAAAqERqM+07o+o+V9/G6A5f29oHI0HAQQQQACBaAiUEbv1mdZCbAag3my133Dy5LdEA9pAEUAAAQQQCIlAvTn/byNs/tfPAnxg/nUhsTQWBBBAAAEEoiGwb6b1wVgNQL0514wGtIEigAACCCAQCoF//puf+Mf1Zuur8RqA1lfu/N3Z7wyFp3EggAACCCAQBYF9zfmfjrj5P3sx4Nwbo4BtkAgggAACCIRCoD7T+nDsBqA+3ZoJhadxIIAAAgggEDyB0fef+rZ6s/Xl6A1As3XtrpNPvSh44AaIAAIIIIBACARiiv7dyKSIBg5BUcaAAAIIIBAFgXqzdWijxhrR3xtRQDdIBBBAAAEEBk1gcnr+/0TU4Fcu+LvFeP940Dy9PgIIIIAAAuETKIrb6s3W4i0a6kYNN7S/Xw0fuhEigAACCCAwYALPfvlPaE18e+M5+ZmXDBirl0cAAQQQQCBsAvWZ+R9N6Oh/xTjs+8Dca8OmbnQIIIAAAggMmMBkc+7nUjMA9Zn5nxkwVi+PAAIIIIBA2AQmp1u/lJwBaM79t7CpGx0CCCCAAAIDJvD3+f9vSc8AtN4yYKxeHgEEEEAAgbAJpHgGYF+z9QthUzc6BBBAAAEEBkxg3/T8m1I7A1B+sdGAsXp5BBBAAAEEwiYw+YH51yVnAHwKIGzRGR0CCCCAwOAJTJ58ciw1A/B905+8Y/BkjQABBBBAAIGQCUwVL6g3W3+bkAn40lBR3BYycmNDAAEEEEAgCAJpfRfA3B8GAdUgEEAAAQQQCJ3A5Mz8wVTOAOxrzr0tdN7GhwACCCCAQBAEJpvzr07FALxq+lM/EARUg0AAAQQQQCAGAvVm6y8TMAGf8/5/DGozRgQQQACBYAjsm56bSsAANIIBaiAIIIAAAgjEQOCuk5/cVW+2vhKxCfjq/v/RGo6BtTEigAACCCAQFIHJ6daxWA3Avmbr8aBgGgwCCCCAAAKxEHg2FCjGswBf3n+y9dJYOBsnAggggAACwRGoz7Tuju4swHTrQHAgDQgBBBBAAIGYCOz/SOvb683W5yIyAZ8dff+pb4uJsbEigAACCCAQJIFXnpzfX2+2vhaBCfjqZLP1/UFCNCgEEEAAAQRiJFCfnvuVCAzAL8bI1pgRQAABBBAImkC9Of+ecE3A3NGg4RkcAggggAACsRJ4w8mT31Jvzv12aCZg30zrg+XYYuVq3AgggAACCARP4LoJaL0/IBPwm685deqFwYMzQAQQQAABBKInMFW8oN6cf1e92XpmgEbgmX0zc/fJ+o9eTSaAAAIIIBAbgcnpudfXm63lAZiApfr0/I/Hxst4EUAAAQQQSIbAq6Y/tbvebP3OTpmAyWbr96T8JSMfE0EAAQQQiJ1AfWb+J+vN1l9UaAT+fHJm7idi52T8CCCAAAIIJEegvBhv3/T8m+rN1qf6aATm9820ft5V/snJxYQQQAABBFIkUD8598/qzda7683WF3owA5+vz7Qe3df85A+myMacEEAAAQQQyILAq05+6q76zNx/qs/MPVZvtk7Vm63P1putLz17K38+dT1kaP4/fn9z/uVZQDFJBDIn8P8BbE54lowx9p0AAAAASUVORK5CYII=;" parent="1" vertex="1">
          <mxGeometry x="600" y="240" width="512" height="512" as="geometry" />
        </mxCell>
        <mxCell id="1aiJ_BxQlEHNXpEwWQYT-20" value="" style="endArrow=classic;html=1;rounded=0;strokeWidth=15;exitX=1;exitY=0.5;exitDx=0;exitDy=0;entryX=0;entryY=0.5;entryDx=0;entryDy=0;" parent="1" source="1aiJ_BxQlEHNXpEwWQYT-26" target="1aiJ_BxQlEHNXpEwWQYT-19" edge="1">
          <mxGeometry width="50" height="50" relative="1" as="geometry">
            <mxPoint x="312" y="496.00000000000045" as="sourcePoint" />
            <mxPoint x="500" y="710" as="targetPoint" />
          </mxGeometry>
        </mxCell>
        <mxCell id="1aiJ_BxQlEHNXpEwWQYT-21" value="Remove secondary tumors" style="text;html=1;strokeColor=none;fillColor=none;align=center;verticalAlign=middle;whiteSpace=wrap;rounded=0;fontSize=100;" parent="1" vertex="1">
          <mxGeometry x="570" y="-190" width="560" height="320" as="geometry" />
        </mxCell>
        <mxCell id="1aiJ_BxQlEHNXpEwWQYT-22" value="" style="shape=image;verticalLabelPosition=bottom;labelBackgroundColor=default;verticalAlign=top;aspect=fixed;imageAspect=0;image=data:image/png,iVBORw0KGgoAAAANSUhEUgAAAgAAAAIACAYAAAD0eNT6AAAAAXNSR0IArs4c6QAAIABJREFUeAHt3M2OlVd2h3FPYt+LP0atKIDpjJpTohDFiFvIdWQYGQeZ2LLvIRfQk4SyunHGGQAXEswQ60Rl4+5WC9jltVh7b1i/llBb9rv2x/P+l9dT52A++MD/EEAAAQQQQAABBBBAAAEEEEAAAQQQQAABBBBAAAEEEEAAAQQQQAABBBBAAAEEEEAAAQQQQAABBBBAAAEEEEAAAQQQQAABBBBAAAEEEEAAAQQQQAABBBBAAAEEEEAAAQQQQAABBBBAAAEEEEAAAQQQQAABBBBAAAEEEEAAAQQQQAABBBBAAAEEEEAAAQQQQAABBBBAAAEEEEAAAQQQQKCcwB/+cOezw+H2g8Ph7MnhcPb85a8nJydnXx0Otz4tP4ANEEAAAQQQQGAegZs3b350OJx9ezic/XQ4nB1f8+vFycnZN3fv3v1w3snshAACCCCAAAIlBF4O//PXDP1XycBDElDyKiyKAAIIIIDAPAI3bpx99xuG/89CcOPG2dfzTmgnBBBAAAEEEHirBH75zv+NH/u/6hOAi7/34uTk9idv9TAWQwABBBBAAIE5BF7+hr/XDfnB3799f84p7YIAAggggAACb5XAjRtnT3/rx/9/ff7O47d6GIshgAACCCCAwBwCh8PZj38d6K/93f+v+yTg2ZxT2gUBBBBAAAEE3iqBxPD/WQre6mEshgACCCCAAAJzCBCAOZztggACCCCAwFYECMBWr8NhEEAAAQQQmEOAAMzhbBcEEEAAAQS2IkAAtnodDoMAAggggMAcAgRgDme7IIAAAgggsBUBArDV63AYBBBAAAEE5hAgAHM42wUBBBBAAIGtCBCArV6HwyCAAAIIIDCHAAGYw9kuCCCAAAIIbEWAAGz1OhwGAQQQQACBOQQIwBzOdkEAAQQQQGArAgRgq9fhMAgggAACCMwhQADmcLYLAggggAACWxEgAFu9DodBAAEEEEBgDgECMIezXRBAAAEEENiKAAHY6nU4DAIIIIAAAnMIEIA5nO2CAAIIIIDAVgQIwFavw2EQQAABBBCYQ4AAzOFsFwQQQAABBLYiQAC2eh0OgwACCCCAwBwCBGAOZ7sggAACCCCwFQECsNXrcBgEEEAAAQTmECAAczjbBQEEEEAAga0IEICtXofDIIAAAgggMIcAAZjD2S4IIIAAAghsRYAAbPU6HAYBBBBAAIE5BAjAHM52QQABBBBAYCsCBGCr1+EwCCCAAAIIzCFAAOZwtgsCCCCAAAJbESAAW70Oh0EAAQQQQGAOAQIwh7NdEEAAAQQQ2IoAAdjqdTgMAggggAACcwgQgDmc7YIAAggggMBWBAjAVq/DYRBAAAEEEJhDgADM4WwXBBBAAAEEtiJAALZ6HQ6DAAIIIIDAHAIEYA5nuyCAAAIIILAVAQKw1etwGAQQQAABBOYQIABzONsFAQQQQACBrQgQgK1eh8MggAACCCAwhwABmMPZLggggAACCGxFgABs9TocBgEEEEAAgTkECMAcznZBAAEEEEBgKwIEYKvX4TAIIIAAAgjMIUAA5nC2CwIIIIAAAlsRIABbvQ6HQQABBBBAYA4BAjCHs10QQAABBBDYigAB2Op1OAwCCCCAAAJzCBCAOZztggACCCCAwFYECMBWr8NhEEAAAQQQmEOAAMzhbBcEEEAAAQS2IkAAtnodDoMAAggggMAcAgRgDme7IIAAAgggsBUBArDV63AYBBBAAAEE5hAgAHM42wUBBBBAAIGtCBCArV6HwyCAAAIIIDCHAAGYw9kuCCCAAAIIbEWAAGz1OhwGAQQQQACBOQQIwBzOdkEAAQQQQGArAgRgq9fhMAgggAACCMwhQADmcLYLAggggAACWxEgAFu9DodBAAEEEEBgDgECMIezXRBAAAEEENiKAAHY6nU4DAIIIIAAAnMIEIA5nO2CAAIIIIDAVgQIwFavw2EQQAABBBCYQ4AAzOFsFwQQQAABBLYiQAC2eh0OgwACCCCAwBwCBGAOZ7sggAACCCCwFQECsNXrcBgEEEAAAQTmECAAczjbBQEEEEAAga0IEICtXofDIIAAAgggMIcAAZjD2S4IIIAAAghsRYAAbPU6HAYBBBBAAIE5BAjAHM52QQABBBBAYCsCBGCr1+EwCCCAAAIIzCFAAOZwtgsCCCCAAAJbESAAW70Oh0EAAQQQQGAOAQIwh7NdEEAAAQQQ2IoAAdjqdTgMAggggAACcwgQgDmc7YIAAggggMBWBAjAVq/DYRBAAAEEEJhDgADM4WwXBBBAAAEEtiJAALZ6HQ6DAAIIIIDAHAIEYA5nuyCAAAIIILAVAQKw1etwGAQQQAABBOYQIABzONsFAQQQQACBrQi8bwJw/Oernx2vX3lwvH71yfH6lefH61eOzX89/4XF1a+O1659ulX4HAYBBBBAYB2B90UAjjdvfnS8fuXb4/UrPzUf+G8SnhfH6//0zfHjjz9clzg7I4AAAghsQeB9EICXw//c4L/kpx2fX31IArZoP4dAAAEE1hF4LwTg91e+M/wvOfx//Urk91e+Xpc6OyOAAAIILCfwrgvAy+/8fez/62C//P+/OH7+j58sD6ADIIAAAgisIfDOC8DPv+HvN/70e/kh+abv09/9f/b5lftrUmdXBBBAAIHlBN4DAXjq4/+wAD1eHkAHQAABBBBYQ+A9EIAfCUBYAJ6tSZ1dEUAAAQSWE3gPBODd/yh+4VcSywPoAAgggAACawgQgPBPz++FeKxJnV0RQAABBJYTIAAEYHkIHQABBBBAYD4BAkAA5qfOjggggAACywkQAAKwPIQOgAACCCAwnwABIADzU2dHBBBAAIHlBAgAAVgeQgdAAAEEEJhPgAAQgPmpsyMCCCCAwHICBIAALA+hAyCAAAIIzCdAAAjA/NTZEQEEEEBgOQECQACWh9ABEEAAAQTmEyAABGB+6uyIAAIIILCcAAEgAMtD6AAIIIAAAvMJEAACMD91dkQAAQQQWE6AABCA5SF0AAQQQACB+QQIAAGYnzo7IoAAAggsJ0AACMDyEDoAAggggMB8AgSAAMxPnR0RQAABBJYTIAAEYHkIHQABBBBAYD4BAkAA5qfOjggggAACywkQAAKwPIQOgAACCCAwnwABIADzU2dHBBBAAIHlBAgAAVgeQgdAAAEEEJhPgAAQgPmpsyMCCCCAwHICBIAALA+hAyCAAAIIzCdAAAjA/NTZEQEEEEBgOQECQACWh9ABEEAAAQTmEyAABGB+6uyIAAIIILCcAAEgAMtD6AAIIIAAAvMJEAACMD91dkQAAQQQWE6AABCA5SF0AAQQQACB+QQIAAGYnzo7IoAAAggsJ0AACMDyEDoAAggggMB8AgSAAMxPnR0RQAABBJYTIAAEYHkIHQABBBBAYD4BAkAA5qfOjggggAACywkQAAKwPIQOgAACCCAwnwABIADzU2dHBBBAAIHlBAgAAVgeQgdAAAEEEJhPgAAQgPmpsyMCCCCAwHICBIAALA+hAyCAAAIIzCdAAAjA/NTZEQEEEEBgOQECQACWh9ABEEAAAQTmEyAABGB+6uyIAAIIILCcAAEgAMtD6AAIIIAAAvMJEAACMD91dkQAAQQQWE6AABCA5SF0AAQQQACB+QQIAAGYnzo7IoAAAggsJ0AACMDyEDoAAggggMB8AgSAAMxPnR0RQAABBJYTIAAEYHkIHQABBBBAYD4BAkAA5qfOjggggAACywkQAAKwPIQOgAACCCAwnwABIADzU2dHBBBAAIHlBAgAAVgeQgdAAAEEEJhPgAAQgPmpsyMCCCCAwHICBIAAVIbw+L+3j37FGVS+G2sjgEBzAgSAAFS2gOEfH/4X7CrfjbURQKA5AQJAACpbgAAQgMp8WRsBBBIECAABSMRnWEoACMAwJB5AAIE1BAgAAahMHgEgAJX5sjYCCCQIEAACkIjPsJQAEIBhSDyAAAJrCBAAAlCZPAJAACrzZW0EEEgQIAAEIBGfYSkBIADDkHgAAQTWECAABKAyeQSAAFTmy9oIIJAgQAAIQCI+w1ICQACGIfEAAgisIUAACEBl8ggAAajMl7URQCBBgAAQgER8hqUEgAAMQ+IBBBBYQ4AAEIDK5BEAAlCZL2sjgECCAAEgAIn4DEsJAAEYhsQDCCCwhgABIACVySMABKAyX9ZGAIEEAQJAABLxGZYSAAIwDIkHEEBgDQECQAAqk0cACEBlvqyNAAIJAgSAACTiMywlAARgGBIPIIDAGgIEgABUJo8AEIDKfFkbAQQSBAgAAUjEZ1hKAAjAMCQeQACBNQQIAAGoTB4BIACV+bI2AggkCBAAApCIz7CUABCAYUg8gAACawgQAAJQmTwCQAAq82VtBBBIECAABCARn2EpASAAw5B4AAEE1hAgAASgMnkEgABU5svaCCCQIEAACEAiPsNSAkAAhiHxAAIIrCFAAAhAZfIIAAGozJe1EUAgQYAAEIBEfIalBIAADEPiAQQQWEOAABCAyuQRAAJQmS9rI4BAggABIACJ+AxLCQABGIbEAwggsIYAASAAlckjAASgMl/WRgCBBAECQAAS8RmWEgACMAyJBxBAYA0BAkAAKpNHAAhAZb6sjQACCQIEgAAk4jMsJQAEYBgSDyCAwBoCBIAAVCaPABCAynxZGwEEEgQIAAFIxGdYSgAIwDAkHkAAgTUECAABqEweASAAlfmyNgIIJAgQAAKQiM+wlAAQgGFIPIAAAmsIEAACUJk8AkAAKvNlbQQQSBAgAAQgEZ9hKQEgAMOQeAABBNYQIAAEoDJ5BIAAVObL2gggkCBAAAhAIj7DUgJAAIYh8QACCKwhQAAIQGXyCAABqMyXtRFAIEGAABCARHyGpQSAAAxD4gEEEFhDgAAQgMrkEQACUJkvayOAQIIAASAAifgMSwkAARiGxAMIILCGAAEgAJXJIwAEoDJf1kYAgQQBAkAAEvEZlhIAAjAMiQcQQGANAQJAACqTRwAIQGW+rI0AAgkCBIAAJOIzLCUABGAYEg8ggMAaAgSAAFQmjwAQgMp8WRsBBBIECAABSMRnWEoACMAwJB5AAIE1BAgAAahMHgEgAJX5sjYCCCQIEAACkIjPsJQAEIBhSDyAAAJrCBAAAlCZPAJAACrzZW0EEEgQIAAEIBGfYSkBIADDkHgAAQTWECAABKAyeQSAAFTmy9oIIJAgQAAIQCI+w1ICQACGIfEAAgisIUAACEBl8ggAAajMl7URQCBBgAAQgER8hqUEgAAMQ+IBBBBYQ4AAEIDK5BEAAlCZL2sjgECCAAEgAIn4DEsJAAEYhsQDCCCwhgABIACVySMABKAyX9ZGAIEEAQJAABLxGZYSAAIwDIkHEEBgDQECQAAqk0cA3i0BuPqn42fXzo8Prp0fn1w9Pz6/dn48dv71ksGTaw+PX137/vhpZa9YG4HpBAgAAagMHQF4NwTg5h+PH107P3577fz4U+eBP7j7i8/Pj998/J/HDyt7xtoITCNAAAhAZdgIwP4C8PPw//54Phh+rT8J+Ds2D0lA5b81rD2NAAEgAJVhIwD7C8DV74/f/d2AM+wHX31c/f74dWXfWBuBKQQIAAGoDBoB2FsAXn7n72P/wcB/hSBdfB3wSWXvWBuBcgIEgABUhowA7C0AL3/Dn5/4f7sAHK+eH+9X9o61ESgnQAAIQGXICMDeAnD1/Pj0FT/dEoLLCcHjyt6xNgLlBAgAAagMGQHYWwCunR9/JADh/9TxWWXvWBuBcgIEgABUhowAbC8Aftq/3E/7r+RU2TvWRqCcAAEgAJUhIwAE4H3+hKGyd6yNQDkBAkAAKkNGAAgAAajsMGsjkCBAAAhAIj7DUgJAAAjAsE08gMAaAgSAAFQmjwAQAAJQ2WHWRiBBgAAQgER8hqUEgAAQgGGbeACBNQQIAAGoTB4BIAAEoLLDrI1AggABIACJ+AxLCQABIADDNvEAAmsIEAACUJk8AkAACEBlh1kbgQQBAkAAEvEZlhIAAkAAhm3iAQTWECAABKAyeQSAABCAyg6zNgIJAgSAACTiMywlAASAAAzbxAMIrCFAAAhAZfIIAAEgAJUdZm0EEgQIAAFIxGdYSgAIAAEYtokHEFhDgAAQgMrkEQACQAAqO8zaCCQIEAACkIjPsJQAEAACMGwTDyCwhgABIACVySMABIAAVHaYtRFIECAABCARn2EpASAABGDYJh5AYA0BAkAAKpNHAAgAAajsMGsjkCBAAAhAIj7DUgJAAAjAsE08gMAaAgSAAFQmjwAQAAJQ2WHWRiBBgAAQgER8hqUEgAAQgGGbeACBNQQIAAGoTB4BIAAEoLLDrI1AggABIACJ+AxLCQABIADDNvEAAmsIEAACUJk8AkAACEBlh1kbgQQBAkAAEvEZlhIAAkAAhm3iAQTWECAABKAyeQSAABCAyg6zNgIJAgSAACTiMywlAASAAAzbxAMIrCFAAAhAZfIIAAEgAJUdZm0EEgQIAAFIxGdYSgAIAAEYtokHEFhDgAAQgMrkEQACQAAqO8zaCCQIEAACkIjPsJQAEAACMGwTDyCwhgABIACVySMABIAAVHaYtRFIECAABCARn2EpASAABGDYJh5AYA0BAkAAKpNHAAgAAajsMGsjkCBAAAhAIj7DUgJAAAjAsE08gMAaAgSAAFQmjwAQAAJQ2WHWRiBBgAAQgER8hqUEgAAQgGGbeACBNQQIAAGoTB4BIAAEoLLDrI1AggABIACJ+AxLCQABIADDNvEAAmsIEAACUJk8AkAACEBlh1kbgQQBAkAAEvEZlhIAAkAAhm3iAQTWECAABKAyeQSAABCAyg6zNgIJAgSAACTiMywlAASAAAzbxAMIrCFAAAhAZfIIAAEgAJUdZm0EEgQIAAFIxGdYSgAIAAEYtokHEFhDgAAQgMrkEQACQAAqO8zaCCQIEAACkIjPsJQAEAACMGwTDyCwhgABIACVySMABIAAVHaYtRFIECAABCARn2EpASAABGDYJh5AYA0BAkAAKpNHAAgAAajsMGsjkCBAAAhAIj7DUgJAAAjAsE08gMAaAgSAAFQmjwAQAAJQ2WHWRiBBgAAQgER8hqUEgAAQgGGbeACBNQQIAAGoTB4BIAAEoLLDrI1AggABIACJ+AxLCQABIADDNvEAAmsIEAACUJk8AkAACMDb67D7fzr97N6j0wdfPrr15N6j0+f3Hp0em/96fsHii0enX937n1ufvj3STVYiAASgMuoEgAAQgHyH/ccfb35074db3957dPpT84H/JuF58eWj02/+9endD/PEm6xAAAhAZdQJAAEgALkOuxj+Xz46PTf4L/lpxw+nD0nAJTNHAAjAJaMSeowAEAACEGqdvxR98efT7wz/Sw7/X78S+fOtr/8C0F+8ngABIACvT0f+nxAAAkAA4n308jt/H/v/Otgv//8v/u2Hk0/i5JtUEgACUBl1AkAACEC8wy5+w5+f/n/jT/8vJeGLH07vx8k3qSQABKAy6gSAABCAeIfde3T6lADEBODeo9PHcfJNKgkAAaiMOgEgAAQg3mH3Ht36kQCEBeBZnHyTSgJAACqjTgAIAAGId5jhHx7+P//ngnHyTSoJAAGojDoBIAAEIN5hBIAAxNNziUoCQAAuEZPwIwSAABCAcPt8QAAIQDw9l6gkAATgEjEJP0IACAABCLcPAbj8f/b3yj8hME6+SSUBIACVUScABIAAxDvMJwA+AYin5xKVBIAAXCIm4UcIAAEgAOH28QmATwDi4blMJQEgAJfJSfQZAkAACEC0ez4gAAQgHp7LVBIAAnCZnESfIQAEgABEu4cAZL8CiZNvUkkACEBl1AkAASAA8Q7LDsDu9XHyTSoJAAGojDoBIAAEIN5h3Qd49v5x8k0qCQABqIw6ASAABCDeYdkB2L0+Tr5JJQEgAJVRJwAEgADEO6z7AM/eP06+SSUBIACVUScABIAAxDssOwC718fJN6kkAASgMuoEgAAQgHiHdR/g2fvHyTepJAAEoDLqBIAAEIB4h2UHYPf6OPkmlQSAAFRGnQAQAAIQ77DuAzx7/zj5JpUEgABURp0AEAACEO+w7ADsXh8n36SSABCAyqgTAAJAAOId1n2AZ+8fJ9+kkgAQgMqoEwACQADiHZYdgN3r4+SbVBIAAlAZdQJAAAhAvMO6D/Ds/ePkm1QSAAJQGXUCQAAIQLzDsgOwe32cfJNKAkAAKqNOAAgAAYh3WPcBnr1/nHyTSgJAACqjTgAIAAGId1h2AHavj5NvUkkACEBl1AkAASAA8Q7rPsCz94+Tb1JJAAhAZdQJAAEgAPEOyw7A7vVx8k0qCQABqIw6ASAABCDeYd0HePb+cfJNKgkAAaiMOgEgAAQg3mHZAdi9Pk6+SSUBIACVUScABIAAxDus+wDP3j9OvkklASAAlVEnAASAAMQ7LDsAu9fHyTepJAAEoDLqBIAAEIB4h3Uf4Nn7x8k3qSQABKAy6gSAABCAeIdlB2D3+jj5JpUEgABURp0AEAACEO+w7gM8e/84+SaVBIAAVEadABAAAhDvsOwA7F4fJ9+kkgAQgMqoEwACQADiHdZ9gGfvHyffpJIAEIDKqBMAAkAA4h2WHYDd6+Pkm1QSAAJQGXUCQAAIQLzDug/w7P3j5JtUEgACUBl1AkAACEC8w7IDsHt9nHyTSgJAACqjTgAIAAGId1j3AZ69f5x8k0oCQAAqo04ACAABiHdYdgB2r4+Tb1JJAAhAZdQJAAEgAPEO6z7As/ePk29SSQAIQGXUCQABIADxDssOwO71cfJNKgkAAaiMOgEgAAQg3mHdB3j2/nHyTSoJAAGojDoBIAAEIN5h2QHYvT5OvkklASAAlVEnAASAAMQ7rPsAz94/Tr5JJQEgAJVRJwAEgADEOyw7ALvXx8k3qSQABKAy6gSAABCAeId1H+DZ+8fJN6kkAASgMuoEgAAQgHiHZQdg9/o4+SaVBIAAVEadABAAAhDvsO4DPHv/OPkmlQSAAFRGnQAQAAIQ77DsAOxeHyffpJIAEIDKqBMAAkAA4h3WfYBn7x8n36SSABCAyqgTAAJAAOIdlh2A3evj5JtUEgACUBl1AkAACEC8w7oP8Oz94+SbVBIAAlAZdQJAAAhAvMOyA7B7fZx8k0oCQAAqo04ACAABiHdY9wGevX+cfJNKAkAAKqNOAAgAAYh3WHYAdq+Pk29SSQAIQGXUCQABIADxDus+wLP3j5NvUkkACEBl1AkAASAA8Q7LDsDu9XHyTSoJAAGojDoBIAAEIN5h3Qd49v5x8k0qCQABqIw6ASAABCDeYdkB2L0+Tr5JJQEgAJVRJwAEgADEO6z7AM/eP06+SSUBIACVUScABIAAxDssOwC718fJN6kkAASgMuoEgAAQgHiHdR/g2fvHyTepJAAEoDLqBIAAEIB4h2UHYPf6OPkmlQSAAFRGnQAQAAIQ77DuAzx7/zj5JpUEgABURp0AEAACEO+w7ADsXh8n36SSABCAyqgTAAJAAOId1n2AZ+8fJ9+kkgAQgMqoEwACQADiHZYdgN3r4+SbVBIAAlAZdQJAAAhAvMO6D/Ds/ePkm1QSAAJQGXUCQAAIQLzDsgOwe32cfJNKAkAAKqNOAAgAAYh3WPcBnr1/nHyTSgJAACqjTgAIAAGId1h2AHavj5NvUkkACEBl1AkAASAA8Q7rPsCz94+Tb1JJAAhAZdQJAAEgAPEOyw7A7vVx8k0qCQABqIw6ASAABCDeYd0HePb+cfJNKgkAAaiMOgEgAAQg3mHZAdi9Pk6+SSUBIACVUScABIAAxDus+wDP3j9OvkklASAAlVEnAASAAMQ7LDsAu9fHyTepJAAEoDLqBIAAEIB4h3Uf4Nn7x8k3qSQABKAy6gSAABCAeIdlB2D3+jj5JpUEgABURp0AEAACEO+w7gM8e/84+SaVBIAAVEadABAAAhDvsOwA7F4fJ9+kkgAQgMqoEwACQADiHdZ9gGfvHyffpJIAEIDKqBMAAkAA4h2WHYDd6+Pkm1QSAAJQGXUCQAAIQLzDug/w7P3j5JtUEgACUBl1AkAACEC8w7IDsHt9nHyTSgJAACqjTgAIAAGId1j3AZ69f5x8k0oCQAAqo04ACAABiHdYdgB2r4+Tb1JJAAhAZdQJAAEgAPEO6z7As/ePk29SSQAIQGXUCQABIADxDssOwO71cfJNKgkAAaiMOgEgAAQg3mHdB3j2/nHyTSoJAAGojDoBIAAEIN5h2QHYvT5OvkklASAAlVEnAASAAMQ7rPsAz94/Tr5JJQEgAJVRJwAEgADEOyw7ALvXx8k3qSQABKAy6gSAABCAeId1H+DZ+8fJN6kkAASgMuoEgAAQgHiHZQdg9/o4+SaVBIAAVEadABAAAhDvsO4DPHv/OPkmlQSAAFRGnQAQAAIQ77DsAOxeHyffpJIAEIDKqBMAAkAA4h3WfYBn7x8n36SSABCAyqgTAAJAAOIdlh2A3evj5JtUEgACUBl1AkAACEC8w7oP8Oz94+SbVBIAAlAZdQJAAAhAvMOyA7B7fZx8k0oCQAAqo04ACAABiHdY9wGevX+cfJNKAkAAKqNOAAgAAYh3WHYAdq+Pk29SSQAIQGXUCQABIADxDus+wLP3j5NvUkkACEBl1AkAASAA8Q7LDsDu9XHyTSoJAAGojDoBIAAEIN5h3Qd49v5x8k0qCQABqIw6ASAABCDeYdkB2L0+Tr5JJQEgAJVRJwAEgADEO6z7AM/eP06+SSUBIACVUScABIAAxDssOwC718fJN6kkAASgMuoEgAAQgHiHdR/g2fvHyTepJAAEoDLqBIAAEIB4h2UHYPf6OPkmlQSAAFRGnQAQAAIQ77DuAzx7/zj5JpUEgABURp0AEAACEO+w7ADsXh8n36SSABCAyqgTAAJAAOId1n2AZ+8fJ9+kkgAQgMqoEwACQADiHZYdgN3r4+SbVBIAAlAZdQJAAAhAvMO6D/Ds/eNnBK+RAAAGyElEQVTkm1QSAAJQGXUCQAAIQLzDsgOwe32cfJNKAkAAKqNOAAgAAYh3WPcBnr1/nHyTSgJAACqjTgAIAAGId1h2AHavj5NvUkkACEBl1AkAASAA8Q7rPsCz94+Tb1JJAAhAZdQJAAEgAPEOyw7A7vVx8k0qCQABqIw6ASAABCDeYd0HePb+cfJNKgkAAaiMOgEgAAQg3mHZAdi9Pk6+SSUBIACVUScABIAAxDus+wDP3j9OvkklASAAlVEnAASAAMQ7LDsAu9fHyTepJAAEoDLqBIAAEIB4h3Uf4Nn7x8k3qSQABKAy6gSAABCAeIdlB2D3+jj5JpUEgABURp0AEAACEO+w7gM8e/84+SaVBIAAVEadABAAAhDvsOwA7F4fJ9+kkgAQgMqoEwACQADiHdZ9gGfvHyffpJIAEIDKqBMAAkAA4h2WHYDd6+Pkm1QSAAJQGXUCQAAIQLzDug/w7P3j5JtUEgACUBl1AkAACEC8w7IDsHt9nHyTSgJAACqjTgAIAAGId1j3AZ69f5x8k0oCQAAqo04ACAABiHdYdgB2r4+Tb1JJAAhAZdQJAAEgAPEO6z7As/ePk29SSQAIQGXUCQABIADxDssOwO71cfJNKgkAAaiMOgEgAAQg3mHdB3j2/nHyTSoJAAGojDoBIAAEIN5h2QHYvT5OvkklASAAlVEnAASAAMQ7rPsAz94/Tr5JJQEgAJVRJwAEgADEOyw7ALvXx8k3qSQABKAy6gSAABCAeId1H+DZ+8fJN6kkAASgMuoEgAAQgHiHZQdg9/o4+SaVBIAAVEadABAAAhDvsO4DPHv/OPkmlQSAAFRGnQAQAAIQ77DsAOxeHyffpJIAEIDKqBMAAkAA4h3WfYBn7x8n36SSABCAyqgTAAJAAOIdlh2A3evj5JtUEgACUBl1AkAACEC8w7oP8Oz94+SbVBIAAlAZdQJAAAhAvMOyA7B7fZx8k0oCQAAqo04ACAABiHdY9wGevX+cfJNKAkAAKqNOAAgAAYh3WHYAdq+Pk29SSQAIQGXUCQABIADxDus+wLP3j5NvUkkACEBl1AkAASAA8Q7LDsDu9XHyTSoJAAGojDoBIAAEIN5h3Qd49v5x8k0qCQABqIw6ASAABCDeYdkB2L0+Tr5JJQEgAJVRJwAEgADEO6z7AM/eP06+SSUBIACVUScABIAAxDssOwC718fJN6kkAASgMuoEgAAQgHiHdR/g2fvHyTepJAAEoDLqBIAAEIB4h2UHYPf6OPkmlQSAAFRGnQAQAAIQ77DuAzx7/zj5JpUEgABURp0AEAACEO+w7ADsXh8n36SSABCAyqgTAAJAAOId1n2AZ+8fJ9+kkgAQgMqoEwACQADiHZYdgN3r4+SbVBIAAlAZdQJAAAhAvMO6D/Ds/ePkm1QSAAJQGXUCQAAIQLzDsgOwe32cfJNKAkAAKqNOAAgAAYh3WPcBnr1/nHyTSgJAACqjTgAIAAGId1h2AHavj5NvUkkACEBl1AkAASAA8Q7rPsCz94+Tb1KZFQD1Z0cMMJABGZABGXhFBp4fDmdPTk7Ovjocbn26nVa84sAG2kGQ5UIGZEAGZOCtZuDFycnZN3fv3v1wGxHwgt/qCyZP5EkGZEAGZOBNGXi4jQQQAAIgAzIgAzIgA/MycOPG2ddbfArgpc976VhjLQMyIAMycDicvTg5uf3JcgkQRmGUARmQARmQgdkZuH2fAPiu6E3fFfln8iEDMiAD72UG7jwmAO/li51tkvbz04sMyIAMvGMZeLaDADx7x6CxYdIkAzIgAzLwrmfg/5YLwI0bZ08JAHOWARmQARmQgZkZ2OArgF/+hKKZl7aXJpMBGZABGeidgZOTs39f/gnAxR9PePGfJAhj7zB6/96/DMiADEzLwIubN+98vFwALg5w8ccTevHTXvy7/r2V8/vuVQZkQAZSGbj9YIvhf3GIiz+W8OTkzn+TABIgAzIgAzIgA6UZ+K/f/e5f/mEbAfhVAi7+eEJfB5S+eNacsmbvxr+YZUAG3tkMvDgcbj/Ybvj/rYlc/PGEh8Pt+4fDnceHw9mPwvbOho1skA0ZkAEZWJuBHy9m6cVv+NvmO/+/Hfj+GgEEEEAAAQQQQAABBBBAAAEEEEAAAQQQQAABBBBAAAEEEEAAAQQQQAABBBBAAAEEEEAAAQQQQAABBBBAAAEEEEAAAQQQQAABBBBAAAEEEEAAAQQQQAABBBBAAAEEEEAAAQQQQAABBBBAAAEEEEAAAQQQQAABBBBAAAEEEEAAAQQQQAABBBBAAAEEEEAAAQQQQAABBBBAAAEEEEAAgfeQwP8DQqmUNscv/IoAAAAASUVORK5CYII=;" parent="1" vertex="1">
          <mxGeometry x="1400" y="240" width="512" height="512" as="geometry" />
        </mxCell>
        <mxCell id="1aiJ_BxQlEHNXpEwWQYT-23" value="" style="endArrow=classic;html=1;rounded=0;strokeWidth=15;exitX=1;exitY=0.5;exitDx=0;exitDy=0;entryX=0;entryY=0.5;entryDx=0;entryDy=0;" parent="1" source="1aiJ_BxQlEHNXpEwWQYT-19" target="1aiJ_BxQlEHNXpEwWQYT-22" edge="1">
          <mxGeometry width="50" height="50" relative="1" as="geometry">
            <mxPoint x="1097" y="840" as="sourcePoint" />
            <mxPoint x="1385" y="840" as="targetPoint" />
          </mxGeometry>
        </mxCell>
        <mxCell id="1aiJ_BxQlEHNXpEwWQYT-24" value="Retain first 100 features by variance" style="text;html=1;strokeColor=none;fillColor=none;align=center;verticalAlign=middle;whiteSpace=wrap;rounded=0;fontSize=100;" parent="1" vertex="1">
          <mxGeometry x="1336" y="-220" width="640" height="380" as="geometry" />
        </mxCell>
        <mxCell id="1aiJ_BxQlEHNXpEwWQYT-25" value="" style="endArrow=none;dashed=1;html=1;rounded=0;endSize=12;strokeWidth=8;strokeColor=#CC0000;" parent="1" edge="1">
          <mxGeometry width="50" height="50" relative="1" as="geometry">
            <mxPoint x="1760" y="730" as="sourcePoint" />
            <mxPoint x="1760" y="240" as="targetPoint" />
          </mxGeometry>
        </mxCell>
        <mxCell id="1aiJ_BxQlEHNXpEwWQYT-26" value="" style="shape=image;verticalLabelPosition=bottom;labelBackgroundColor=default;verticalAlign=top;aspect=fixed;imageAspect=0;image=data:image/png,iVBORw0KGgoAAAANSUhEUgAAAgAAAAIACAYAAAD0eNT6AAAAAXNSR0IArs4c6QAAIABJREFUeAHtnQuYHFWd9kcEvl1XEW+737fqt/vtqsyMl0XnlsmN4RIUIYho9+mZ6eokIBG8kB4loKhhWCAJtyREYhKi3GSXiyQQAkiS3Y26qOD0yIKGdPWArqKiIiAYDAGS+raSNExmpma6qqtOncuP5+HpTHVXnXN+5633/Vd1dVVDA/9BAAIQgAAEIAABCEAAAhCAAAQgAAEIQAACEIAABCAAAQhAAAIQgAAEIAABCEAAAhCAAAQgAAEIQAACEIAABCAAAQhAAAIQgAAEIAABCEAAAhCAAAQgAAEIQAACEIBArAR+M3PuayqZ2YeXs/lsJet82RX5FRXh3FIRzpaKcH7iCufxinCeqv7vCmeHK5yX/L9d4TzqivwD5ZzznbJw7nCFs9wVhc9VsvmPbcvManmop+cNsXaWjUEAAhCAAAQgEJ7AUG/vIZXu/IxyrvAVVzh3lYXzC1c4u13heAn+/3NXOGsrwvmSKwrHud3dbw7fc9aAAAQgAAEIQKBmAlszmYP3BH7WuWLf0fyuBIO+1iJiV1k4gxXhXOz37bFM5i9rHhAfhAAEIAABCEBgbAI/P2n2oRWRn1MWzq2ucJ5VIPAnKgx2+F8fVHKFnq2ZzGvHHhVLIQABCEAAAhAYRcDLZF695/S6cG7c9x39RKGr6vt/9q8/cHOFj5bmzj1o1EBZAAEIQAACEIBAQ4ObKbzVFc4iVxR+rcGRfsiiY8+YFmzNzP7fzDUEIAABCEAAAg0NDQ8L5z1uLn+tK5yd5gX/qAsSd7q5wr+6oreNyYcABCAAAQhYSWAoU+j0r96XcOV+yKP1UaGd1Pob/J8XWjn5DBoCEIAABOwj4HbPbnSz+XUWHO3XUjj4P1u83RX5f7JPCYwYAhCAAASsIDCUmfOWcta5whXOi4T/qLMMfiFw/SOO89dWiIFBQgACEICA+QS8hoZXuSI/V5Of8dVy1J7YZ/w7EpZFfp7/SwjzlcEIIQABCEDAWAJ7LvAThR9yxD/qiH/cIsK/udCQyH/AWGEwMAhAAAIQMJOAf9e+cs65wBXOC4R/uPAfxmunm3W+yNkAM/cRRgUBCEDAOAIP9/T8XTnn/GBYkI17tMvnJioQCj98JJN/h3FCYUAQgAAEIGAOgbJwMq5w/kioTxTqod9/ppLNd5ujFEYCAQhAAAJGENjzoB5R+BrBHzrYQ50dKWcLl/KVgBG7DIOAAAQgoD+Bh3p63lARzhbCP9nwr/Iti/xGn7n+ymEEEIAABCCgLQH/u2lXOG41nHiVUwS4whnyb6ikrXDoOAQgAAEI6EvAzThTXeE8QehLC/2RXxc8Uc45rfoqiJ5DAAIQgIB2BIbErGNd4fyZ8E8t/KvFwJ8q3fkZ2gmIDkMAAhCAgH4EXFE4zhXODsI/9fCvFgHPV4Rzsn5KoscQgAAEIKANgXIuf6Ilj+2thqsury/4c6ONkOgoBCAAAQjoQ2Ao68zkzn7KHPWPVZjs2JbLd+mjKHoKAQhAAALKE3BFb5srnO2c9le6APCLgme5MFD53YkOQgACENCDwL6f+v2e8Fc+/KtnBZ7gJ4J67Fv0EgIQgICyBNzu7jfzO39tgr9aAPivP/PnTllh0TEIQAACEFCXQGnu3INckb+XI38tCwDPv2Mgtw1Wd/+iZxCAAASUJVARzlLCX8/wr86b/+wAZQVGxyAAAQhAQD0C5Vzh465wdleDhFd9C4FKrtCjnsLoEQQgAAEIKEfg4Z6ed/JIX30Df4xi7U/+hZzKCY0OQQACEICAOgS2dHUd6ApnYIwQGX6BGf8WuhUI+Xu5HkCd/YyeQAACEFCOQDlX+Arhr1u419bfinC+pJzg6BAEIAABCKRPYFum973c5re2MNW0SHphSOQ/kL7S6AEEIAABCChDgFP/Rgf/sK9s8iW+ClBmt6MjEIAABNIn4IrC5zQ9qh0WbraEeH3jLGed09NXHD2AAAQgAIHUCQxl5rzFFc7TFAD1Basu/CrCecqf89SFRwcgAAEIQCBdAmWRX6VLeNHPeIqUSs75Rrqqo3UIQAACEEiVgCvy/+QK5yWCNZ5g1YjjrnJ34X2pio/GIQABCEAgPQJu1tmkUWjxfX+89x9Ym57yaBkCEIAABFIjUMk5HYS/dUf+w4uo3a7obUtNgDQMAQhAAALpEHCzhTvNLwAKv3aFc5uby59bFk5mW2ZWy1Bv79u2ZjKvrVJ/LJP5S3+Z/57/DIR9N0Na6wrnceP5ZAt3VjnwCgEIQAACFhAYyhXeb/DDfu6r5PJnDWV6m+udynImf1hFFOa7wvm+qbzKOae1Xk6sDwEIQAACmhAoC+dWw45un3WzzpKKcJqSmoJtovCusshfYuBPJq9PihnbhQAEIAABhQg8kpvzdoOu/P+jf3r/0Uzm9bIQD/X2HuLfV9//Pb0hRdTzP+vu/htZ/GgHAhCAAARSIuAK53wDgmuXK/Ir3O7uN6eEscFvu5xzVhpRTGXz56XFkXYhAAEIQEACgX33/P+V5gXAtnJ21hQJuGpqwu+LK5whzZk+vjWTObimAfMhCEAAAhDQj4CbzZ+kdVDl8t980HH+SjXyfp8qwrlBZ7blXP5E1bjSHwhAAAIQiImAxj/9e6mSc86MCUNim3FzTp/GXwncmBgYNgwBCEAAAukR8C+Uc4WzU8Oj1B0V4ZycHrlwLfv3G9CRc1k4zw2/P0K4UfNpCEAAAhBQlkBZ5Hs1DP/ny935DykLNaBjrigcp2URkC3kA4bEYghAAAIQ0JWAm82v06wAeMm/ZkFX3vvOBGj1oKWycO7QlTf9hgAEIACBMQj4F6n5p3i1KgByTt8YQ9FqkSsKn9OKuXC2Dx332f+lFWQ6CwEIQAACwQSGss5MzYLouuDR6PVOWTj/ohP7crdzlF6E6S0EIAABCAQScEX+co1C6BH/bnuBg9Hsjb0/ESxUdOFfyRYWa4aY7kIAAhCAQBCBsnAGNQmgXUOZQmfQOHRd7uby01zh7NJkDv5LV870GwIQgAAEhhF4qKfnDbqEj39r3WFdN+qfbs65SpMCYPfWzKlvNAo+g4EABCBgIwH/Dm+aBM/TJgfPUGbOW3R5kuCQmHWsjfsKY4YABCBgFAE3W7hIhwLAf8KeUeDHGIwrnAU6zIX/hMUxus8iCEAAAhDQiUAlW1ivQeg8XT7xlNfpxDVKX/d9HfOM8vORza+LMj7WgQAEIAABhQi4wvmZ8oEj8pcrhCzRrlSEs1T1+SgL5xeJQmDjEIAABCCQLAH/qPp/TjvvVjxwdg+JWf+YLAl1tj6U6W1WfD48v38m/RRTndmnJxCAAAQkEfB/UqdB2NwnCYcyzbjCuU/1eRnKFd6vDDA6AgEIQAAC4Qjo8QCgwufCjUr/T5dz+XNULwAq2fzH9CfNCCAAAQhYSqCcdc5WPWj8U+K2TU9FOE2qz0tFFObbNi+MFwIQgIAxBMpZ5wrFg+ZXxsAOMRCvoeFVbtb5ncpzY/JNmUJMFR+FAAQgoCeBsnBuVTlkXOGs1ZNs/b32x6743Nxe/yjZAgQgAAEIpELAFYUfqhwy5VzhK6mAUaBRN5s/T+25cb6jACa6AAEIQAACUQi4wtmmcsjYfKGZmysIlefGFQ4PBYqy07EOBCAAARUIuML5b7VDprdNBU5p9MHNFNrVnhvnv9PgQpsQgAAEIBADAfUvNMv9bQzD1HIT23Kz/17xAuCPWoKl0xCAAAQg0NDgCudZlUPG5rvN7btL45677ik6R39mH4IABCAAAU0JuMJ5UdFw2RN8W7q6DtQUbd3d/vns2X+h8ty4wtle9yDZAAQgAAEIQAAC+xMozZ17kOIFwJ/27zF/QQACEIAABCBQN4FHM5nXK14APFP3INkABCAAAQhAAAL7E3gkN+ftihcAXAS4/5TxFwQgAAEIQKB+Aq7obVO8ALDyNs31zyxbgAAEIAABCIxDwBVOTvECgBsBjTN/vAUBCEAAAhCIRMC/DbLSBUDW+fdIA2MlCEAAAhCAAASCCZSFc4fSBYBwbgruPe9AAAIQgAAEIBCJgCucx1UuACqi8LVIA2MleQSaiiWP/2GABqJpQN6eSksQeIXAtkzve1UO/z19yzpffKXH/EtJAhh/NOOHG9x8DSi5U9Mp4wmUc/lzVC8AbH5SozYCJMgIMjQQXQPa7Oh01CgCrnAGVC8Ayt2F9xkF3cTBYP7RzR92sDPRExiT2gQqwmlSPfxd4ex+0HH+Sm2S9K6BECPE0EB0DWAhEJBNwM06S5QvALLOY7K50F4EAph/dPOHHewi7HKsAoHIBB7q6XmD6o9o3lOcZAt3Rh4kK8ojQIgRYmggugbk7am0BIGGhv85tb5A+aN/4Xj+TYqYLw0IYP7RzR92sNNgF6eLhhB4xHH+2hXOMzoUAG6u92hDsJs9DEKMEEMD0TVgtjswOpUIuDnnKi3CXzi7hnp7D1GJHX0JIID5Rzd/2MEuYLdiMQRiJbAtl+/yr6zXpAB4MNbBs7HkCBBihBgaiK6B5PZMtgyBvQTKJ57yOlc4j2gS/l5FFJYxd5oQwPyjmz/sYKfJbk43NSZQEc4NuoS/389KtnCMxrjt6johRoihgegasMstGK1sAm7W+bxO4e//RHFrJnOwbE60F5EA5h/d/GEHu4i7HatBYEICbq4gXOHs0qkAKAvn1gkHxgfUIUCIEWJoILoG1NmT6YlJBMq5/ImucHbqFP57Tv+L/ByT5sH4sWD+0c0fdrAz3iAYoHQC5Ww+6wrnBd3C3xXODv9OhdKB0WB0AoQYIYYGomsg+p7HmhAYTaAs8vN0O+0/rFC5afSIWKI0Acw/uvnDDnZK79x0ThsC/o1zXOHcOCxMPf3+XThOG+B0dC8BQowQQwPRNYCPQKBeAm7GmeoK51H9At8ZVqQUfu1lMq+ulwXrSyaA+Uc3f9jBTvLuSnMGERjKzHmLK5yva3SHv2GBPzz89/x7kUFTY89QCDFCDA1E14A9TsFI4yLwaCbzelc452vxWF8xKujHKgJ2upnCW+Piw3YkEsD8o5s/7GAncVelKc0JuN2zG11R+KpBwV8tBq7TfGrs7T4hRoihgegasNc5GPlEBLyGhldty/S+t5LLn+WKfEnv7/gDzwTsLncX3jcRC95XlADmH938YQc7RXdruiWJgNfff4D/2/dyLve3Q6J3Ulk4GTdX6HeFc7srnN8aGvrVI3+vIpx7JKGmmSQIEGKEGBqIroEk9km2qRYB/+r2oUyh083lz3WFs9YVztaKcJ7S9GY9L4d3HMVJOTtrilqzRW9CEcD8o5s/7GAXamfjw1oReCQ35+2VbGGxK5xfxRGWBm7jNq0mlM6OJkCIEWJoILoGRu9RLNGdwL6f563W8V78EouMFyvCadJ9rq3vP+Yf3fxhBzvrDcQwAJVcoccVzpMSgzTWU/LS+p1zrjJs6u0cDiFGiKGB6Bqw0zXMG3Vp7tyDXFFYIy1Aa/t9varFwTP+RY/mqcDCEWH+0c0fdrCz0DKMG/JvZs59jSvydxP+gT/1278QyTmfNk4Etg6IECPE0EB0DdjqG6aMe++RP+Ffc/GTc+7nnv+mqL+hoQHzj27+sIOdQVZg5VA47V/jUf/eryxe8G9sZKVQTB00IUaIoYHoGjDVF2wYV1nke2s+8tX7O/v9T+FHHEs551xggy6sGiPmH938YQc7q8zCoMFu+2jhTa5wnqAAqPkMwI+2ZjIHGyQBhuITIMQIMTQQXQO4iJ4EXOH4v/OP5cjYgu08vS03++/1nGl6PS4BzD+6+cMOduPuXLypJIGh3t63cZOf2oufSjbfreRE0qn6CRBihBgaiK6B+vdAtiCbwL7b+3L0X9MZkPwK2fNDexIJYP7RzR92sJO4q9JUDAT8p/e5WecxC07bx1Dg5L/L9/4xiE7lTRBihBgaiK4Blfdt+jaawJ6n+tV05Fv7KXJDi4my/5jj0QRZYhQBzD+6+cMOdkaZgQWD2fdI3xiOjo0uEJ58uKfnnRbIgSESYoQYGoiuARxELwKucNYaesQeS1FTFs5zleys6XrNKr2NTADzj27+sINd5B2PFVMh4ArnpxQAgWcvdlS68zNSmRgaTYcAIUaIoYHoGkhnr6XVqAR41G9g+O8cyjozo3JlPU0JYP7RzR92sNN0t7e22/z+f8wC4AU3mz/JWlHYPHBCjBBDA9E1YLN36Dh2Tv+PKgC2u6JwnI5zSZ9jIID5Rzd/2MEuhl2QTUgkQAEwrADIOX/wfxYpET9NqUaAECPE0EB0Dai2P9Of8QlQALxcAPxsmyi8a3xavGs8Acw/uvnDDnbGG4RhA6QAcLyKcLY84jh/bdjUMpwoBAgxQgwNRNdAlH2OddIjQAHgrC7NnXtQejNAy0oRwPyjmz/sYKfUzkxnJiRgcQHwp3I2n50QEB+wiwAhRoihgegasMst9B+tpQXAfeVM/jD9Z48RxE4A849u/rCDXew7JBtMlIBlBcAL/qOPOeWfqKT03jghRoihgega0Hvvt6/3thQAFeH8ZEjkP2DfDDPiUAQw/+jmDzvYhdrZ+HDqBCwoAJ4u5/LnbM1kDk4dNh1QnwAhRoihgegaUH8Pp4fDCRhcAOxyhXM9P+8bPtv8e0ICmH9084cd7CbcwfiAUgTMLADyd1cysw9XCjSd0YMAIUaIoYG6NLCzqa/0VHOx9GhTsfRQ07zSD5v6Src0FQcvbJ43mH/3vB+1/cM5pdfr4Qbm99KwAmBzJed0mD9rjDAxAph/XebvwQ9+tWjALxCaiwOrm+eVMu8946E3JLZDs+FxCRhQALxYFs6tQ7nC+8cdKG9CoBYCtZgXnyHk0ECsGnipqTjw3cZ5g6cdXnzg0Fr2Uz4TDwFtC4Cs8xv/J30P9/T8XTwk2AoEGhoaMPZYjZ0zAkV4htqn5pV2NBVLNzedOfDhhn7vAEwpWQKaFQA7KtnCejebP2lLV9eByZJh61YSCGVWmDsBjwaS1MBPm+YNFLr6t2D2CbmxBgXADlc4G1yRLwz19h6SEAY2C4G9BCgAOGJFA8ppYKhp3sCpFALxu7TqBcDWTOa18Y+aLUIggADmr5z5J3mEybY1OoPRWCz912HFgSkBuy6LIxBQvQCIMCRWgUB0AhQAFABoQGkN7G4qDl7/vrMe5Pnt0W3u5TUpAF5GwT8gwEWAhJ/S4ccZi1fOWPyhuW/gI3hWfQQoAOrjx9qGESAACUA0oI0Gdjf2la5o7t/Kfd4j+jAFQERwrGYmAcxfG/PnaPiVo2HbWdzfWHzg7810pGRHRQGQLF+2rhkBCgAKADSgpQaebCz+uFMzu0m9uxQAqU8BHVCJAOavpfnbfgTM+PeeDdn+7r7BD6nkJ6r3hQJA9Rmif1IJUABQAKABrTWws7E40C3VNDRujAJA48mj6/ETwPy1Nn+OhLkuwNfArqa+gVz87mDeFikAzJtTRlQHAQoACgA0YIQGXmicN/jBOqzAilUpAKyYZgZZKwHM3wjz50wAZwJ8DTzHhYHjOx8FwPh8eNcyAhQAFABowCgN/J6fCAabOAVAMBvesZAA5m+U+XMmgDMBXmNx8EfcLGhsM6cAGJsLSy0lQAFAAYAGzNNAc7F0uaWWNu6wKQDGxcObthHA/M0zf+aUOW0qlnY3FUsn2eZnE42XAmAiQrxvFQHCgrBAA8Zq4A/v+nzpzVYZ2gSDpQCYABBv20UA8zfW/LkegOsBfA2sscvRxh8tBcD4fHjXMgIUABQAaMBoDezip4GvmDoFwCss+BcEGjB/o82fswCcBfA18FBX/5YDsbuGBgoAVACBYQQoACgA0ID5GmguDpwybLe39p8UANZOPQMfiwDmb775M8fMcVOx9AhnATgDMFYGsMxiAoQD4YAG7NAATw2kALA46hj6WAQwfzvMn3lmnpv6Slsb+r0DxvIBW5bxFYAtM804ayJAMBAMaMAeDTQXB46ryRgM/RAFgKETy7CiEcD87TF/5pq5bpo3eGM0pzBjLQoAM+aRUcREgFAgFNCARRqYV9pxePGBQ2OyD+02QwGg3ZTR4SQJYP4WmT+/iee+CL4G5g2cmqSnqLxtCgCVZ4e+SSdAAUABgAas08AW6UajSIMUAIpMBN1QgwDmb535cxTMmZAX3/HZ+w5Rw4Hk9oICQC5vWlOcAAUABQAasFIDxytuTYl0jwIgEaxsVFcCmL+V5s9ZAMvPAjTPK12mq2fV028KgHrosa5xBCgAKADQgIUamFf6sXFmVsOAKABqgMRH7CGA+Vto/pYf/aL5PZrfddjZ977OHqfbO1IKANtmnPGOSwAzpABAA3ZqoPHMwZZxzcHANykADJxUhhSdAOZvp/kz78x7Y1+pJ7pz6LkmBYCe80avEyJAEBAEaMBODTT3lc5PyFaU3SwFgLJTQ8fSIID522n+zDvz3lQcuCkNz0mzTQqANOnTtnIECAKCAA3YqYHmYule5Qwp4Q5RACQMmM3rRQDzt9P8mXfmvalYelAvt6q/txQA9TNkCwYRIAgIAjRgqQb6Sj8zyMpqGgoFQE2Y+JAtBDB/S82fewFwN8Ri6QlbfK46TgqAKgleIdDQ0EABQAGABqzVwPO2mSAFgG0zznjHJYD5W2v+HAFzFoQCQDieSkXBuGbNmxCImwAFAAUAGrBWA3wFQAEQd6SwPZ0IYP7Wmj9nAGw/A8BFgEod/ftnInTKDvpqAAEKAAoANGCtBvgZIGcADEgxhhCZAOZvrflzBsDyMwDcCEit7/85AxA5xlgxKgEKAAoANGCrBrgVsEoXAFIARE0x1otMAPO31fwZt+3a52FAnAGIHBysaAYB202Q8VMI2KoBHgdMAWBGijGKyARsNT/GTfDbroHGMwdbIhuHpiuqdsp/ZH80xUq3dSVguwkyfgoBSzWw67Cz732drr4Vtd8jA1e1v6OOi/UgEImApebHFfCWXwFvve7nlX4cyTA0X0m1wB/ZH83x0n3dCFhvhAQhxZCFGmgsli7Vzavi6O/IwFXt7zjGyDYgUDMBCgBOgaMBCzVw5sCHazYJgz6oWuCP7I9BqBmKDgQwfwvN38IjXnS+n85ffMdn7ztEB3+Ku48jA1e1v+MeL9uDwLgEMMb9jJHT4RQHxmugeV7pP8Y1BYPfVC3wR/bHYPQMTUUCFAAUAGjALg00FwdOUdGLZPRpZOCq9rcMBrQBgZcJYP52mT/zbfl8zyvtOLz4wKEvGwD/gAAE7CVAIFgeCJzyN/6U/377+LzBG+11O0YOAQjsR2A/cyAM7AoD5tu6+W4uDhy3nwHwBwQgYC8BCgDOAKABSzTQV9ra0O8dYK/bMXIIQGA/Api/JebP0b51R/uj9u2+gdx+Oz9/QAACdhMYZRIEBUGBBkzUwFBD5pZX2+12jB4CENiPAAUAZwDQgPkaaCwOzt5vx+cPCEAAApi/+ebPHFs/x4Mc/eP1EIDAKAKEg/XhYOLpbsb0ytc4uxqLP+4cteOzAAIQgAAFAAUAGjBYA32lq3A5CEAAAmMSwPwNNv9XjgI5IraTxRONn77/TWPu+CyEAAQgQAFAAYAGjNTA7ua+gY/gcBCAAAQCCWD+Rpo/R/x2HvG/PO+NxdKlgTs9b0AAAhDwCVAAUACgAeM0cH9z/9aDcTgIQAAC4xLA/I0z/5ePAplb++a2sVj6XfOZpf877k7PmxCAAAR8AoSEfSHBnBs75882FUsfwNkgAAEI1ESAMDA2DDgTYNd1ADsb+0rH1rTT86FQBLxM5tVDmUKnm8uf6wpnrSucrRXhPOUK5wX//33//ume93L5c4dE7ySvv5+HLoWizIdTIUABQAGABrTXwK6meYMiFQMxuNFHcnPeXskWFrvC+ZUrHC/U/1nnMVc4i4Z6e99mMCKGpjsBzF978+dI364j/ZHzvbOJp/zFasNDmTlvcYWz2hXOzlChP3aRsLOcc1a63d1vjrWTbAwCcRCgAKAAQAPaauBPjfMGPxiHD7CNvQQquUKPK5wnYwj+/c8Y5Jw/uMLhccwITS0CmL+25j/ySJC/7ToT8NvGMwdb1HITfXtTmjv3IFcU1sQe/CPOCpRFfpXflr6k6LlRBCgAKADQgF4aaCwO/uiwz9z//4wyohQH85uZc1/jivzdSYf/sO3f5beZ4pBpGgJ7CWD+epk/82X1fO1u7CtdwU1+4nPvvUf+UsO/+tXA5q2ZDDdrim8q2VIUAgSK1YHC1wb6fG3wRGPf4Mwo+zjrBBOQcdp/2JF/Nfz3vPoXBwb3jHcgIIEABQAFABpQWgO7m4qD17/jsz9+iwQ7sKqJssj3BoWztOW5Aj/ftEp1ig0W81fa/DlC1+cIPYm5eqDxzB9NVswyjOjOto8W3uQK5wlpQT/iYsBh7T7JTwSNkJSeg6AAoABAA8ppwG0sDs5uyNzyaj1dRf1e7/ud/36n5IeFsuTl+RXqE6OHRhLA/JUz/ySOJNmmHmcSftI0b6DQ1b/lQCPNRpFB+Xfni+kmP3EVCjsfzTg8wEkRfVjVDQoACgA0kKoG/tw0b/DG5uLAcQ0N3qusMp+UBrvv9r5xhXdc21mUEg6atZkA5p+q+XNkrseRedzz9GJTsbSluThwyj+cU3q9zf4je+z+Q3rcvffpjyu449rOr/yHDsnmQXuWE6AAoABAA8lroLlYerS5OLC6eV4pc3jxgUMtt53Uhr/nqX7BF+TFFebRtpMptKcGhobtJID5J2/+MDaa8c6mYulJP+CbiqUHm/oGv99UHLipqVj658a+Uo9/u97Dzr73dXa6i3qj3vdI32gBnXzh8AX1iNEjowkQTkaHU9ynrtneiK8sjDYHAwfnZvPr0rvaf/xHCley+W8ZiJwhqUyAAoACAA1E14DK+zZ9G03AFc5PVS0AXOE8NLrHLIFAggQw/+jmDzvYJbhrsukECCTyqN/4vhp4IoEhs0kIBBMgxAgxNBBdA8F7Fu+oSECx3/+PvBbheRU7lln2AAAgAElEQVSZ0SeDCWD+0c0fdrAz2BqMHBoFgJHTyqCiEiDECDE0EF0DUfc71kuHAF8BpMOdVhUlgPlHN3/YwU7R3ZpuBRDgIsAAMCy2kwAhRoihgegasNM19B01PwPUd+7oeQIEMP/o5l8Pu/az/tPL9K/1zr70Sm/Vyi9791w/1/uvb2U8d92J3i/Xf9B75u7p3gubOvb87//bX+a/53/G/6y/jr+uvw1/W/X0hXWjayCBXZJNJkhA5RsBlXP5cxIcOpuGwGgCmH908w/DruWse71TLrzBW7PqXO+nt57s7drc5nmbW2L73y8Qbv5Gn1e8eLXXMf+7FAQjbtgTZq7CfHb0HsUSlQkMid5J6t4HoLdNZXb0zUACYcyOz4YrFtrnf887b8kSr3RzzntpU2tsYT9R4eC3NXBzt7dgyVLP7wPzFm7ewvAy0BKMHtKehwEJ55eqFQFl4fzC75vR8BmcegTCmB2fnThI3l38kXf6wmu8b1//Se/5jR3SQj+oKPD74Pflkxdd6/l9Yw4nnsMwjNTbo+nRRARc4SxSrQBwc87CifrN+xCInUAYs+OzweHhh+unFn7D23rrR1MP/aBiYGjdCd4XLrvSe08fhUBcWo59h2SDiRMY6u19m2L3A3jezRTemvjAaQACIwnEZYS2bscP069cvsz75e0fUjb4RxYEv1h/nPflJVdQCMRwncDI/Ym/9SBQzjkr1TkLUPiqHtTopXEEbA3uOMadOe9W7ye3fkyb4B9ZCJTXneT1nn8zXwvUUQgYZwiWDGhr5tQ3usJ5IvUiIOf8we3ufrMl2BmmagTiCELbtjFp/ve8b141P/Yr+UcGtIy/d29q9dZf+ylvytn/QSEQoRBQbX+mP7UTcIWTS7sAKAsnU3uP+SQEYiZgW3jXO97PLP6698e7p2l71B9UVDx913Tv04u+QREQsgiIeXdkc5IJlEV+VWpFQNa5UvJwaQ4C+xOoNxBtWd//rt//Db9/xBwUorov98fmn9l4X999FAI1FgL77038pRsBL5N5tSuc26QXAdnCnVu6ug7UjRf9NYyALQFezzhnnLvR+8m3TjY2+EcWLg9962PeMV+8hyKghiLAMDuwcji/mTn3Na5w7pJYBGzw27QSNoNWi0A9wWjDuv6Ffk/e1WVN+FeLAf9rjm4uEJywCFJrb6Y3UQmU5s49SMovA7LOlRz5R50l1oudgA0hHnWMsy+4wdv+7cnWhX+1CPjzPZO90y66dsIQjMrXhPVi3yHZYKoE3FxBJPTrgN9zwV+qU0vjYxEwwYSTGMOZi6/ydm6cZG34V4sA/4FEZ12ykiIg4OuAsfYplulNYNtHC29yRX6FK5znY/ha4HlXFL7q/+xQbyr03kgCSYSn7tv0Ay/uh/VUA1XHV5/F5y9ZRREwRhFgpCkwqD0E/Lvz7bttcJRnB/zSv70vd/hDTEoT0D2s4+7/nAu/yZH/GE8pfHFju3faRddRBIwoApTeuelcLAT2PEAoU2j/nzMCX6hk899yhfOQK5wn991OeOe+fz/ov+c/0tcVvW082CcW9GwkaQJxB6jO28v0r/We+/YU60/7B52l2HFPJxcGUgAkbUlsHwIQkEVA58COs+/+T/2euusIwn+Mo//hBYH/iwh+IvjKQ6Fk7ae0AwEIQCB2AnGGqK7beu/n7vceuCVL+E8Q/tVCwL8nAjcL2lsExL5DskEIQAACsgjoGtpx9vv6NWcT/jWGf7UIuGb1OVwPUCx5svZT2oEABCAQO4E4g1THbZ2x6Gqjb+9bDey4X/3bBvvPRdBxzuPsc+w7JBuEAAQgIItAnGao27amnL3FyAf7xB32QdvzHyA0+ezvWF0EyNpPaQcCEIBA7AR0C+04+7vumjM59R/y1P/IYuBbV8+jAIh9r2SDEIAABCQQiDNQddpW7/k3c+q/zvD3iwH/JkE2PzNAwi5KExCAAASSIaBTaMfVV//RvuV1J3H0H0MB4BcB7roTPZ9pXPOj03aS2SvZKgQgAAEJBHQy27j6umDJUsI/pvCvfiXwpcuXUwBI2F9pAgIQgEBsBOIKVV22856+Ae+/b/8wBUDMBcAvb/+QlWcBYtsR2RAEIAAB2QR0Ce64+jn/0hWEf8zhXz0LYONTA2Xvr7QHAQhAIDYCcQWrDttp7hvwKutmUgAkVAA8sm6m9+6iXdcCxLYjsiEIQAACsgnoENxx9fH0hdcQ/gmFf/UswNyFdj0xUPb+SnsQgAAEYiMQV7jqsJ17rp9LAZBwAXDXdZ+06mLA2HZENgQBCEBANgEdgjuOPraf9Z/ejnsmUQAkXAA8v7HDa5//PWuKANn7K+1BAAIQiI1AHOGqwzbOW8pP/6qn6ZN+/fKSKygAYttD2RAEIACBhAjoEN5x9LF0c46j/4SP/quFxf03dVMAJLS/slkIQAACsRGII1xV34Z/+v+lTa0UAJIKgJc2tXltZ91rRREQ247IhiAAAQjIJqB6eMfRv08tuprwlxT+1bMA/i8u4pg71bche3+lPQhAAAKxEVDdYOPo33VXnUMBILkAuPqqL1AAxLaXsiEIQAACCRCII2BV30Z57UcoACQXAA+vPYkCIIH9lU1CAAIQiI2A6uFdb//87/938/2/9ALIf0xw61nfN74IiG1HZEMQgAAEZBOoN2BVXz/bf6v08Kt+D27768fPW0sBIHuHpj0IQAACtRJQPcDr7d85PPwntQJo/iVfowCodUfkcxCAAARkE6g3YFVff9XKL6cWgLafAVjxtfMoAGTv0LQHAQhAoFYCqgd4vf3beP1pFACSLwCsFj53X3c6BUCtOyKfgwAEICCbQL0Bq/r6D9ySpQBIqQAYvCVLASB7h6Y9CEAAArUSUD3A6+3f0LoTKABSKgD8n1/WO3+qr1/rfsbnIAABCChHQHWDrbd/v77jWAqAlAqAx9YfSwGg3B5PhyAAAQjsI1BvwKq+/h/vnkYBkFIB8NRdR1AA4DQQgAAEVCWgeoDX278XNnVQAKRUAOzcOIkCQNUdn35BAAIQqF6xzWsLhUJKhYLO2pu++hjP5P+bV6x4LS6ZDoGO/uWHmKwtf2zpkKXVlwnobL70naIlbQ2YbtAtF1zwjy+bBf+QSqB94cJ3ma4vqUBpbDSBtA2U9glxnTVgukG3Lb5w8mjXYIkMAu+/8MLpputLBkfaGIeAzuZL3yke0taA6QbdunjBR8axD95KkEDrwv6Pm66vBPGx6VoIpG2gtE+I66wB0w26beH5p9XiI3wmfgIti/pPN11f8VNji6EI6Gy+9J3iIW0NmG7QbRefe1koQ+HDsRFoW3zuMtP1FRssNhSNQNoGSvuEuM4aMN2gOy79/OZozsJa9RLouOxz/2G6vuplxPp1EtDZfOk7xUPaGjDdoDuWnP5onRbD6hEJdC45/eem6ysiGlaLi0DaBkr7hLjOGjDdoKcsz2+Py2vYTjgCU5b3Pme6vsIR4dOxE9DZfOk7xUPaGjDdoKetOn53Q3//AbEbDxscn0D/lgOnrTx+t+n6Gh8C7yZOIG0DpX1CXGcNmG7Q/vj8n6MlbkQ0sB+B1kXnd9ugrf0GzR/yCehsvvSd4iFtDdhg0u0Xz79NvjPZ3WL7ZfM32KAtu2dZgdGnbaC0T4jrrAEbTLpz2amPK2BVVnWhc9kpv7dBW1ZNqoqD1dl86TvFQ9oasMGkp648fndzf//BKvqXiX3q6u//C//aCxu0ZeL8aTWmtA2U9glxnTVgg0n7Y2y/6PzPamVsGne29ZIFfbboSuNpMqPrOpsvfad4SFsDthj1pCWfftgMx1N/FJOWfMq1RVfqz4bhPUzbQGmfENdZA7YYtf81wLv7+99ouB2mPrzDl/YfOnXlCVac/vf3ndSB294Bnc2XvlM8pK0BWwoAf5xtF39pqe1+mfT4Wy/54nKbNJU0T7Y/AYG0DZT2CXGdNWCTWftXpk9gJ7xdJ4HOZadacfV/db+pExer10tAZ/Ol7xQPaWugamRWvK6a4bUvvOCkej2H9ccm0Hbh+TOnr57hWaGl1cfsGefYJFgqjUDaBkr7hLjOGrDJrP2xTlpy+s+lmZNlDXUu+eQvbNOTZVOs3nB1Nl/6TvGQtgZsM+xpq2Z4rRddNEM9J9O7R20XX3S0z9Y2Pek9awb0Pm0DpX1CXGcN2GbY/ngnLfm0a4D1KTWEzsvPGLJRS0pNgo2d0dl86TvFQ9oasNG0/SPVtkXnCxv9Mokxtyzu77Hx6N/fd5LgyTZDEEjbQGmfENdZAzYWAP6YpyzPb2/o33JgCKvho2MR6N9y4OQrnGdt1dFYSFgmkYDO5kvfKR7S1oCtxu2Pu+Pic66WaFVGNtVx6Reut1lDRk6qToNK20BpnxDXWQM2m/fUr31kV8eXL3inTn6nUl/bFy5819SVM625699Y+4pK82FlX3Q2X/pO8ZC2BsYyNZuWTV56yu8a+vsPsNI86xl0f/8Bncs+8bhNWhlrrPUgZN0YCKRtoLRPiOusgbFMzbZl7ZeedXsMVmTVJtovm7/BNp2MNV6rJl3FwepsvvSd4iFtDYxlatYtW/VBr23h+aep6G8q9qlt4YI501d90Lrf/I+1X6g4P1b1KW0DpX1CXGcNjGVqNi6beuXJL7YsvKzRKvOMMNiOhQubp644+UUbNTLWmCMgZJU4CehsvvSd4iFtDYxlarYum7K8d3vL0nP/T5z+ZNK2fDaTv9r7nK36GGvcJs2vlmNJ20BpnxDXWQNjmZrNyyYvm/VUR//yQ7Q0wwQ73bxixWs7l835g83aGGvsCSJn07UQ0Nl86TvFQ9oaGMvUbF/mP9SGmwQNc9/+LQd2LrXvQT+17AfDKPHPNAikbaC0T4jrrIFaTM7Gz3Qu/cSvD1/af2ganqZSm3uO/C18yl+tmldprqzsi87mS98pHtLWQK1GZ+Pn/K8D/unCC99qpbE2NDR0XLTsbyYvO+UJG+e+1jHbqg1lxp22gdI+Ia6zBmo1Ols/N2V573P+le/KGJ6kjky+qP89/thtnfdaxy1pOmgmiIDO5kvfKR7S1kCtRmfz56auOPml1oULPhnkQaYtb1+4YNbUKz/GT/1WHzPhvQ5Mm3vtxpO2gdI+Ia6zBmwO9nBjP9Zrv7TvO0ZfHNjff0D7pfPXcZOfiYO/qh3tAtO0DutsvvSd4iFtDVSNjNfaTL9z2amPm/gAIf/BPp3LTv0tOqhNB1VOpuWpduNJ20BpnxDXWQNVI+O1duOftvKE3f6RshFnA/r7D2i7+Aurp644cRcaqF0DVVbaBaZpHdbZfOk7xUPaGqgaGa/hzd+/SM7/vlxXT21bdL6YfEXhWeY+/NxXmek698b0O20DpX1CXGcNVI2M12ghMG3VDG/Skk+5rRddNEMXU21ZdMGxnZefMeT3nXmPNu9VbrrMubH91Nl86TvFQ9oaqBoZr/UFwfTVM7zJyz7x25bF/T2qmm37wgtO6lhy+qPTVx9L8NdwhX8t+4Sqc21Nv9I2UNonxHXWQC0mx2dCFAerZnidy079fdvic5e9u7//jWkbsd+H1ku+uNzv03SO+GMvfNKeX+vb19l86TvFQ9oaINxDhHvIo8apK4/fPWnJp93WhV8pdvX3/4Uss/bb8tv0v5rw+8AcJzfHsuaUdgIIpG2gtE+I66wBwiG5cBjOdtrK47zOZXOe7Lj0rLs/sPif83H/guD9C//5iI5LzvnmpKWnPTZ15QmEfshibfhchfl3QCyxWBYBnc2XvlM8pK2BMGbHZ+MrFqatPH73lOW92zuXnP7z9kv7/r3t4i8t9e822Lqw/+N+mLdccME/+g/i8f/3/+0v89/zP+N/veCv46/r/xLB3xZzE9/chGEpK+doJ4BA2gZK+4S4zhoIY3Z8Np2Qgbu63ANiicWyCOhsvvSd4iFtDRAu6oYLc6P+3MjKOdoJIJC2gdI+Ia6zBggZ9UOGOVJ3jgJiicWyCOhsvvSd4iFtDRAu6oYLc6P+3MjKOdoJIJC2gdI+Ia6zBggZ9UOGOVJ3jgJiicWyCOhsvvSd4iFtDRAu6oYLc6P+3MjKOdoJIJC2gdI+Ia6zBggZ9UOGOVJ3jgJiicWyCOhsvvSd4iFtDRAu6oYLc6P+3MjKOdoJIJC2gdI+Ia6iBrZvbPW23dnubbxtsrfm5qneghume6df2+XNvuZIL3f1Ud7xa47yjl59dOz3Rie01A8t5ii+OQqIJRbLIqCi+dInigLZGvjzxlavdEeHt+rmqd5p13R5XYQ7xY2k2+HaXFDIyjnaCSAg22hpj3BXRQN/2tjq3bF2sveZ6/zAj++oxmZDZ+zoKIwGAmKJxbIIqGLG9IPCQIYGdm1u9X6wfpJ33g3TvWOuwqzDmDWfRS9xa0BWztFOAAEZpksbhHvaGvCD//vrO71PXHskp7Y524EGFNFAQCyxWBaBtI2Z9ikOktTAS5tavA3rJu+5cC/uoxe2xxExGqhPA7JyjnYCCCRpvmybcE9TA+U7O7zTru3iaE+Roz3Csr6wNJFfQCyxWBaBNA2atikQktDAMxtbvStumsaV/AQ/xZ/iGpCVc7QTQCAJA2abBHtaGvje7ZO8E9bw+3wTjxYZk3lnEAJiicWyCKRl1LRLkRCnBvzv+v3f8B+h+BEPIWZeiDGn0edUVs7RTgCBOE2YbRHqaWjgN99u8+ZydT+nuyn+tNNAQCyxWBaBNAybNikU4tKAf6HfiWuO0s74OGqMftQIO3PYyco52gkgEJcRsx1CXbYGBjdM8j60xhwzJNiYS9s0EBBLLJZFQLZp0x6FQhwa+O7tnd7RV3Gxn22BwXjNKpJk5RztBBCIw4zZBqEuUwP/dlsnP/Hj+26+9jFAAwGxxGJZBGQaN21RKNSrgdIdkzjyN8D4OZI360g+6nzKyjnaCSBQryGzPqEuSwPb7mz3Pshv/DnypQAyRgMBscRiWQRkmTftUCjUowH/p34zv853/lGPtFiPI24VNSAr52gngEA9psy6hLoMDby4qcU74zru6a+igdMnCot6NBAQSyyWRUCGgdMGhUI9Glh+41RjTnnWY5asS9iapgFZOUc7AQTqMWbWJdiT1sD310/i9r58500BaKgGAmKJxbIIJG3gbJ8iIaoGnt7YxoN9DDV+045kGU+0szOyco52AghENWfWI9iT1sCif53GkR8FABowWAMBscRiWQSSNnG2T6EQRQMPbejg1L/Bxs8Rc7QjZtO4yco52gkgEMWcWYdQT1ID/qN9T7mGq/5NM3vGQ+iP1EBALLFYFoEkjZxtUyhE0cCGdZM57cvRPxqwQAOyco52AghEMWjWIdiT0sCuzS1ez9VHYv4WmP/Io0H+tu8MQUAssVgWgaSMnO1SJETRwKbbOgl/wh8NWKIBWTlHOwEEopg06xDuSWhg9+YWb9Y1HP1zJGzfkbCtcx4QSyyWRSAJI2ebFAhRNPCD9ZM48rPkyM/WwGPc+xd3snKOdgIIRDFq1iHgk9DAghumUwBQAKABizQQEEsslkUgCSNnmxQIYTWwfWOrN2PN/kcHHC3BAw2YrQFZOUc7AQTCGjWfJ9yT0MD6tVz8R9iZHXbM7+j5DYglFssikISZs02KhLAa+AyP++XUt0WnvikG9hYDsnKOdgIIhDVqPk+4x60B//R/F+ZPAYAGrNNAQCyxWBaBuM2c7VEghNXAvVz9b53xcwQ8+nS4jUxk5RztBBAIa9Z8noCPWwNfvWkqAcjRLxqwUAMBscRiWQTiNnO2R4EQVgNzuPkP4Wdh+Nl4xD9yzLJyjnYCCIQ1az5PwMepAf/7/yMwfwoANGClBgJiicWyCMRp5myL4iCsBh7e0G6l8Y08EuJvvhO3UQOyco52AgiENWw+T8jHqYGNPPyHAoijf2s1EBBLLJZFIE4zZ1sUB2E1sOZmLgC08ciPMXPGw9eArJyjnQACYQ2bzxPycWpgwb8cYe3RDyFICNqugYBYYrEsAnGaOduiOAirgTO4AyAFEF8BWKsBWTlHOwEEwho2nyfk49TArGuOstb8bD/6Y/ycAQmIJRbLIhCnmbMtioOwGsh8gwKAICQIbdWArJyjnQACYQ2bzxPycWrghDVHcwaAU+BowFINBMQSi2URiNPM2RbFQVgNHL2aAsDWoz/GzZkPWTlHOwEEwho2nyfk49QABQAhQCFgrwYCYonFsgjEaeZsi+IgrAb4CsBe8yf4mXtZOUc7AQTCGjafJ+Tj1AAXARICFAL2aiAgllgsi0CcZs62KA7CaoCfAdpr/gQ/cy8r52gngEBYw+bzhHycGuBGQIQAhYC9GgiIJRbLIhCnmbMtioOwGuBWwPaaP8HP3MvKOdoJIBDWsPk8IR+nBngYECFAIWCvBgJiicWyCMRp5myL4iCsBngcsL3mT/Az97JyjnYCCIQ1bD5PyMepgYc3tHMXOEvvAkcBQAEQEEsslkUgTjNnWxQHYTWwfWOrdwQBSBGEBqzUgKyco50AAmENm88T8nFrYM41R1ppfhwBcwRsuwYCYonFsgjEbeZsjwIhrAa+etNUCgCOgNGAhRqQlXO0E0AgrFnzeQI+bg3cu34S5m+h+dt+9Mv4j/ECYonFsgjEbeZsjwIhrAb86wC6CECKIDRgnQZk5RztBBAIa9Z8noBPQgOfve4I68yPI0CuAbBdAwGxxGJZBJIwc7ZJkRBWA3esnUwBwBEwGrBMA7JyjnYCCIQ1aj5PuCehAf9rgBlrOCK0/YiQ8du1DwTEEotlEUjCzNkmRUIUDZx3w3SOAC07AiTw7Qr8kfMtK+doJ4BAFKNmHQI+CQ38kF8DUABRAFmlgYBYYrEsAkkYOdukQIiigd2bW7xZ3BTIqgAYeUTI33adEZCVc7QTQCCKUbMOAZ+UBjbd1kkAchSMBizRQEAssVgWgaSMnO1SJETRwK7NLV7P1dwamCNhu46EbZ1vWTlHOwEEopg06xDuSWrgzrWcBbA1EBi3XYVPQCyxWBaBJI2cbVMoRNGAfxbgFK4F4DS4JafBbS56ZOUc7QQQiGLQrEOwJ62Bhze0e12rjyYECUE0YLAGAmKJxbIIJG3kbJ9iIaoGFv8r9wWw+eiQsZv/dYCsnKOdAAJRzZn1CPakNfDHe1q9E77OWQCC0PwgtHWOA2KJxbIIJG3ibJ9CoR4N/GD9JO8Ig0+B2mr8jJuixteArJyjnQAC9Zgz6xLuMjRw5U3T+B6YIggNGKiBgFhisSwCMgycNigU6tHAi5tavDOu6yIADAwAzgTYfSZAVs7RTgCBeoyZdQl2WRp4/Nvt3olrjqIIoAhAAwZpICCWWCyLgCwDpx2KhXo1UL6zw/sQjwwmAA0KQNvPgMjKOdoJIFCvKbM+wS5TA4MbJnlHX8UvA2wPDsZvxlcHAbHEYlkEZJo3bVEsxKGBf7ttEjcJ4iiYMyEGaEBWztFOAIE4DJltEOyyNfDd2zu9Y64y4yiIo1nm0VYNBMQSi2URkG3ctEexEJcG/K8DjlvD1wG2hgfj1r9wkpVztBNAIC4zZjsEexoaKN/V4X3k6/w6gDDUPwxtnMOAWGKxLAJpmDZtUizEqYHffbvN+9R1R/KdsAHfCdsYgjaPWVbO0U4AgTiNmG0R7Glp4KVNLd7Vt0zh4kCKAApBjTQQEEsslkUgLcOmXYqFJDRw7/pJPEBIowCw+eiXsfMsAFk5H9hOEibMNgn3NDXw7MY274qbpnE2gEKAswGKayAwmHhDDoE0jZq2KRSS1IB/geDca7k2gCNNLhBUVQNyUo5WAgkkacBsm4BPWwO7Nrd4d63r9HquphBQNQTol70FSmAw8YYcAmkbNO1TJMjQwK7Nrd7313d6n+CMAKfFFT8tblNBJCflaCWQgAzzpQ1CXhUN7N7c4t23vsPr/5fp3gweLEQxQDGQqgYCg4k35BBQxZjpB0WCbA1s39jq3bm20zvz+i7vSG4rnGoQ2HTUy1hf+cpDTsrRSiAB2aZLewS9ihrYsanVK93R4a26eap32jVd/IKAI2MKIgkaCAwm3pBDQEUzpk8UCWlr4LmNLV75zg5v822d3jdumeqdd8P0PXcbnHPNkV7u6qO8E9Yc7R29mucQcDT7ytEsLMKzkJNytBJIIG2jpX3CXmcNYPrhTR9mMKtqIDCYeEMOAZ3Nl75TPKStgaqR8UqooYHwGpCTcrQSSCBtA6V9QlxnDWD64U0fZjCraiAwmHhDDgGdzZe+UzykrYGqkfFKqKGB8BqQk3K0EkggbQOlfUJcZw1g+uFNH2Ywq2ogMJh4Qw4Bnc2XvlM8pK2BqpHxSqihgfAakJNytBJIIG0DpX1CXGcNYPrhTR9mMKtqIDCYeEMOAZ3Nl75TPKStgaqR8UqooYHwGpCTcrQSSCBtA6V9QlxnDWD64U0fZjCraiAwmHhDDgGdzZe+UzykrYGqkfFKqKGB8BqQk3K0EkggbQOlfUJcZw1g+uFNH2Ywq2ogMJh4Qw4Bnc2XvlM8pK2BqpHxSqihgfAakJNytBJIIG0DpX1CXGcNYPrhTR9mMKtqIDCYeEMOAZ3Nl75TPKStgaqR8UqooYHwGpCTcrQSSCBtA6V9QlxnDWD64U0fZjCraiAwmHhDDgGdzZe+UzykrYGqkfFKqKGB8BqQk3K0EkggbQOlfUJcZw1g+uFNH2Ywq2ogMJh4Qw4Bnc2XvlM8pK2BqpHxSqihgfAakJNytBJIIG0DpX1CXGcNYPrhTR9mMKtqIDCYeEMOAZ3Nl75TPKStgaqR8UqooYHwGpCTcrQSSCBtA6V9QlxnDWD64U0fZjCraiAwmHhDDgGdzZe+UzykrYGqkfFKqKGB8BqQk3K0EkggbQOlfUJcZw1g+uFNH2Ywq2ogMJh4Qw4Bnc2XvlM8pK2BqpHxSqihgfAakJNytBJIIG0DpX1CXGcNYPrhTR9mMKtqIDCYeEMOAZ3Nl75TPKStgaqR8UqooYHwGpCTcuUFuvUAAAM+SURBVLQSSCBtA6V9QlxnDWD64U0fZjCraiAwmHhDDgGdzZe+UzykrYGqkfFKqKGB8BqQk3K0EkggbQOlfUJcZw1g+uFNH2Ywq2ogMJh4Qw4Bnc2XvlM8pK2BqpHxSqihgfAakJNytBJIIG0DpX1CXGcNYPrhTR9mMKtqIDCYeEMOAZ3Nl75TPKStgaqR8UqooYHwGpCTcrQSSCBtA6V9QlxnDWD64U0fZjCraiAwmHhDDgGdzZe+UzykrYGqkfFKqKGB8BqQk3K0EkggbQOlfUJcZw1g+uFNH2Ywq2ogMJh4Qw4Bnc2XvlM8pK2BqpHxSqihgfAakJNytBJIIG0DpX1CXGcNYPrhTR9mMKtqIDCYeEMOAZ3Nl75TPKStgaqR8UqooYHwGpCTcrQSSCBtA6V9QlxnDWD64U0fZjCraiAwmHhDDgGdzZe+UzykrYGqkfFKqKGB8BqQk3K0EkggbQOlfUJcZw1g+uFNH2Ywq2ogMJh4Qw4Bnc2XvlM8pK2BqpHxSqihgfAakJNytBJIIG0DpX1CXGcNYPrhTR9mMKtqIDCYeEMOAZ3Nl75TPKStgaqR8UqooYHwGpCTcrQSSCBtA6V9QlxnDWD64U0fZjCraiAwmHhDDgGdzZe+UzykrYGqkfFKqKGB8BqQk3K0EkggbQOlfUJcZw1g+uFNH2Ywq2ogMJh4Qw4Bnc2XvlM8pK2BqpHxSqihgfAakJNytBJIIG0DpX1CXGcNYPrhTR9mMKtqIDCYeEMOAZ3Nl75TPKStgaqR8UqooYHwGpCTcrQSSCBtA6V9QlxnDWD64U0fZjCraiAwmHhDDgGdzZe+UzykrYGqkfFKqKGB8BqQk3K0EkggbQOlfUJcZw1g+uFNH2Ywq2ogMJh4Qw4Bnc2XvlM8pK2BqpHxSqihgfAakJNytBJIIG0DpX1CXGcNYPrhTR9mMKtqIDCYeEMOAZ3Nl75TPKStgaqR8UqooYHwGpCTcrQCAQhAAAIQgAAEIAABCEAAAhCAAAQgAAEIQAACEIAABCAAAQhAAAIQgAAEIAABCEAAAhCAAAQgAAEIQAACEIAABCAAAQhAAAIQgAAEIAABCEAAAhCAgA0E/j8ykQbWxGwjBwAAAABJRU5ErkJggg==;" parent="1" vertex="1">
          <mxGeometry x="-200" y="240" width="512" height="512" as="geometry" />
        </mxCell>
        <mxCell id="1aiJ_BxQlEHNXpEwWQYT-27" value="" style="shape=image;verticalLabelPosition=bottom;labelBackgroundColor=default;verticalAlign=top;aspect=fixed;imageAspect=0;image=data:image/png,iVBORw0KGgoAAAANSUhEUgAAAgAAAAIACAYAAAD0eNT6AAAAAXNSR0IArs4c6QAAIABJREFUeAHtnU2wZld1nt9uIUDClB2qgoNjSMojEptKBTwgQoKJR4TEBnVRdmXuqY31gzBx6JJF0UgCO8NMQjFCOC7bkIoZZBKDVGIIwqnKBIEEsSUQMWAqSBTq5G6pb/fXp++9++xz9lpr/zxfVVd/55591s+z373OOuf7k3hEE7hZ0lskXZD0+5I+LekxSU9I+rqk/yPpBUn/j38wQAO7NfAjSf9L0l9JelDS7ZJuii4C+IcABOYgkIrNr0q6V9IXJKWCxMkdBmggTgPPSrpL0qvnKEFkCQEIeBN4q6Q/lpSKDcUeBmigPQ08fXTn7X3ehQF/EIDAmAReK+n3jm7v/zUnfZoeNNCFBi4fvSTwh5LOj1mSyAoCELAm8LqjYv8RSd+j6HdR9Lkab+9qPHpO/lTSK60LBfYhAIFxCNwq6YGjq/4fcuLnxI8GutfA52gCxinOZAIBSwL/RtI3KPrdF/3oK0/8t3U34i8lvcqycGAbAhDol8AbJf1XTvyc+NHAsBrgTkC/9ZnIIWBG4D2SnqPwD1v4uRpv62o8cj64E2BWRjEMgb4IvOIo3IuSXuTkz8kfDUyjAZqAvuo00UKgOoH0Dv9HKfrTFP3Iq058t3cHgpcDqpdUDEKgDwJvkPRVTv6c/NHA1BrgTkAf9ZooIVCNwJslPUXhn7rwc0Xe3hV51JzQBFQrrRiCQNsE/pmk73Ly5+SPBtDAgQZ4OaDtuk10ENhN4B9L+ubBoo+64sAvV59ooD0NcCdgd4nFAATaJPBzvObPFR/NHxrIaIAmoM36TVQQ2EzgZt7tT+HPFH6uyNu7Io+aE14O2FxqORAC7RF4mOJPA4AG0ECBBrgT0F4dJyIIFBN4t6T0s6BRVxP4hT0a6FMDNAHF5ZYDINAOgfTd/ny9b5/Fl5Mm89aCBng5oJ16TiQQKCLwea78ufOBBtDATg1wJ6Co7DIYAvEEfmPnom/h6oMYuApGA21ogCYgvqYTAQRWEbhV0pM0AFz5oQE0UFEDNAGryi+DIBBL4IGKi54rsDauwJgH5qEFDfCegNjajncInEkg/cLfD2kAuPJDA2jASAPcCTizBLMTAnEELhot+hauPoiBq2A00IYGaALiajyeIXAigdfwQz9c9dEAogEnDdAEnFiG+SMEYgj8ntPC5yqsjasw5oF5iNYA7wmIqfV4hcANBJ6gAeDqDw2gAWcNcCfghlLMHyDgS+Btzos++soD/1z9ooF2NEAT4Fvv8QaB6wj8cYMNwE8lfVHSXZLeLun1ktIvE/KAAAReJjBSE8PLAagaAgEEbpL0bEMNwP+V9PErJ/wAHLiEQDcERmoAUi40Ad1Ij0BHIfCrDZ38/4uk9CNEPCAAgTyB0RoAmoD8nDMCAlUJfLCBBiD95HD6DoJzVTPDGATGJjBiA5By4j0BY+uW7Boi8IXgBuBFSb/ZEA9CgUAvBEZtALgT0IsCibNrAulNdT8KbgB+v2uCBA+BOAIjNwA0AXG6wvMkBN4SfPJPr/lz238SsZFmdQKjNwA0AdUlg0EIXCNwIbAB+DFv+Ls2ETyDwAYCMzQAKUfeE7BBHBwCgRyBDwc2AJdywbEfAhA4k8AsDQBNwJkyYCcEthH4dFADkL7kJ32xDw8IQGA7gZkagJQr3xOwXSscCYEbCHwpqAFI3/DHAwIQ2EdgtgaAJmCfXjgaAtcR+FpQA5B+eZAHBCCwj8CMDUDKmfcE7NMNR0PgJQLfDGoA0nf784AABPYRmLUBoAnYpxuOhsBLBJ4LagD+IfwhAIHdBGZuAFLuvCdgt4QwMDOBF4IagFfODJ3cIVCJwOwNAHcCKgkJM3MSiCogc9ImawjUJRC1flvzy3sC6uoKa5MQiFrIk+AlTQiYEohavy36pQkwlRrGRyQQtZBHZElOEPAmELV+W/VLE+CtQPx1TSBqIXcNjeAh0AiBqPXbsl+agEbESRjtE4hayO2TIUIItE8gav227pcmoH3tEmEDBKIWcgOpEwIEuicQtX578EsT0L28ScCaQNRCts4L+xCYgUDU+k2fv4/yXeKX7wmYYRWQ42YCJYup5tjNAXMgBCBwlUDNNVli62ZJf95JE8CdgKty4QkEridQsuhrjr0+CrYgAIEtBGquyRJbKVaagC0zxjEQaIhAyaKvObYhBIQCgW4J1FyTJbaOgdEEHJPgfwh0SKBk0dcc2yEqQoZAcwRqrskSW4cgaAIOafAcAh0RKFn0Ncd2hIhQIdAsgZprssTWEghNwJII2xDogEDJoq85tgM0hAiB5gnUXJMltk4CQxNwEhX+BoGGCZQs+ppjG0ZCaBDohkDNNVli6zRANAGnkeHvEGiQQMmirzm2QRSEBIHuCNRckyW2zgJFE3AWHfZBoCECJYu+5tiGEBAKBLolUHNNltjKAaMJyBFiPwQaIFCy6GuObSB1QoBA9wRqrskSW2vA0QSsocQYCAQSKFn0NccGpoxrCAxDoOaaLLG1FiBNwFpSjINAAIGSRV9zbECquITAcARqrskSWyUgaQJKaDEWAo4EShZ9zbGOKeIKAsMSqLkmS2yVAqUJKCXGeAg4EChZ9DXHOqSGCwgMT6DmmiyxtQUsTcAWahwDAUMCJYu+5ljDlDANgWkI1FyTJba2AqYJ2EqO4yBgQKBk0dcca5AKJiEwHYGaa7LE1h7QNAF76HEsBCoSKFn0NcdWTAFTEJiWQM01WWJrL3CagL0EOR4CFQiULPqaYyuEjgkITE+g5possVUDPE1ADYrYgMAOAiWLvubYHSFzKAQgcIVAzTVZYqvWBNAE1CKJHQhsIFCy6GuO3RAqh0AAAgsCNddkia1FGLs2aQJ24eNgCGwnULLoa47dHjFHQgACxwRqrskSW8f+a/1PE1CLJHYgUECgZNHXHFsQIkMhAIFTCNRckyW2Tgln159pAnbh42AIlBMoWfQ1x5ZHyhEQgMCSQM01WWJrGUetbZqAWiSxA4EVBEoWfc2xK0JjCAQgkCFQc02W2MqEtWs3TcAufBwMgfUEShZ9zbHrI2QkBCBwGoGaa7LE1mnx1Po7TUAtktiBwBkEShZ9zbFnhMQuCEBgJYGaa7LE1srwdg2jCdiFj4MhkCdQsuhrjs1HxggIQCBHoOaaLLGVi6vWfpqAWiSxA4ETCJQs+ppjTwiFP0EAAoUEaq7JEluFYe4aThOwCx8HQ+B0AiWLvubY0yNiDwQgsJZAzTVZYmttfLXG0QTUIokdCBwQKFn0NccehMBTCEBgI4Gaa7LE1sZwdx1GE7ALHwdD4EYCJYu+5tgbI+EvEIBAKYGaa7LEVmmctcbTBNQiiR0ISCpZ9DXHAh8CENhPoOaaLLG1P/LtFmgCtrPjSAhcR6Bk0dcce10QbEAAApsI1FyTJbY2BVvxIJqAijAxNS+BkkVfc+y8xMkcAvUI1FyTJbbqZbDdEk3AdnYcCYGXCJQs+ppjwQ8BCOwnUHNNltjaH3kdCzQBdThiZVICJYu+5thJcZM2BKoSqLkmS2xVTWKnMZqAnQA5fF4CJYu+5th5iZM5BOoRqLkmS2zVy6COJZqAOhyxMhmBkkVfc+xkmEkXAiYEaq7JElsmyew0ShOwEyCHz0egZNHXHDsfaTKGQH0CNddkia36mdSxSBNQhyNWJiFQsuhrjp0EL2lCwJRAzTVZYss0qZ3GaQJ2AuTweQiULPqaY+chTKYQsCNQc02W2LLLqI5lmoA6HLEyOIGSRV9z7OBYSQ8CLgRqrskSWy7J7XRCE7ATIIePT6Bk0dccOz5ZMoSAPYGaa7LEln1mdTzQBNThiJVBCZQs+ppjB8VJWhBwJVBzTZbYck1ypzOagJ0AOXxcAiWLvubYcYmSGQT8CNRckyW2/DKs44kmoA5HrAxGoGTR1xw7GEbSgUAIgZprssRWSLI7ndIE7ATI4eMRKFn0NceOR5KMIOBPoOaaLLHln2kdjzQBdThiZRACJYu+5thB8JEGBEIJ1FyTJbZCk97pnCZgJ0AOH4dAyaKvOXYcgmQCgTgCNddkia24jOt4pgmowxErnRMoWfQ1x3aOjfAh0ASBmmuyxFYTye8MgiZgJ0AO759AyaKvObZ/cmQAgXgCNddkia34zOtEQBNQhyNWOiVQsuhrju0UF2FDoCkCNddkia2mIOwMhiZgJ0AO75dAyaKvObZfYkQOgXYI1FyTJbbaIVAnEpqAOhyx0hmBkkVfc2xnmAgXAk0SeEFSzXW51tYrm6SxLyiagH38OLpDAmsXfO1xHaIiZAg0R+C5oAbg9c2RqBNQamw+F8S0tMamOEdsxOrMJFZWESgVXa3xq4JjEAQgcCaBbwadrN5+ZlR97+ROQN/zR/QFBGqd0EvtFITIUAhA4BQCXwtqAO4+JZ5R/kwTMMpMkseZBEpP3LXGnxkUOyEAgVUEvhTUACS/oz94OWD0GSa/kDcQpSaCBwQgsJ/Ap4MagJ9KGvV9AIezQhNwSIPnwxGodUVfamc4kCQEgQACHw5qANJ6fzAg3wiXvBwQQR2fLgRKT9y1xrskhxMIDE7gQmAD8GNJbxqc73F6NAHHJPh/KAK1TuildoaCSDIQCCLwK4ENQFrzfybpXFDu3m55OcCbOP7MCZSeuGuNN08MBxCYgEC6Mv374CbgDybgfJwiTcAxCf4fgkCtE3qpnSHgkQQEGiDwheAG4LKk32qAg1cINAFepPFjTqD0xF1rvHliOIDAJATuDW4AUk1ITcAlSecnYc57AiaZ6NHTrHVCL7UzOlfyg4AXgbc10AAcr//0noBZ3hjInQAvhePHjMDxwvX+3ywhDENgMgI3SXqmoSYgfTrgIUk/P8E80ARMMMkjp+h94j/2NzJTcoOAN4E/aqgBOF7jL0p6VNI9km670hCkE+ZoD5qA0WZ0onyOF6v3/xMhJlUImBN4a4MNgHdNwd+6n4b+S0mvMlckDrogELVouoBDkBDoiMATNAFhX20eVUe3+qUJ6GhhW4a6VUB7j7PMCdsQmJHAB2gAaAAKNPA5SSO+JDPj2t+c894T+dbjNwfMgRCAwIkEXiPpuwUngK1rl+PW3WrvgRN3Ak5cSvP8MUqk8xAmUwj4EfgPNADcBSjUwJ9O9P0NfiuxE080AJ1MFGFCYAWBn5X0/cITQFQNwG87dxL+cIW2GDIggahFOCBKUoJAEwTupwHgLkChBtI3Of5GE+olCFcCNACuuHEGAXMCt0h6svAEEFUH8NvOXYBv8PFA87XZnIOoBdgcCAKCwEAEfp0GgLsAGzSQPknCYyICNAATTTapTkXg8xtOAFH1AL9t3An4G94QOFWNCOuS56JMthDwJ/BGSc/RBITVuF6bmn/lL1U8RhGIEmlUvviFwEwE3n3lp3qj1jl+27iyL5mH9LPOPCYhUCKMmmMnwUuaEAgn8CB3AbgLUKCBL4UrlgDcCNQ8qZfYcksQRxCYnMDNkr5YcAIoWceM7e8KPzdnfzv5epkq/ZwYrPZPBZlkIRBMIH1B0FdoArgTsEIDzwdrFfeOBKxO8Dm7jiniCgIQkPQLktJnvXNrk/0wYsFMQiBqsU+ClzQh0BSBN/ODQTRAK5rApkRLMHYEaADs2GIZAi0SSE3AUytOAlG1Ab/xdyBa1C0xGRCIWmwGqWASAhBYSeANkr5KE8DdgFM0sFJGDOudAA1A7zNI/BDYRuB1fDqABoAGYNviGeUoGoBRZpI8IFBO4BVHh1yU9OIpJ4Ko+oDf2JcBypXEEV0SiFpoXcIiaAgMSuDXJD1DE8AdgSsaGFTmpLUkQAOwJMI2BOYk8IuSPkcTQBMwp/znzJoGYM55J2sInEbgPZKepBGYuhE4TRv8fTACNACDTSjpQKACgVuObKT3BvyARmDKRqCChDDRAwEagB5miRghEEPgtZJ+R1L6fvioWoFff/YxasOrO4GoxeWeKA4hAIHNBH7m6G7AByQ9QSMwRSO0WSgc2BcBGoC+5otoIRBN4Jclpd+M566A/5W5V72O1hj+nQh4CWrpxyk93EAAAoYEfknSb0v6k6OXCv6OuwPD3B0wlAymWyKwPDF7bbfEgFggAIH9BNKXCqW7A++TdJ+kT0l69MrPEH9d0vckvUCT0EWTsF8NWOiCgNcJf+mnCzgECQEIQCCQwLJuem0HpoxrTwJeglr68cwRXxCAAAR6JLCsm17bPbIi5g0EvAS19LMhVA6BAAQgMBWBZd302p4K8szJeglq6Wdm5uQOAQhAYA2BZd302l4TG2MGIOAlqKWfAdCRAgQgAAFTAsu66bVtmhTG2yHgJailn3YIEAkEIACBNgks66bXdps0iKo6AS9BLf1UTwSDEIAABAYjsKybXtuDYSSd0wh4CWrp57R4+DsEIAABCLxMYFk3vbbhPwkBL0Et/UyClzQhAAEIbCawrJte25sD5sC+CHgJaumnL0pECwEIQMCfwLJuem37Z4rHEAJeglr6CUkWpxCAAAQ6IrCsm17bHSEi1D0EvAS19LMnZo6FAAQgMAOBZd302p6BLTkG/jAH8CEAAQhA4GwCXif8pZ+zo2LvMASWE++1PQxAEoEABCBgRMCrHi/9GKWD2dYILCfea7s1DsQDAQhAoDUCXvV46ac1DsRjRGA58V7bRulgFgIQgMAwBLzq8dLPMABJ5GwCy4n32j47KvZCAAIQgIBXPV76gfwkBJYT77U9CV7ShAAEILCZgFc9XvrZHDAH9kVgOfFe231RIloIQAAC/gS86vHSj3+meAwhsJx4r+2QZHEKAQhAoCMCXvV46acjRIS6h8By4r2298TMsRCAAARmIOBVj5d+ZmBLjnwREBqAAAQg0CyB5YnZa7tZIARWl4CXoJZ+6maBNQhAAALjEVjWTa/t8UiS0YkEvAS19HNiMPwRAhCAAASuEljWTa/tqwHwZGwCXoJa+hmbKtlBAAIQ2E9gWTe9tvdHjoUuCHgJaumnCzgECQEIQCCQwLJuem0HpoxrTwJeglr68cwRXxCAAAR6JLCsm17bPbIi5g0EvAS19LMhVA6BAAQgMBWBZd302p4K8szJeglq6Wdm5uQOAQhAYA2BZd302l4TG2MGIOAlqKWfAdCRAgQgAAFTAsu66bVtmhTG2yHgJailn3YIEAkEIACBNgks66bXdps0iKo6AS9BLf1UTwSDEIAABAYjsKybXtuDYSSd0wh4CWrp57R4+DsEIAABCLxMYFk3vbbhPwkBL0Et/UyClzQhAAEIbCawrJte25sD5sC+CHgJaumnL0pECwEIQMCfwLJuem37Z4rHEAJeglr6CUkWpxCAAAQ6IrCsm17bHSEi1D0EvAS19LMnZo6FAAQgMAOBZd302p6BLTlK8hLU0g/wIQABCEDgbALLuum1fXZU7B2GgJegln6GAUgiEIAABIwILOum17ZROphtjYCXoJZ+WuNAPBCAAARaI7Csm17brXEgHiMCXoJa+jFKB7MQgAAEhiGwrJte28MAJJGzCXgJaunn7KjYCwEIQAACy7rptQ35SQh4CWrpZxK8pAkBCEBgM4Fl3fTa3hwwB/ZFwEtQSz99USJaCEAAAv4ElnXTa9s/UzyGEPAS1NJPSLI4hQAEINARgWXd9NruCBGh7iHgJailnz0xcywEIACBGQgs66bX9gxsyZEvAkIDEIAABJol4HXCX/ppFgiB1SWwnHiv7bpZYA0CEIDAeAS86vHSz3gkyehEAsuJ99o+MRj+CAEIQAACVwl41eOln6sB8GRsAsuJ99oemyrZQQACENhPwKseL/3sjxwLXRBYTrzXdhdwCBICEIBAIAGverz0E5gyrj0JLCfea9szR3xBAAIQ6JGAVz1e+umRFTFvILCceK/tDaFyCAQgAIGpCHjV46WfqSDPnOxy4r22Z2ZO7hCAAATWEPCqx0s/a2JjzAAElhPvtT0AOlKAAAQgYErAqx4v/ZgmhfF2CCwn3mu7HQJEAgEIQKBNAl71eOmnTRpEVZ3AcuK9tqsngkEIQAACgxHwqsdLP4NhJJ3TCCwn3mv7tHj4OwQgAAEIvEzAqx4v/cB/EgLLiffangQvaUIAAhDYTMCrHi/9bA6YA/sisJx4r+2+KBEtBCAAAX8CXvV46cc/UzyGEFhOvNd2SLI4hQAEINARAa96vPTTESJC3UNgOfFe23ti5lgIQAACMxDwqsdLPzOwJUdJy4n32gb+jQRukvROSZ+Q9LikZyX9JHCOvLSAn7h1GME+aTppO2n8YUl3SEra53EjgYj5ST55TEIAgcVP9C2S7pP0HU72YQ1p1DrA78vNT2oI7pWU1gKPawSi9HEtAp4NTQCBxU7v+yV9mxM/J3408JIGnpZ0IXZJNuWd+tzUdIwXDAKLmdNzR24vSrpM4efkjwau00BaE5cknY9Zmk15pT43NR3jBYPA/Oc0FbbPUvSvK/pROsRvu+8/eIQmIGyN+FdFPIYQiCqAIck24vRjnPzDCluU3vG7rdF4oJE1GxVGlG6i8sWvMwEE5gs8veYfxRy/sO9NA+nlgDt9l2hT3qLmqykIBGNHAIHZsV1aTu9wTm9yimKOX9j3qIH0Jtlbl4tpku2o+ZoEL2kiMD8NfIiTP80PGtikgfQRwRkf1OcZZ90xZwTmAzt90Qmf8+cKPGq99e73mUm/LChq3nyqIl7CCSAwnyl4F1d+m678ovSJ3/aatdt9lmpTXqJ02BQEgrEjgMDs2B5a/iQNAA0AGtilgYcOF9Qkz6nPk0x0VJoIzIf8lyn+u4p/lE7x286dgMd8lmpTXqL01xQEgrEjgMDs2B5a5vX/dk4kUZrH7z4NpPcBzPaI0sxsnKfNF4H5TP0L3AHgDgAa2KWB532WalNeqM9NTcd4wSAwnzmlAdh39RelU/y2M280AH5z4VMV8RJOIKrAhSfuHAAvAfgVryhN49d2jnkJwJbvoX6dyyPuoggcTrrn86h8o/w+zu3fXbd/PbWJL78TTQnrR6MWb6DfEj41xwamjGtPAjVFU2LLM8cWfD1MA0ADgAZ2aeDjLSxk5xhKamrNsc5p4i6KQE3RlNiKyjfK7x0U/13Fv0RbjG3zCn7vvNwWtXgD/e5ltvX4wJRx7Ulgq0D2HueZYwu+0lcBP0sTQBOABjZpIL3+f76Fhewcw946u/V45zRxF0Vgq0D2HheVb6Tf9IMme7lxPAxn1MBdkQs30HfUXAemjGtPAgjMj/arJT1FE0AThAaKNPAtSemntGd8UJ9nnHXHnBGYI2xJFyRd5gRQdAKI0ih+4++2pLXyXt8l2pS3KA02BYFg7AggMDu2p1n+KA0ADQAaWKWB+09bRJP8nfo8yURHpYnA/MmnNzM9wglg1QkgSp/4jb/6/8ykb/w7rEhROjyMgecDE0BgMZN77sjtRV4OoAmgEbxBA+m2/yVO/i8VJupzTH2exisCi53qOyU9zUnghpNAlC7xG3vln94kO/Nr/stqFKXHZRxsD0oAgcVPbPp0wD2S0medo+YDv7CP1EDS/t1HV/5pLfC4RiBqTq5FwLOhCSCwdqY3vTfgdkkPSXrsSkPArwhyYo5ao1Z+k6bTCT9p/EFJ7+B2/6lFyGoOcnZPDYgdYxHICcFq/1gUyQYCEIBAfQJW9Tdnt34mWGySQE4IVvubhEFQEIAABBoiYFV/c3YbQkAolgRyQrDab5kTtiEAAQiMQMCq/ubsjsCOHFYQyAnBav+K0BgCAQhAYGoCVvU3Z3dq6DMlnxOC1f6ZGJMrBCAAgS0ErOpvzu6WWDmmQwI5IVjt7xAVIUMAAhBwJWBVf3N2XZPEWRyBnBCs9sdljGcIQAACfRCwqr85u33QIcrdBHJCsNq/O3AMQAACEBicgFX9zdkdHCvpHRPICcFq/7F//ocABCAAgZMJWNXfnN2To+GvwxHICcFq/3AgSQgCEIBAZQJW9Tdnt3IamGuVQE4IVvtb5UFcEIAABFohYFV/c3ZbyZ84jAnkhGC13zgtzEMAAhDonoBV/c3Z7R4cCawjkBOC1f510TEKAhCAwLwErOpvzu68xCfLPCcEq/2TYSZdCEAAAsUErOpvzm5xoBzQJ4GcEKz290mLqCEAAQj4EbCqvzm7fhniKZRATghW+0OTxjkEIACBDghY1d+c3Q7QEGINAjkhWO2vETs2IAABCIxMwKr+5uyOzJTcDgjkhGC1/yAEnkIAAhCAwAkErOpvzu4JofCnEQnkhGC1f0SW5AQBCECgJgGr+puzWzMHbDVMICcEq/0NIyE0CEAAAk0QsKq/ObtNJE8Q9gRyQrDab58ZHiAAAQj0TcCq/ubs9k2N6FcTyAnBav/qABkIAQhAYFICVvU3Z3dS3POlnROC1f75SJMxBCAAgTICVvU3Z7csSkZ3SyAnBKv93QIjcAhAAAJOBKzqb86uU3q4iSaQE4LV/ui88Q8BCECgdQJW9Tdnt3UuxFeJQE4IVvsrhY8ZCEAAAsMSsKq/ObvDAiWx6wnkhGC1//oo2IIABCAAgSUBq/qbs7uMg+1BCeSEYLV/UJykBQEIQKAaAav6m7NbLQEMtU0gJwSr/W1TIToIQAAC8QSs6m/ObnzmROBCICcEq/0uyeEEAhCAQMcErOpvzm7HyAi9hEBOCFb7S2KcZexNkt4p6ROSHpf0rKSfSLKaA+zCNkIDSdNJ20njD0u6Q1LSPo8bCUTMT/LJYxICCCx+om+RdJ+k73Cyp9mZVAOpIbhXUloLPK4RoD5fY8EzAwIIzABqgcn3S/r2pEU/Snv4bffOx9OSLhSsn9GHRml1dK7kd4UAAouRwrkjtxclXebkz1U/GrhOA2lNXJJ0PmZpNuWV+tzUdIwXDALzn9NU2D5L0b+u6EfpEL/t3g14hCYgbI34V0U8hhCIKoAhyTbi9GOc/MMKW5Te8but0XigkTUbFUaUbqLyxa8zAQTmCzy95h/FHL+w700D6eWAO32XaFPeouarKQgEY0cAgdmxXVpO73BOb3LX8IJoAAAbGklEQVSKYo5f2PeogfQm2VuXi2mS7aj5mgQvaSIwPw18iJM/zQ8a2KSB9BHBGR/U5xln3TFnBOYDO33RCZ/z5wo8ar317veZSb8sKGrefKoiXsIJIDCfKXgXV36brvyi9Inf9pq1232WalNeonTYFASCsSOAwOzYHlr+JA0ADQAa2KWBhw4X1CTPqc+TTHRUmgjMh/yXKf67in+UTvHbzp2Ax3yWalNeovTXFASCsSOAwOzYHlrm9f92TiRRmsfvPg2k9wHM9ojSzGycp80XgflM/QvcAeAOABrYpYHnfZZqU16oz01Nx3jBIDCfOaUB2Hf1F6VT/LYzbzQAfnPhUxXxEk4gqsCFJ+4cAC8B+BWvKE3j13aOeQnAlu+hfp3LI+6iCBxOuufzqHyj/D7O7d9dt389tYkvvxNNCetHoxZvoN8SPjXHBqaMa08CNUVTYsszxxZ8PUwDQAOABnZp4OMtLGTnGEpqas2xzmniLopATdGU2IrKN8rvHRT/XcW/RFuMbfMKfu+83Ba1eAP97mW29fjAlHHtSWCrQPYe55ljC77SVwE/SxNAE4AGNmkgvf5/voWF7BzD3jq79XjnNHEXRWCrQPYeF5VvpN/0gyZ7uXE8DGfUwF2RCzfQd9RcB6aMa08CCMyP9qslPUUTQBOEBoo08C1J6ae0Z3xQn2ecdcecEZgjbEkXJF3mBFB0AojSKH7j77aktfJe3yXalLcoDTYFgWDsCCAwO7anWf4oDQANABpYpYH7T1tEk/yd+jzJREelicD8yac3Mz3CCWDVCSBKn/iNv/r/zKRv/DusSFE6PIyB5wMTQGAxk3vuyO1FXg6gCaARvEED6bb/JU7+LxUm6nNMfZ7GKwKLneo7JT3NSeCGk0CULvEbe+Wf3iQ782v+y2oUpcdlHGwPSgCBxU9s+nTAPZLSZ52j5gO/sI/UQNL+3UdX/mkt8LhGIGpOrkXAs6EJILB2pje9N+B2SQ9JeuxKQ8CvCHJijlqjVn6TptMJP2n8QUnv4Hb/qUXIag5ydk8NiB1jEcgJwWr/WBTJBgIQgEB9Alb1N2e3fiZYbJJATghW+5uEQVAQgAAEGiJgVX9zdhtCQCiWBHJCsNpvmRO2IQABCIxAwKr+5uyOwI4cVhDICcFq/4rQGAIBCEBgagJW9Tdnd2roMyWfE4LV/pkYkysEIACBLQSs6m/O7pZYOaZDAjkhWO3vEBUhQwACEHAlYFV/c3Zdk8RZHIGcEKz2x2WMZwhAAAJ9ELCqvzm7fdAhyt0EckKw2r87cAxAAAIQGJyAVf3N2R0cK+kdE8gJwWr/sX/+hwAEIACBkwlY1d+c3ZOj4a/DEcgJwWr/cCBJCAIQgEBlAlb1N2e3chqYa5VATghW+1vlQVwQgAAEWiFgVX9zdlvJnziMCeSEYLXfOC3MQwACEOiegFX9zdntHhwJrCOQE4LV/nXRMQoCEIDAvASs6m/O7rzEJ8s8JwSr/ZNhJl0IQAACxQSs6m/ObnGgHNAngZwQrPb3SYuoIQABCPgRsKq/Obt+GeIplEBOCFb7Q5PGOQQgAIEOCFjV35zdDtAQYg0COSFY7a8ROzYgAAEIjEzAqv7m7I7MlNwOCOSEYLX/IASeQgACEIDACQSs6m/O7gmh8KcRCeSEYLV/RJbkBAEIQKAmAav6m7NbMwdsNUwgJwSr/Q0jITQIQAACTRCwqr85u00kTxD2BHJCsNpvnxkeIAABCPRNwKr+5uz2TY3oVxPICcFq/+oAGQgBCEBgUgJW9Tdnd1Lc86WdE4LV/vlIkzEEIACBMgJW9TdntyxKRndLICcEq/3dAiNwCEAAAk4ErOpvzq5TeriJJpATgtX+6LzxDwEIQKB1Alb1N2e3dS7EV4lATghW+yuFjxkIQAACwxKwqr85u8MCJbHrCeSEYLX/+ijYggAEIACBJQGr+puzu4yD7UEJ5IRgtX9QnKQFAQhAoBoBq/qbs1stAQy1TSAnBKv9bVMhOghAAALxBKzqb85ufOZE4EIgJwSr/S7J4QQCEIBAxwSs6m/ObsfICL2EQE4IVvtLYpxl7E2S3inpE5Iel/SspJ9IspoD7MI2QgNJ00nbSeMPS7pDUtI+jxsJRMxP8sljEgIILH6ib5F0n6TvcLKn2ZlUA6khuFdSWgs8rhGgPl9jwTMDAgjMAGqByfdL+vakRT9Ke/ht987H05IuFKyf0YdGaXV0ruR3hQACi5HCuSO3FyVd5uTPVT8auE4DaU1cknQ+Zmk25ZX63NR0jBcMAvOf01TYPkvRv67oR+kQv+3eDXiEJiBsjfhXRTyGEIgqgCHJNuL0Y5z8wwpblN7xu63ReKCRNRsVRpRuovLFrzMBBOYLPL3mH8Ucv7DvTQPp5YA7fZdoU96i5qspCARjRwCB2bFdWk7vcE5vcopijl/Y96iB9CbZW5eLaZLtqPmaBC9pIjA/DXyIkz/NDxrYpIH0EcEZH9TnGWfdMWcE5gM7fdEJn/PnCjxqvfXu95lJvywoat58qiJewgkgMJ8peBdXfpuu/KL0id/2mrXbfZZqU16idNgUBIKxI4DA7NgeWv4kDQANABrYpYGHDhfUJM+pz5NMdFSaCMyH/Jcp/ruKf5RO8dvOnYDHfJZqU16i9NcUBIKxI4DA7NgeWub1/3ZOJFGax+8+DaT3Acz2iNLMbJynzReB+Uz9C9wB4A4AGtilged9lmpTXqjPTU3HeMEgMJ85pQHYd/UXpVP8tjNvNAB+c+FTFfESTiCqwIUn7hwALwH4Fa8oTePXdo55CcCW76F+ncsj7qIIHE665/OofKP8Ps7t3123fz21iS+/E00J60ejFm+g3xI+NccGpoxrTwI1RVNiyzPHFnw9TANAA4AGdmng4y0sZOcYSmpqzbHOaeIuikBN0ZTYiso3yu8dFP9dxb9EW4xt8wp+77zcFrV4A/3uZbb1+MCUce1JYKtA9h7nmWMLvtJXAT9LE0ATgAY2aSC9/n++hYXsHMPeOrv1eOc0cRdFYKtA9h4XlW+k3/SDJnu5cTwMZ9TAXZELN9B31FwHpoxrTwIIzI/2qyU9RRNAE4QGijTwLUnpp7RnfFCfZ5x1x5wRmCNsSRckXeYEUHQCiNIofuPvtqS18l7fJdqUtygNNgWBYOwIIDA7tqdZ/igNAA0AGlilgftPW0ST/J36PMlER6WJwPzJpzczPcIJYNUJIEqf+I2/+v/MpG/8O6xIUTo8jIHnAxNAYDGTe+7I7UVeDqAJoBG8QQPptv8lTv4vFSbqc0x9nsYrAoud6jslPc1J4IaTQJQu8Rt75Z/eJDvza/7LahSlx2UcbA9KAIHFT2z6dMA9ktJnnaPmA7+wj9RA0v7dR1f+aS3wuEYgak6uRcCzoQkgsHamN7034HZJD0l67EpDwK8IcmKOWqNWfpOm0wk/afxBSe/gdv+pRchqDnJ2Tw2IHWMRyAnBav9YFMkGAhCAQH0CVvU3Z7d+JlhskkBOCFb7m4RBUBCAAAQaImBVf3N2G0JAKJYEckKw2m+ZE7YhAAEIjEDAqv7m7I7AjhxWEMgJwWr/itAYAgEIQGBqAlb1N2d3augzJZ8TgtX+mRiTKwQgAIEtBKzqb87ullg5pkMCOSFY7e8QFSFDAAIQcCVgVX9zdl2TxFkcgZwQrPbHZYxnCEAAAn0QsKq/Obt90CHK3QRyQrDavztwDEAAAhAYnIBV/c3ZHRwr6R0TyAnBav+xf/6HAAQgAIGTCVjV35zdk6Phr8MRyAnBav9wIEkIAhCAQGUCVvU3Z7dyGphrlUBOCFb7W+VBXBCAAARaIWBVf3N2W8mfOIwJ5IRgtd84LcxDAAIQ6J6AVf3N2e0eHAmsI5ATgtX+ddExCgIQgMC8BKzqb87uvMQnyzwnBKv9k2EmXQhAAALFBKzqb85ucaAc0CeBnBCs9vdJi6ghAAEI+BGwqr85u34Z4imUQE4IVvtDk8Y5BCAAgQ4IWNXfnN0O0BBiDQI5IVjtrxE7NiAAAQiMTMCq/ubsjsyU3A4I5IRgtf8gBJ5CAAIQgMAJBKzqb87uCaHwpxEJ5IRgtX9EluQEAQhAoCYBq/qbs1szB2w1TCAnBKv9DSMhNAhAAAJNELCqvzm7TSRPEPYEckKw2m+fGR4gAAEI9E3Aqv7m7PZNjehXE8gJwWr/6gAZCAEIQGBSAlb1N2d3UtzzpZ0TgtX++UiTMQQgAIEyAlb1N2e3LEpGd0sgJwSr/d0CI3AIQAACTgSs6m/OrlN6uIkmkBOC1f7ovPEPAQhAoHUCVvU3Z7d1LsRXiUBOCFb7K4WPGQhAAALDErCqvzm7wwIlsesJ5IRgtf/6KNiCAAQgAIElAav6m7O7jIPtQQnkhGC1f1CcpAUBCECgGgGr+puzWy0BDLVNICcEq/1tUyE6CEAAAvEErOpvzm585kTgQiAnBKv9LsnhBAIQgEDHBKzqb85ux8gIvYRATghW+0tinGXsTZLeKekTkh6X9Kykn0iymgPstsE2zXGa6zTnD0u6Q1LSAg8IRK1RyE9CAIHFT/Qtku6T9B1O9jQ7VzSQGoJ7JSVt8JiXAPV53rl3yRyBuWA+1cn7JX2bEz8n/lM08LSkC6eqhx2jE6A+jz7DwfkhsJgJOHfk9qKky6cU/qh5wW8bLwsczkPSyCVJ52OkitdAAoc68HwemDKuPQl4iurQl2eOrflKhfyznPi56i/UwCM0Aa0tZfN4Dmum53PzxHDQBgFPUR36aiP7mCg+Vlj4D7nxvL0rdM85eSBGsngNIuCprUNfQeni1pvA4aR7PvfOsxV/6TV/T874Got3ejngzlbETBzmBKLWr3liOGiDAALzm4f0ju70pq4o5vgdg3160+itfrLFUyCBqDUbmDKuPQkgMD/aH+LkT/NTSQPpI4I8xidAfR5/jkMzRGA++NMXu/A5/zGuwKPWzKHfZ/iyIJ+FG+zlcM49nwenjXsvAp6iOvTllV8rft5V6crvkCHP524obm9F3MRhRiBqjZslhOG2CCAwn/n4JA0At/8ra+AhH+niJZAA9TkQ/gyuEZjPLH+5cvGPmjf8tnPX4TEf6eIlkEDUegtMGdeeBBCYD21e/2/nxBml+dp+0/sAeIxNoLZm1tobmyrZXSWwVhC1x10NYJInL3AHgJcAKmvg+UnWzsxp1q67a+3NzHyq3NcKova4qSBLogHgDkDtNUQDMH4Vqa2ZtfbGJ0uGLxFYK4ja42bDz0sANAC11xAvAYxfRWprZq298cmS4UsE1gqi9rjZ8D9e+fZv7fnAXn8NyqOzLaIJ841alxOinjNlBOYz7w/TAPAegMoa+LiPdPESSID6HAh/BtcIzGeW76hc/KPmDb/t3Cm4zUe6eAkkELXeAlPGtScBBOZDO30V8LM0AdwFqKSB9Pr/eR/p4iWQAPU5EP4MrhGY3yynH3CJ4o3fsdjf5SdbPAUSiFq3gSnj2pMAAvOj/WpJT9EE0ATt1MC3JKWfluYxPgHq8/hzHJohAvPFf0HS5Z0ngKg5w2/8XYSknff6ShZvgQSi1lxgyrj2JIDAPGm/7OujNADcBdiogfv95YrHQALU50D4M7hGYP6znN689cjGE0DUfOE3/ur/M7zxz3+xBnuMWnfBaePeiwAC8yJ9vZ9zR5sXeTmAOwErGsF02/8SJ//rF9AkW9TnSSY6Kk0EFkX+Zb93Snp6xUkgap7wG3vln940ymv+sWs00nvU+ovMGd+OBBCYI+xTXKVPB9wjKX22O2o+8NsW+6SFu4+u/JM2eMxLIGpdzkt8sswRWDsTnt4bcLukhyQ9dqUh4FcE2zoxW6yXNMfphJ/m/EFJ7+B2fzuLMjgSC72tsRmcNu69CKwRg8UYr/zwAwEIQKBXAha1d43NXnkRdyGBNWKwGFMYJsMhAAEITEfAovausTkd6FkTXiMGizGz8iZvCEAAAmsJWNTeNTbXxse4zgmsEYPFmM6xET4EIAABcwIWtXeNTfPEcNAGgTVisBjTRvZEAQEIQKBdAha1d43NdokQWVUCa8RgMaZqEhiDAAQgMCABi9q7xuaAKEnpJAJrxGAx5qRY+BsEIAABCFwjYFF719i8FgHPhiawRgwWY4aGSnIQgAAEKhCwqL1rbFYIHRM9EFgjBosxPbAhRghAAAKRBCxq7xqbkTnj25HAGjFYjHFMEVcQgAAEuiRgUXvX2OwSFkGXE1gjBosx5ZFyBAQgAIG5CFjU3jU256I8cbZrxGAxZmLkpA4BCEBgFQGL2rvG5qrgGNQ/gTVisBjTPzkygAAEIGBLwKL2rrFpmxXWmyGwRgwWY5oBQCAQgAAEGiVgUXvX2GwUB2HVJrBGDBZjaueBPQhAAAKjEbCovWtsjsaRfE4hsEYMFmNOCYc/QwACEIDAFQIWtXeNTSZgEgJrxGAxZhK8pAkBCEBgMwGL2rvG5uaAObAvAmvEYDGmL0pECwEIQMCfgEXtXWPTP1M8hhBYIwaLMSHJ4hQCEIBARwQsau8amx0hItQ9BNaIwWLMnpg5FgIQgMAMBCxq7xqbM7AlR0lrxGAxBvgQgAAEIHA2AYvau8bm2VGxdxgCa8RgMWYYgCQCAQhAwIiARe1dY9MoHcy2RmCNGCzGtMaBeCAAAQi0RsCi9q6x2RoH4jEisEYMFmOM0sEsBCAAgWEIWNTeNTaHAUgiZxNYIwaLMWdHxV4IQAACELCovWtsQn4SAmvEYDFmErykCQEIQGAzAYvau8bm5oA5sC8Ca8RgMaYvSkQLAQhAwJ+ARe1dY9M/UzyGEFgjBosxIcniFAIQgEBHBCxq7xqbHSEi1D0E1ojBYsyemDkWAhCAwAwELGrvGpszsCVHvggIDUAAAhBolsCak7XFmGaBEFhdAhbiWWOzbhZYgwAEIDAegTW11GLMeCTJ6EQCFuJZY/PEYPgjBCAAAQhcJbCmllqMuRoAT8YmYCGeNTbHpkp2EIAABPYTWFNLLcbsjxwLXRCwEM8am13AIUgIQAACgQTW1FKLMYEp49qTgIV41tj0zBFfEIAABHoksKaWWozpkRUxbyBgIZ41NjeEyiEQgAAEpiKwppZajJkK8szJWohnjc2ZmZM7BCAAgTUE1tRSizFrYmPMAAQsxLPG5gDoSAECEICAKYE1tdRijGlSGG+HgIV41thshwCRQAACEGiTwJpaajGmTRpEVZ2AhXjW2KyeCAYhAAEIDEZgTS21GDMYRtI5jYCFeNbYPC0e/g4BCEAAAi8TWFNLLcbAfxICFuJZY3MSvKQJAQhAYDOBNbXUYszmgDmwLwIW4lljsy9KRAsBCEDAn8CaWmoxxj9TPIYQsBDPGpshyeIUAhCAQEcE1tRSizEdISLUPQQsxLPG5p6YORYCEIDADATW1FKLMTOwJUdJL0iyEFDO5iuhDwEIQAACpxJ4VVBtfv7UiNgxHIHngkT2+uFIkhAEIACBegR+Pqg2f7deClhqncA3g0T29tbBEB8EIACBQALvCKrNTwbmjGtnAl8LEtndznniDgIQgEBPBD4YVJu/0hMkYt1H4EtBIkt+eUAAAhCAwMkEHguqzX91cjj8dUQCnw4S2U8l8T6AERVFThCAwF4C/0jSi0G1+VN7g+f4fgh8OEhk6VMCD/aDiUghAAEIuBH4RGBdvs8tSxyFE7gQKLQfS3pTOAECgAAEINAOgX8qKX0UL/dRaqv9720HBZFYE/iVQKElAf+ZpHPWSWIfAhCAQAcEUi38i+Ca/M874ESIlQjcLOnvgwX3B5VywQwEIACBngl8JLgW/1BSOifwmIjAF4JFd1nSb03Em1QhAAEILAn8O0mpFlrd2l9j978tg2J7fAL3BosuCTMJ/5Kk8+PjJkMIQAACVwmk2/7pM/9R7/o/bAzuuhoVT6Yh8LYGGoBjEab3BPDGwGmkR6IQmJrAP2ngNf/j2pv+/5dTz8akyd8k6ZmGmoD06YCHJKXvwuYBAQhAYDQC6XP+Dwe/2//wxJ+e/w13YEeT2fp8/qihBuBYmOmW2KOS7pF025WGgF8RXD+njIQABOIJpF/1Sxcz6bv908ut6Rv+Wrjdf1xnj/9P3z3AY1ICb22wATgWJv/HvjEI/vBHA+Nr4F9Meu4j7SsEnqAJCH0HLkV2/CLLHDPHLWrgrzkLQuADNAA0AGgADaCB6TTwu5z+IPAaSd9l8U+3+Fu8IiEmrpTRgI8GnpP0Wk5/EEgEor+JikXvs+jhDGc0gAaSBv49pz4IHBP4WUnf5y4AdwHQABpAA8Nr4AeSfu64+PM/BBKB+1n4wy98rv64+kMDaCDd8eUBgesI3CLpSZoAmgA0gAbQwLAa+KakW6+r/GxA4AqBX2fhD7vwufLjyg8NoIH3cLaDwFkEPk8TQBOABtAAGhhOA39+VuFnHwQSgTdKSh8R4WoBBmgADaCBMTSQPur9i5ziILCGwLsb+I1qCs8YhYd5ZB7RQKwG0s+u/9s1hZ8xEDgm8CB3AbgLggbQABroXgMfOy7q/A+BtQRulvRFFn/3i5+rr9irL/jDP1ID/0PSK9YWfcZB4JBA+oKgr9AE0ASgATSABrrTQPqxn9cdFnSeQ6CUwC9I+gaLv7vFH3nVgW+uetFArAa+JelNpcWe8RA4icCb+cEgGgCaQDSABrrQQHrHf6rZPCBQjUAS1FMUgC4KAFdfsVdf8Id/lAb+t6S3VKv6GILAAYE3SPoqTQBNABpAA2igOQ38zyvf43JQsnkKgboE0ptK+HQAVzhRVzj4RXto4EYNpHf7/4O6pR5rEDiZQPpYyUVJL3IV0NxVAMXxxuIIE5iMqoH0JT//UVL62DYPCLgS+DVJz9AE0ASgATSABtw1kN7sl761lQcEwgik75f+HIvfffGPekVDXlyto4G8Bv6C7/YPO+fh+AQC6Wcmn6QRoBFAA2gADZhp4OuS/vUJ9Zc/QSCcwC1HEaT3BvyAAmBWALg6yl8dwQhGo2ng+0c19SOSUo3lAYGmCbxW0u9I+lsaARoBNIAG0MBmDaSfZk8XVbzDv+lTHsGdROBnju4GfEDSExSAzQVgtCsZ8uHqHA3kNZBq5u9KSjWUBwS6J/DLki5xV4BGgGYQDaCBEzWQrvb/k6Tbu6/2JACBMwj8kqTflvQnRy8V/B3F4MRiwFVS/ioJRjDqWQM/kvTfJX1Q0tsknT+jZrILAkMSSF8qlO4OvE/SfZI+JenRKz9DnN7x+j1JL9Ak0CSgATTQkQZSzUq1K9Ww9JPqXzr6db7/fKXGpVqXal6qfTwCCfx/yN8cH+9fX5wAAAAASUVORK5CYII=;" parent="1" vertex="1">
          <mxGeometry x="-1000" y="240" width="512" height="512" as="geometry" />
        </mxCell>
        <mxCell id="1aiJ_BxQlEHNXpEwWQYT-28" value="" style="endArrow=classic;html=1;rounded=0;strokeWidth=15;exitX=1;exitY=0.5;exitDx=0;exitDy=0;entryX=0;entryY=0.5;entryDx=0;entryDy=0;" parent="1" source="1aiJ_BxQlEHNXpEwWQYT-27" target="1aiJ_BxQlEHNXpEwWQYT-26" edge="1">
          <mxGeometry width="50" height="50" relative="1" as="geometry">
            <mxPoint x="-488" y="940.0000000000005" as="sourcePoint" />
            <mxPoint x="-200" y="940" as="targetPoint" />
          </mxGeometry>
        </mxCell>
        <mxCell id="1aiJ_BxQlEHNXpEwWQYT-29" value="" style="shape=image;verticalLabelPosition=bottom;labelBackgroundColor=default;verticalAlign=top;aspect=fixed;imageAspect=0;image=data:image/png,iVBORw0KGgoAAAANSUhEUgAAAgAAAAIACAYAAAD0eNT6AAAAAXNSR0IArs4c6QAAIABJREFUeAHt3X2sLftd1/FvS0tL6W0NVaIJpV4NapRAoAqJT9EqJBjQakLUCPIHsabGWlNDhEQJmvhEwlOiIVFrANGAwSBWjY1Ea1NqQBMqVRTkWopFrUJrW2sLfbie3+2Zc/bZZ+2916x5+Pxm5rWTm9l7rVnz8J7v9/v+rFn77Fu17tenVdUXVtVXVNWfvbfrb6iqv1ZV31JVf/n+Y6+uqt9dVS+rqmeve3j2hgACCCCAwGwEmsN+ZVV9UVU1tzXvNdc15zX3NQe2x/5IVX1BVTVH7ubrV1XVH6+qv1dV76qqp0f+93+r6l9U1Z+/t/wtAsFu6sKJIIAAAnsk0IT/26rq66vqB6vqgyOd1xz536rqu6vqVffDw6Y4fXpV/amq+jcXnPhdAaGFiG+qqs/fFBEHiwACCCCwZwIvr6pvrqqfndl7H6+qt1bVa6rql/UMsL3b/7YLE89d4j/1/Fuq6suq6lk9Q3FsCCCAAAK7JNDc0z6ufsPM0j/lu/bYh6vqu6rq1/ZE81fcP6iPrQThOpy3VdXv6AmIY0EAAQQQ2DWBV1TVj4Wc99F7Hw18R1X98iTh51bVn6mq94cgXA8C31NVn5EEYt8IIIAAArsm0BzzDzpx3vvu+fd1VfWctYl/5r1bH+0W/HUJp39uQP7g2jDsDwEEEEBg9wR+/73P4n++Q+/9yL278O0j+FW+/kBVvbdDCFfDx9+oquetQsNOEEAAAQT2TOD5VfXtnTvvPVX1yqUvwmvv/ZO81Gf9VwV/zvdvuvdvLV+8NBDbRwABBBDYLYFfUlX/unP5Dz5s/2Kg/U2B2b/abzu2P1ow7Ggry7f7vYDZa8EGEUAAgSMQaL9k96Mb9F7713iz/hG9dkt9K9K/fpxPVVX7nQVfCCCAAAIInEOgOaO547pPtvJzc/YsX+1PFW7lpG86zp+uqidnoWEjCCCAAAJ7JvDSe3+u/qd24L32F3Qnff2xHUAYQoE7AZNKwYsRQACB3RPY+jv/wXfD8qsvvWKfc+8XCj60owDQgLgTcGk1eB0CCCCwbwJ7eec/yL8t218P/Lyxl+2FVfWfdyb/AYoQMLYarI8AAgjsm8Ae5T8477/c+3/oPDHm8r1+p/IfgPg4YEw1WBcBBBDYL4G93fYfPHd1+TfPvXy/aUP/1v/qCY793p2AcyvCeggggMA+Cez5nf9VJ7a/3/OFd13C9m8Hf3jn7/6vQhEC7qoIzyOAAAL7JHAU+Q/O+3d3/X2ArziQ/AcoPg7YZ3M7KwQQQOAmAke47T847ury1v9Xzhb/6tHVk7v0e3cCbmoTjyOAAAL7InC0d/5Xvfi2qmp/2fexr99zwHf/V8EIAY+VhAcQQACBXRE4svwH333xqSv6hoMHgAbHxwGnKsNjCCCAwPYJHPW2/yD+YfkD1y/lp1XVLwgAz/zJY3cCrleHnxFAAIFtE/DO/+Gf9P/FqnrJ1cv5avJ/5P93IARcrQ7fI4AAAtslQP4P5T/cBWh/5v/B1z8XAB4JAD4OeFAavkEAAQQ2S8Bt/8fl3/z2T4cr+pyqer8A8FgAaJDcCRiqxBIBBBDYFgHv/E/Lv7ntfVX1Se1yfgH5n5R/gyQEbKvhHS0CCCDQCJD/zfIf3Pb5DdRrBIBbA0CD5V8HGCoIIIDANgi47X+3/JvX/kS7nH9dALgzALgTsI3Gd5QIIHBsAt75nyf/5rRvbaXyRgHgrAAgBBx7sDh7BBDomwD5ny//5rNnfhHwJwSAswNAg+bjgL6HgKNDAIHjEXDbf5z8m8t+vJXJ/xAARgUAdwKON1ycMQII9EvAO//x8m8ee1e7pB8QAEYHACGg32HgyBBA4DgEyP8y+TeH/Z9WJh8VAC4KAA2gjwOOM2icKQII9EXAbf/L5d/89ZF2OT8oAFwcANwJ6GsgOBoEEDgGAe/8p8m/uavd/a93CwCTAoAQcIyB4ywRQKAPAuQ/Xf7NW/+9Xc52G7v94L9pDHwc0MdwcBQIILBfAm77T/PUVc//ZCuTN5H/bOHH/ztgv4PHmSGAQJaAd/7zyb8FgR9sl/NvCQCzBYAGVQjIDgl7RwCB/REg/3nl31z17a1MvkYAmDUANLA+DtjfAHJGCCCQIeC2//zyb556XbucrxAAZg8A7gRkBoW9IoDAvgh457+M/JujfnsrlU+pqg8LAULAvuaGs0EAgY0TIP/l5N+c//yhPt4iACwSANwJGCrMEgEEEDifAPkvJ//mpfbL/w++vk4AWCwACAEPysw3CCCAwJ0EyH9Z+Tcntd/9e/DVfsni40KAEPCgInyDAAIIrE+A/JeXf3P9y65f2h8SABYNAO4EXK84PyOAAAIPCZD/8vJvHnrzQ+QPv/sqAWDxANDg+yeCD2vOdwgggEAj4J/6rSP/5qCvPFVyz62qdwoBq4QAfyzoVAV6DAEEjkjAO//15P8zVdVcf/Kr/WGAlhD8tzwDIeBkCXoQAQQORID8l3fNVZ+/5rbaan8T4B0CwGoBSAi4rRo9hwACeyZA/uvKv93hf8FdBfXlAsBqAaAlMyHgror0PAII7I0A+a8r/+aaV55bRO3/EnT1toHvl+XhFwPPrUzrIYDA1gn4hb9lfXLK128cUzQtnf2cELBqCHInYEyFWhcBBLZIwDv/9eX/nlP/7v+u4vlSfxxo1QDQUpsQcFdVeh4BBLZKgPzXl3/7oz+/79KC+SZ3AVYPAT4OuLRavQ4BBHol4Lb/+vJvbyq/cUpBPLuqvlcIWD0EuBMwpWq9FgEEeiLgnX9G/t9TVc3hk74+uaraLxCc+sUCjy3HRQiYVLZejAACHRAg/+UccZt//1VVPW+u6/9EVflfBq9/IX0cMFcF2w4CCKxNwG3/9Z3RQkFzdXP2rF+fWlUtVdyWOjw3Px93AmYtYxtDAIEVCHjnP78LzvFr+5/6zS7/oV6EgMxFFQKGCrREAIHeCZB/xhOLyn8oOiEgc3GFgKECLRFAoFcC5J/xwyryH4pOCMhcZCFgqEBLBBDojQD5Z7ywqvyHohMCMhdbCBgq0BIBBHohQP4ZH0TkPxSdEJC56ELAUIGWCCCQJkD+GQ9E5T8UnRCQufhCwFCBlgggkCJA/pn534X8h6ITAjJFIAQMFWiJAAJrEyD/zNzvSv5D0QkBmWIQAoYKtEQAgbUIkH9m3ncp/6HohIBMUQgBQwVaIoDA0gTIPzPnu5b/UHRCQKY4hIChAi0RQGApAuSfme+bkP9QdEJApkiEgKECLRFAYG4C5J+Z65uS/1B0QkCmWISAoQItEUBgLgLkn5nnm5T/UHRCQKZohIChAi0RQGAqAfLPzPFNy38oOiEgUzxCwFCBlgggcCkB8s/M713Ifyg6ISBTRELAUIGWCCAwlgD5Z+b2ruQ/FJ0QkCkmIWCoQEsEEDiXAPln5vUu5T8UnRCQKSohYKhASwQQuIsA+Wfm9K7lPxSdEJApLiFgqEBLBBC4iQD5Z+bzIeQ/FJ0QkCkyIWCoQEsEELhOgPwzc/lQ8h+KTgjIFJsQMFSgJQIIDATIPzOPDyn/oeiEgEzRCQFDBVoigAD5Z+bwoeU/tJ0QkCk+IWCoQEsEjkuA/DPzl/yv9JwQkClCIeBKEfoWgYMRIP/M3CX/E40mBGSKUQg4UYweQmDnBMg/M2/J/5bGEgIyRSkE3FKUnkJgZwTIPzNnyf+MRhICMsUpBJxRnFZBYOMEyD8zX8l/ROMIAZkiFQJGFKlVEdgYAfLPzFXyv6BRhIBMsQoBFxSrlyDQOQHyz8xT8p/QGEJApmiFgAlF66UIdEaA/DNzlPxnaAQhIFO8QsAMxWsTCIQJkH9mfpL/jIUvBGSKWAiYsYhtCoGVCZB/Zm6S/wKFLgRkilkIWKCYbRKBhQmQf2Zekv+ChS0EZIpaCFiwqG0agZkJkH9mTpL/zIV8anNCQKa4hYBT1egxBPoiQP6Z+Uj+K/aBEJApciFgxSK3KwRGEiD/zFwk/5GFOsfqQkCm2IWAOarXNhCYlwD5Z+Yh+c9bx6O2JgRkil4IGFWmVkZgUQLkn5mD5L9oWZ+3cSEgU/xCwHn1aS0EliRA/pn5R/5LVvXIbQsBmSYQAkYWqtURmJEA+WfmHvnPWMRzbUoIyDSDEDBXBdsOAucTIP/MvCP/82t09TWFgExTCAGrl7odHpgA+WfmHPlvoOmEgExzCAEbaA6HuHkC5J+Zb+S/odYRAjJNIgRsqEkc6uYIkH9mrpH/5lqlSgjINIsQsMFmccjdEyD/zDwj/+5b4+YDFAIyTSME3FyTnkFgLAHyz8wx8h9bqR2uLwRkmkcI6LAZHNLmCJB/Zn6R/+Za5eYDFgIyTSQE3FyTnkHgLgLkn5lb5H9XZW7weSEg00xCwAabxSHHCZB/Zl6Rf7z0lzsAISDTVELAcjVty/sjQP6ZOUX+++ulx85ICMg0lxDwWCl6AIHHCJB/Zj6R/2OluN8HhIBMkwkB++0pZzadAPln5hL5T6/dzW1BCMg0mxCwuVZxwCsQIP/MPCL/FYq7110IAZmmEwJ67QjHlSBA/pk5RP6Jau9sn0JApvmEgM4aweFECJB/Zv6Qf6Tc+9ypEJBpQiGgz35wVOsQIP/M3CH/dep7U3sRAjLNKARsqk0c7EwEyD8zb8h/pgLe42aEgExTCgF77CbndBMB8s/MGfK/qSI9/oCAEJBpTiHgQQn6ZscEyD8zX8h/x00196kJAZkmFQLmrmTb64kA+WfmCvn31AUbORYhINOsQsBGGsRhjiJA/pl5Qv6jytTKVwkIAZmmFQKuVqHvt06A/DNzhPy33jkdHL8QkGleIaCD4ncIkwmQf2Z+kP/k0rWBgYAQkGliIWCoQMstEiD/zNwg/y12S+fHLARkmlkI6LwxHN5JAuSfmRfkf7IcPTgHASEg09RCwBzVaxtrESD/zJwg/7Uq/MD7EQIyzS0EHLjpNnTq5J+ZD+S/oSbZ+qEKAZkmFwK23jn7Pn7yz8wF8t93X3V5dkJAptmFgC7b4fAHRf6ZeUD+h2+9HAAhINP0QkCu5u35cQLkn5kD5P94LXpkZQJCQKb5hYCVC93uThIg/0z/k//JcvRggoAQkBkCQkCi2u1zIED+mb4n/6ECLbshIARkhoEQ0E0LHOpAyD/T7+R/qDbb1skKAZmhIARsq0+2frTkn+lz8t965xzg+IWAzHAQAg7QXB2cIvln+pv8Oyh+h3AeASEgMySEgPPq01qXESD/TF+T/2X16lVBAkJAZlgIAcGi3/GuyT/Tz+S/46ba+6kJAZmhIQTsvbPWPT/yz/Qx+a9b5/a2AAEhIDM8hIAFivmAmyT/TP+S/wGbba+nLARkhogQsNeOWue8yD/Tt+S/Tn3by4oEhIDMMBECVizyHe2K/DP9Sv47aiKn8igBISAzVISAR+vQT7cTIP9Mn5L/7XXp2R0QEAIyw0UI2EHzrHAK5J/pT/Jfobjtog8CQkBmyAgBfdR/r0dB/pm+JP9eO8JxLUZACMgMGyFgsZLe9IbJP9OP5L/ptnHwUwgIAZmhIwRMqdr9vZb8M31I/vvrJWc0koAQkBk+QsDIQt3p6uSf6T/y32lDOa3xBISAzBASAsbX6p5eQf6ZviP/PXWRc5mFgBCQGUZCwCzlu7mNkH+m38h/c63igNciIARkhpIQsFaF97Ef8s/0Gfn3Uf+OomMCQkBmOAkBHTfFjIdG/pn+Iv8Zi9im9k1ACMgMKSFg331F/pm+Iv9995WzW4CAEJAZVkLAAsXcwSbJP9NP5N9B8TuEbRIQAjJDSwjYZr/cdNTkn+kj8r+pIj2OwJkEhIDM8BICzizQzlcj/0z/kH/njeHwtkNACMgMMSFgOz1y6kjJP9M35H+qGj2GwAQCQkBmmAkBE4o2+FLyz/QL+QeL3q73TUAIyAw1IWBbfUX+mT4h/231iaPdIIEWAt5UmQZ/+sD7FQK20Szkn5kN5L+N/nCUOyAgBGSGnBDQd/OQf6Yvmvxf1HdpODoE9kVACMgMOyGgzz4i/0w/kH+f/eCoDkBACMgMPSGgr+Yi/0wfkH9ffeBoDkhACMgMPyGgj2Yj/0z9k38f9e8oECghIDMEhYBs85F/pu7JP1v39o7AYwSEgMwwFAIeK8VVHiD/TL2T/yrlbScIjCcgBGSGohAwvlanvIL8M3VO/lOq1msRWIGAEJAZjkLACsVdVeSfqW/yX6e+7QWByQSEgMyQFAIml+6tGyD/TF2T/61l6UkE+iMgBGSGpRCwTC+Qf6aeyX+ZerZVBBYnIARkhqYQMG9pk3+mjsl/3jq2NQRWJyAEZIanEDBPqZN/pn7Jf576tRUE4gSEgMwQFQKmlT75Z+qW/KfVrVcj0B0BISAzTIWAy1qB/DP1Sv6X1atXIdA9ASEgM1SFgHGtQf6ZOiX/cXVqbQQ2R0AIyAxXIeC8ViH/TH2S/3n1aS0ENk9ACMgMWSHg9tYh/0xdkv/tdelZBHZHQAjIDFsh4HQrkX+mHsn/dD16FIHdExACMkNXCHi0tcg/U4fk/2gd+gmBwxEQAjLDVwj4RKuRf6b+yP9wo94JI3CagBCQGcJHDwHkn6k78j89Bz2KwGEJCAGZYXzUEED+mXoj/8OOeCeOwO0EhIDMUD5aCCD/TJ2R/+3zz7MIHJ6AEJAZzkcJAeSfqS/yP/xoBwCB8wgIAZkhvfcQQP6ZuiL/8+aetRBA4D4BISAzrPcaAsg/U0/kb6QjgMBFBISAzNDeWwgg/0wdkf9FY8+LEEBgICAEZIb3XkIA+Wfqh/yHCWaJAAKTCAgBmSG+9RBA/pm6If9J486LEUDgOgEhIDPMtxoCyD9TL+R/fXL5GQEEZiEgBGSG+tZCAPln6oT8ZxlzNoIAAjcREAIyw30rIYD8M/VB/jdNLI8jgMCsBISAzJDvPQSQf6YuyH/W8WZjCCBwFwEhIDPsew0B5J+pB/K/a1J5HgEEFiEgBGSGfm8hgPwzdUD+i4w1G0UAgXMJCAGZ4d9LCCD/zPUn/3MnlPUQQGBRAkJARgLpEED+metO/ouOMxtHAIGxBISAjAxSIYD8M9eb/MdOJusjgMAqBISAjBTWDgHkn7nO5L/KGLMTBBC4lIAQkJHDWiGA/DPXl/wvnUhehwACqxIQAjKSWDoEkH/mupL/quPLzhBAYCoBISAji6VCAPlnrif5T51EXo8AAhECQkBGGnOHAPLPXEfyj4wtO0UAgbkICAEZecwVAsg/c/3If64JZDsIIBAlIARkJDI1BJB/5rqRf3Rc2TkCCMxNQAjIyOTSEED+metF/nNPHttDAIEuCAgBGamMDQHkn7lO5N/FmHIQCCCwFAEhICOXc0MA+WeuD/kvNXFsFwEEuiIgBGQkc1cIIP/MdSH/rsaTg0EAgaUJCAEZ2dwUAsg/cz3If+lJY/sIINAlASEgI53rIYD8M9eB/LscSw4KAQTWIiAEZOQzhADyz/An/7UmjP0ggEDXBJ6oqjYQn/bfqgyeqqr/ivmqzFuNt1pvNe8LAQQQQKCq3AkQgI4QAL3zN+4QQACBEwSEACFgzyGA/E80vYcQQACBgYAQIATsMQSQ/9DhlggggMAtBIQAIWBPIYD8b2l2TyGAAALXCQgBQsAeQgD5X+9sPyOAAAJnEBAChIAthwDyP6PJrYIAAgjcREAIEAK2GALI/6aO9jgCCCAwgoAQIARsKQSQ/4jmtioCCCBwFwEhQAjYQggg/7s62fMIIIDABQSEACGg5xBA/hc0tZcggAAC5xIQAoSAHkMA+Z/bwdZDAAEEJhAQAoSAnkIA+U9oZi9FAAEExhIQAoSAHkIA+Y/tXOsjgAACMxAQAoSAZAgg/xma2CYQQACBSwkIAUJAIgSQ/6Ud63UIIIDAjASEACFgzRBA/jM2r00hgAACUwkIAULAGiGA/Kd2qtcjgAACCxAQAoSAJUMA+S/QtDaJAAIIzEVACBAClggB5D9Xh9oOAgggsCABIUAImDMEkP+CzWrTCCCAwNwEhAAhYI4QQP5zd6btIYAAAisQEAKEgCkhgPxXaFK7QAABBJYiIAQIAZeEAPJfqiNtFwEEEFiRgBAgBIwJAeS/YnPaFQIIILA0ASFACDgnBJD/0p1o+wgggECAgBAgBNwWAsg/0JR2iQACCKxFQAgQAk6FAPJfqwPtBwEEEAgSEAKEgKshgPyDzWjXCCCAwNoEhAAhoIUA8l+78+wPAQQQ6ICAEHDsEED+HTShQ0AAAQRSBISAY4YA8k91nP0igAACHREQAo4VAsi/o+ZzKAgggECagBBwjBBA/ulOs38EEECgQwJCwL5DAPl32HQOCQEEEOiFgBCwzxBA/r10mONAAAEEOiYgBOwrBJB/x83m0BBAAIHeCAgB+wgB5N9bZzkeBBBAYAMEhIBthwDy30CTOUQEEECgVwJCwDZDAPn32lGOCwEEENgQASFgWyGA/DfUXA4VAQQQ6J2AELCNEED+vXeS40MAAQQ2SEAI6DsEkP8Gm8ohI4AAAlshIAT0GQLIfysd5DgRQACBDRMQAvoKAeS/4WZy6AgggMDWCAgBfYQA8t9a5zheBBBAYAcEhIBsCCD/HTSRU0AAAQS2SuA3VNXHKivCpw+4/8a8sfeFAAIIIIDA6gReWlU/dUD59hI43llVT65+1e0QAQQQQODQBMi/j7seQsCh29DJI4AAAusSIP8+5D/ciRAC1q1/e0MAAQQOSYD8+5K/EHDINnTSCCCAwLoEyL9P+QsB6/aBvSGAAAKHIkD+fctfCDhUOzpZBBBAYB0C5L8N+QsB6/SDvSCAAAKHIED+25K/EHCItnSSCCCAwLIEyH+b8hcClu0LW0cAAQR2TYD8ty1/IWDX7enkEEAAgWUIkP8+5C8ELNMftooAAgjskgD570v+QsAu29RJIYAAAvMSIP99yl8ImLdPbA0BBBDYFQHy37f8hYBdtauTQQABBOYhQP7HkL8QME+/2AoCCCCwCwLkfyz5CwG7aFsngQACCEwjQP7HlL8QMK1vvBoBBBDYNAHyP7b8hYBNt6+DRwABBC4jQP7kPwSAtnxnVT15WSl5FQIIIIDAVgiQP/lflf/wvRCwlQ52nAgggMAFBMif/Afhn1oKARc0lZcggAACvRMgf/I/Jf3rjwkBvXey40MAAQRGECB/8r8u+tt+FgJGNJdVEUAAgV4JkD/53yb7m54TAnrtaMeFAAIInEGA/Mn/JsGf87gQcEaTWQUBBBDojQD5k/85kr9rHSGgt852PAgggMAtBMif/O8S+5jnhYBbms1TCCCAQC8EyJ/8x8j93HWFgF463HEggAACJwiQP/mfK/RL1hMCTjSdhxBAAIE0AfIn/0ukPvY1QkC60+0fAQQQuEKA/Ml/rMinrC8EXGk+3yKAAAIpAuRP/lNkfulrhYBUx9svAgggUFXkT/6XCnyO1wkBxhACCCAQIED+5D+HxKduQwgINL9dIoDAcQmQP/lPFfecrxcCjjuLnDkCCKxIgPzJf055z7UtIWDFIWBXCCBwPALkT/5zCXuJ7QgBx5tJzhgBBFYgQP7kv4S0596mELDCMLALBBA4DgHyJ/+5Rb3k9oSA48wmZ4oAAgsSIH/yX1LWS21bCFhwKNg0AgjsnwD5k/9Sgl5ju0LA/meUM0QAgQUIkD/5ryHppfchBCwwHGwSAQT2S4D8yX9pMa+5fSFgv7PKmSGAwIwEyJ/815TzWvsSAmYcEjaFAAL7I0D+5L+WkBP7EQL2N7OcEQIIzECA/Mk/IeW19ykEzDAsbAIBBPZD4DOr6qkiwLVl9JaqeivutTb3Vuut5n0hgAAChybgnX8m+PxQVT1RVZ9aVW8SAlYPAe4EHHrsOXkEECD/rPyHChQCMtdBCBgq0BIBBA5FgPwz0hne+V8vNiEgcz2EgOuV6GcEENg1AfLPyOYm+Q/FJgRkrstPV9WTw0WwRAABBPZKgPwzkrlL/kO9CQGZ6yMEDBVoiQACuyRA/hm5nCv/oeiEgMx1EgKGCrREAIFdESD/jFTGyn8oOiEgc72EgKECLRFAYBcEyD8jk0vlPxSdEJC5bkLAUIGWCCCwaQLkn5HIVPkPRScEZK6fEDBUoCUCCGySAPln5DGX/IeiEwIy11EIGCrQEgEENkWA/DPSmFv+Q9EJAZnrKQQMFWiJAAKbIED+GVksJf+h6ISAzHUVAoYKtEQAga4JkH9GEkvLfyg6ISBzfYWAoQItEUCgSwLkn5HDWvIfik4IyFxnIWCoQEsEEOiKAPlnpLC2/IeiEwIy11sIGCrQEgEEuiBA/hkZpOQ/FJ0QkLnuQsBQgZYIIBAlQP4ZCaTlPxSdEJC5/kLAUIGWCCAQIUD+meHfi/yHohMCMnUgBAwVaIkAAqsSIP/M0O9N/kPRCQGZehAChgq0RACBVQiQf2bY9yr/oeiEgExdCAFDBVoigMCiBMg/M+R7l/9QdEJApj6EgKECLRFAYBEC5J8Z7luR/1B0QkCmToSAoQItEUBgVgLknxnqW5P/UHRCQKZehIChAi0RQGAWAuSfGeZblf9QdEJApm6EgKECLRFAYBIB8s8M8a3Lfyg6ISBTP0LAUIGWCCBwEQHyzwzvvch/KDohIFNHQsBQgZYIIDCKAPlnhvbe5D8UnRCQqSchYKhASwQQOIsA+WeG9V7lPxSdEJCpKyFgqEBLBBC4lQD5Z4b03uU/FJ0QkKkvIWCoQEsEEDhJgPwzw/ko8h+KTgjI1JkQMFSgJQIIPEKA/DND+WjyH4pOCMjUmxAwVKAlAgg8Q4D8M8P4qPIf2k4IyNSdEDBUoCUCBydA/pkhfHT5D20nBGTqTwgYKtASgYMSIP/M8CX/RxtOCMjUoRDwaB36CYHDECD/zNAl/9MtJgRk6lEIOF2PHkVgtwTIPzNsyf/2lhICMnUpBNxel55FYDcEyD8zZMn/vBYSAjL1KQScV5/WQmCzBMg/M1zJf1zb82SJAAARE0lEQVTLCAGZOhUCxtWptRHYDAHyzwxV8r+sRYSATL0KAZfVq1ch0C0B8s8MU/Kf1hJCQKZuhYBpdevVCHRDgPwzQ5T852kBISBTv0LAPPVrKwjECJB/ZniS/7wlLwRk6lgImLeObQ2B1QiQf2Zokv8yJS4EZOpZCFimnm0VgcUIkH9mWJL/YiX9zIaFgExdCwHL1rWtIzAbAfLPDEnyn62Eb92QEJCpbyHg1rL0JAJ5AuSfGY7kv27tCwGZOhcC1q1ze0PgbALknxmK5H92ic66ohCQqXchYNYytjEEphMg/8wwJP/ptTtlC0JApu6FgClV67UIzEiA/DNDkPxnLOIJmxICMvUvBEwoWi9FYA4C5J8ZfuQ/R/XOtw0hINMHQsB8NWxLCIwiQP6ZoUf+o8p0tZWFgEw/CAGrlbgdIfAJAuSfGXbk33cHCgGZvhAC+u4LR7cjAuSfGXLkv40mEgIy/SEEbKM/HOWGCZB/ZriR/7aaRgjI9IkQsK0+cbQbIkD+maFG/htqkiuHKgRk+kUIuFKEvkVgDgLknxlm5D9H9ea2IQRk+kYIyNW8Pe+MAPlnhhj576ORhIBM/wgB++gfZxEkQP6Z4UX+waJfYNdCQKaPhIAFitkmj0GA/DNDi/z32V9CQKafhIB99pOzWpAA+WeGFfkvWNQdbFoIyPSVENBB8TuEbRAg/8yQIv9t9MfUoxQCMv0lBEytXK/fPQHyzwwn8t99az1ygkJAps+EgEfK0A8IPCRA/pmhRP4Pa/BI3wkBmX4TAo7UZc71LALknxlG5H9Wee52JSEg03dCwG5byomNJUD+mSFE/mMrdZ/rCwGZ/hMC9tlPzmoEAfLPDB/yH1GkB1hVCMj0oRBwgOZyiqcJkH9m6JD/6Xo8+qNCQKYfhYCjd94Bz5/8M8OG/A/YbCNOWQjI9KUQMKJIrbptAuSfGTLkv+2+WevohYBMfwoBa1W4/cQIkH9muJB/rOQ3uWMhINOnQsAm28VBn0OA/DNDhfzPqU7rXCcgBGT6VQi4Xol+3jwB8s8ME/LffOtET0AIyPStEBAtezufkwD5Z4YI+c9ZxcfdlhCQ6V8h4Lg9t5szJ//M8CD/3bRQFyciBGT6WAjoovwdxCUEyD8zNMj/kmr1mrsICAGZfhYC7qpMz3dHgPwzw4L8u2uFXR2QEJDpayFgV22075Mh/8yQIP9991UvZycEZPpbCOilAxzHjQTIPzMcyP/GkvTEAgSEgEyfCwELFLNNzkOA/DNDgfznqV9bGUdACMj0uxAwrk6tvQIB8s8MA/Jfobjt4kYCQkCm74WAG0vSE2sTIP/MECD/tSvd/k4REAIy/S8EnKpGj61KgPwzzU/+q5a5nd1BQAjIzAEh4I7C9PRyBMg/0/Tkv1xN2/LlBISAzDwQAi6vWa+8kAD5Z5qd/C8sWC9bhYAQkJkLQsAq5W0njQD5Z5qc/PXfFggIAZn5IARsoTs2fozkn2lu8t944xzs8IWAzJwQAg7WaGueLvlnmpr816xy+5qLgBCQmRdCwFwVbDsPCJB/ppnJ/0EJ+maDBISAzNwQAjbYLL0eMvlnmpj8e+0IxzWGgBCQmR9CwJgqte5JAuSfaV7yP1mOHtwoASEgM0eEgI02TA+HTf6ZpiX/HqrfMcxNQAjIzBMhYO5KPsD2yD/TrOR/gOY68CkKAZm5IgQcuOnGnjr5Z5qU/MdWqvW3SEAIyMwXIWCL3bLyMZN/pjnJf+VCt7soASEgM2eEgGjZ971z8s80Jfn33ReObhkCQkBm3ggBy9TzprdK/plmJP9Nt42Dn0hACMjMHSFgYuHu6eXkn2lC8t9TFzmXSwkIAZn5IwRcWrE7eh35Z5qP/HfURE5lMgEhIDOHhIDJpbvdDZB/punIf7s948iXIyAEZOaRELBcTXe7ZfLPNBv5d9sSDqwDAkJAZi4JAR0U/1qHQP6ZJmvyf9FaF9l+ENgoASEgM5+EgI02zJjDJv9Mc5H/mCq17tEJCAGZOSUE7LjzyD/TVOS/46ZyaosREAIy80oIWKykcxsm/0wzkX+u5u15+wSEgMzcEgK23zsPzoD8M01E/g9K0DcIXExACMjMLyHg4pLt54Xkn2ke8u+nBxzJ9gkIAZk5JgRsuHfIP9M05L/hpnHo3RIQAjLzTAjotiVuPjDyzzQL+d9ck55BYCoBISAz14SAqZW74uvJP9Mk5L9ikdvVYQkIAZn5JgRsoOXIP9Mc5L+B5nCIuyEgBGTmnBDQcQuRf6YpyL/jpnBouyUgBGTmnRDQYUuRf6YZyL/DZnBIhyEgBGTmnhDQUYuRf6YJyL+jJnAohyUgBGTmnxDQQcuRf6b4yb+D4ncICNwnIARk5qAQEGxB8s8UPfkHi96uEbiBgBCQmYdCwA0FueTD5J8pdvJfsqptG4FpBISAzFwUAqbV7ahXk3+myMl/VJlaGYEIASEgMx+FgBXKnfwzxU3+KxS3XSAwEwEhIDMnhYCZCvjUZsg/U9Tkf6oaPYZA3wSEgMy8FAIW6AvyzxQz+S9QzDaJwEoEhIDM3BQCZixw8s8UMfnPWMQ2hUCIgBCQmZ9CwAwFT/6Z4iX/GYrXJhDohIAQkJmjQsCEBiD/TNGS/4Si9VIEOiUgBGTmqRBwQUOQf6ZYyf+CYvUSBDZCQAjIzFUhYESDkH+mSMl/RJFaFYGNEhACMvNVCDijYcg/U5zkf0ZxWgWBnRAQAjJzVgi4pYHIP1OU5H9LUXoKgZ0SEAIy81YIONFQ5J8pRvI/UYweQuAgBISAzNwVAq40GPlnipD8rxShbxE4KAEhIDN/hYCqIv9M8ZH/Qae900bgBAEhIDOHDx0CyD9TdOR/YgJ6CIGDExACMvP4kCGA/DPFRv4Hn/JOH4FbCAgBmbl8qBBA/pkiI/9bJp+nEEDgGQJCQGY+HyIEkH+muMjfdEcAgXMJCAGZOb3rEED+maIi/3PHnvUQQGAgIARk5vUuQwD5Z4qJ/IdxZokAAmMJCAGZub2rEED+mSIi/7HjzvoIIHCdgBCQmd+7CAHknyke8r8+xvyMAAKXEhACMnN80yGA/DNFQ/6XjjmvQwCBmwgIAZl5vskQQP6ZYiH/m8aXxxFAYCoBISAz1zcVAsg/UyTkP3W8eT0CCNxFQAjIzPdNhADyzxQH+d81tjyPAAJzERACMnO+6xBA/pmiIP+5xprtIIDAuQSEgMy87zIEkH+mGMj/3HFlPQQQmJuAEJCZ+12FAPLPFAH5zz3ObA8BBMYSEAIy87+LEED+mYtP/mPHlPURQGApAkJAxgPREED+mYtO/kuNMdtFAIFLCQgBGR9EQgD5Zy42+V86nrwOAQSWJiAEZLywaggg/8xFJv+lx5ftI4DAVAJCQMYPq4QA8s9cXPKfOpa8HgEE1iIgBGQ8sWgIIP/MRSX/tcaW/SCAwFwEhICMLxYJAU3+T1XmhJ4+8H6b/J+YqyNtBwEEEFiRwIuqqs2wI8/wxLk3Vzdnz/L1kqr6cRdx9SL2zn+W8rURBBAIEnAnIBOAfrKqPn3qdX+BBLe6+FtiJP+plev1CCDQCwEhIBMCfriqGvuLvp5VVd/vnf/qAcBt/4vK1YsQQKBjAu2jTB8HrB8E/mFVNZeP/vrT5B+Rf/vczBcCCCCwNwLuBKwfANod5T85tpBeXlUfFgBWDQBu+4+tUusjgMDWCAgB64eA5vLPO7dQPqmq3kb+5H9uwVgPAQQQGEFACFg/BLy9qp5zzjV6LfmT/zmFYh0EEEDgQgJCwPoh4NV3Xav2zwbeKwCsFgD8wt9dFel5BBDYKwG/GLhuCPj5qmr/rP/Gr79C/qvK3y/83ViKnkAAgQMQcCdg3RDwF2+qqZbGvPtf52L4hb+bqtDjCCBwNAJCwDreaf8ioN0FeOGpAnudd/+rvPt32/9U9XkMAQSOTMDHAeuFgPZ7fo99td8STPzd4iPt0zv/x8rOAwgggMAzBNwJWMfB//56vX0u+S8efsj/etX5GQEEEHiUgBCwTgj47KvY/6oAsGgAcNv/arX5HgEEELiZgI8Dlg8Bf+kq/h8VABYLAN75X6003yOAAAJ3E3AnYNkQ8G+HS/DiqvqoALBIACD/ocosEUAAgXEEhIDlQkBzfnN/fSn5Lyb/divLFwIIIIDAZQR8HLBcCPiSdkn+nAAwewDwzv+yZvcqBBBA4DoBdwKWCQFf20B/pwAwawAg/+vt62cEEEBgGgEhYP4Q8Pp2Sd4qAMwWAMh/WpN7NQIIIHATASFg3hDw5gb6HQLALAGgyd9n/je1rscRQACB6QT8TsB8IeCpdjn+twAwOQB45z+9sW0BAQQQOIeAOwHzhID/2WB/SACYFADI/5yWtQ4CCCAwHwEhYHoI+GC7HB8RAC4OAG77z9fQtoQAAgiMIeDjgGkh4Bcb7PcJABcFAO/8x7SqdRFAAIH5CbgTcHkIeE+7HD8rAIwOAOQ/fyPbIgIIIHAJASHgshDwMw32fxQARgUAt/0vaVGvQQABBJYj4OOA8SHgx9rleIMAcHYA8M5/uQa2ZQQQQGAKAXcCxoWA72+wv1kAOCsAkP+U1vRaBBBAYHkCQsD5IeAb2+V4lQBwZwBw23/5xrUHBBBAYA4CPg44LwR8dYP92QLArQHAO/85WtI2EEAAgfUIuBNwdwj4de1yPKuq3i0EnAwB5L9ew9oTAgggMCcBIeDmENCc39z/zNf3CQCPBQC3/YfqsEQAAQS2ScDHAadDwPdevZx/WAB4JAB453+1OnyPAAIIbJeAOwGPh4Avv3o5X1BVHxACngkB5H+1MnyPAAIIbJ+AEPAwBLy/qj7l+iX9uwJAue1/vSr8jAACCOyDgI8DPhECvvPU5fyNBw8A3vmfqgqPIYAAAvsh4E5A1ctvupz/8qAhgPxvqgiPI4AAAvsicOQQ8MbbLuUXHzAAuO1/W0V4DgEEENgfgaN+HPA777qU/+RAIcA7/7uqwfMIIIDAPgkc7U7APzrnMv7qqvrwAUIA+Z9TDdZBAAEE9kvgKCGgOf2zzr2Mf2HnAcBt/3MrwXoIIIDAvgkc4eOArx9zCZ9TVW/ZaQjwzn9MJVgXAQQQ2D+BPd8JeHNVNaeP+vqMqvq5nYUA8h9VAlZGAAEEDkNgjyHgPVX1skuv4BdV1S/sJAS47X9pFXgdAgggcAwCe/o4oLn7d029bH+oqj628RDgnf/UKvB6BBBA4BgE9nAn4ONV9ZVzXa7XVlXb4NMb/K/9LkNLdb4QQAABBBA4h0BzxlZ/D665ujl71q+vqqqPbCwA/OOqav+jI18IIIAAAgiMIfC8qvq+jTnvo1X1qjEnOWbd31tV/28jQP72Jb/5OAaGdRFAAAEEdk2g/fb86zfivA9W1ZctfTV+fVW9vWMgH1ri9sfSUG0fAQQQQKBbAn+0qppge/0Y/D9V1eeuRe+FVfUdHcJoED5nLQj2gwACCCBwGAJNsM0xvYWAv1NV7RcXV/96RVX9hw6AtGT2DVX1/NUJ2CECCCCAwFEIfPL9O8wf6MB7P1FVX5IG34B8TVX9rwCQ9gsP333vM5qXpiHYPwIIIIDAYQi0P67z96uqOWjtOwLvrqrXVdVze6LdfmOyfU7SUsnSQNr/2OC77l2AX9MTAMeCAAIIIHAoAk9W1bet9PsB77h/96Hrf9n27Kr6rfehzHlXoP0xovbvMtu/b/ylhyoxJ4sAAggg0DOBF99/A/yGmf+5/Hvvv9ltv90/+u/5p4G1WxS/+d6fE/66qvpnVfWuEXcH3ldVP1JV31JVr6yql6RPxv4RQAABBBC4g0B7g9qc9a33Hfb+Ed5rjmyu/Nr77lz0Nv//B6RJHByn0kurAAAAAElFTkSuQmCC;" parent="1" vertex="1">
          <mxGeometry x="90" y="260" width="200" height="200" as="geometry" />
        </mxCell>
        <mxCell id="1aiJ_BxQlEHNXpEwWQYT-30" value="Delete empty values" style="text;html=1;strokeColor=none;fillColor=none;align=center;verticalAlign=middle;whiteSpace=wrap;rounded=0;fontSize=100;" parent="1" vertex="1">
          <mxGeometry x="-252" y="-170" width="616" height="280" as="geometry" />
        </mxCell>
        <mxCell id="1aiJ_BxQlEHNXpEwWQYT-31" value="" style="shape=image;verticalLabelPosition=bottom;labelBackgroundColor=default;verticalAlign=top;aspect=fixed;imageAspect=0;image=data:image/png,iVBORw0KGgoAAAANSUhEUgAAAgAAAAIACAYAAAD0eNT6AAAAAXNSR0IArs4c6QAAIABJREFUeAHtnVuvLel1lke3OdgmB65IwukH5PAH7G6HnLAiEYHplsWVceAn2G7ZChctK8Ztdzsi4orbKInbIuQCc4MQQUhuHKGQAygRBCWK25bodkK4StJtCcP+2rt2165Rc8yac37v+9Wq9Sype845Rs0x3vcZX9VXe661147gCwIQgAAEIAABCEAAAhCAAAQgAAEIQAACEIAABCAAAQhAAAIQgAAEIAABCEAAAhCAAAQgAAEIQAACEIAABCAAAQhAAAIQgAAEIAABCEAAAhCAAAQgAAEIQAACEIAABCAAAQhAAAIQgAAEIAABCEAAAhCAAAQgAAEIQAACEIAABCAAAQhAAAIQgAAEIAABCEAAAhCAAAQgAAEIQAACEIAABCAAAQhAAAIQgAAEIAABCEAAAhCAAAQgAAEIQAACEIAABCAAAQhAAAIQgAAEIAABCEAAAhCAAAQgAAEIQAACEIAABCAAAQhAAAIQgAAEIAABCEAAAhCAAAQgAAEIQAACEIAABCAAAQhAAAIQgAAEIAABCEAAAhCAAAQgAAEIQAACEIAABCAAAQhAAAIQgAAEIAABCEAAAhCAAAQgAAEIQAACEIAABCAAAQhAAAIQgAAEIAABCEAAAhCAAAQgAAEIQAACEIAABCAAAQhAAAIQgAAEIAABCEAAAhCAAAQgAAEIQAACEIAABCAAAQhAAAIQgAAEIAABCEAAAhCAAAQgAAEIQAACEIAABCAAAQhAAAIQgAAEIAABCEAAAhCAAAQgAAEIQAACEIAABCAAAQhAAAIQgAAEIAABCEAAAhCAAAQgAAEIQAACEIAABCAAAQhAAAIQgAAEIAABCEAAAhCAAAQgAAEIQAACEIAABCAAAQhAAAIQgAAEIAABCEAAAhCAAAQgAAEIQAACEIAABCAAAQhAAAIQgAAEIAABCEAAAhCAAAQgAAEIQAACEIAABCAAAQhAAAIQgAAEIAABCEAAAhCAAAQgAAEIQAACEIAABCAAAQhAAAIQgAAEIAABCEAAAhCAAAQgAAEIQAACEIAABCAAAQhAAAIQgMDBCTwRET8QET8ZEZ+OiF+OiP8aEb8fEX8cEd+IiP93z/5rnl+PiC9HxEsR8XREvOPg6wB7EIDA/STQrm3vi4jPPbzmtWvffbzuv/lwz/u9h3vgv3q4J344Ir4/ItpeeYiv74yIfxwRX3i40d23Df4av+2keC4i3nWIFYAJCEDgvhNo17KPR8TX79kf8K65/rf3tD3g5Yd/WG576J36ancvP/7QwJ8x8Ks/1Xg1Ip69U5NHLAQgAIHHCXwwIr7GPnD1PvCnEfH5B5+YvH/vnww8GRE/ERG/xrCvHvbyjvGbEfFCRDS2fEEAAhC4KwTaHwSfj4h2DVte13h9HZP2LfMP7fHbxO3u5L8zaNlCbx8HcRNwVy596ITA/SbQrlXt275s9BoGvxMRP7qHJfZXI+LnGLRlof/0HgaOBghAAAJnCLQf8mbz1zP4YkT8zTOzkKWfiYj/w6BtC719lNaY8wUBCEBgrwTa9/zZ/H0M2t+g+3vOxfAXI+Jn+d7OkEXefpjm3c5h0wsCEIDARgLtp/3bDy9zA+Bn8C8i4i9snNPVh/3liPiPDHjoAm9/RZAvCEAAAnsj8An2hqF7w3+ICNlfG/yeBx81/CYDHjrgdmf92h5/CnRvVyL0QAACVgLtl/zw9/z9f/Jfftry6xHx3b0n3zb//8nmP3zzn4b9VO8BUw8CEIDADQTab/ibrk88jmXxuxHxXTfM8rG3fkdEtLsKhrofBi8+NiFeQAACEBhL4GfYI3a1R7bfGdC+ZX/TV/uBP77nv5+Nf7oJe+WmqfJmCEAAAn0JtH/PZLo+8bgPFr9y6w8G/nOGustF3X4OgC8IQAACeyHA9//3sekvb77aJzNXfbVf68uvcdznUN+4aqK8CQIQgICGQPsX7pabD6/HM2l7+AcuHflf55f87HoxcwNw6YrmeAhAQEmAG4Dxm/2pG672y4Lab+3d/PUvuZvb9Q0A3wLYvJQ5EAIQMBDgWwD7vQFoNwbtXxTc9PW32fx3vfm3YX5p0yQ5CAIQgICHAD8EuO8bgLZv/Mi5pdB+mQP/qt/+B/nZc4MkDwEIQMBI4CX+4Lj7Pzj+9rl/VfYfMMTdD7Hdyb3HeGLTCgIQgMA5Ak+zd9yJvePZU4N84sFPC/4WQ9z9ENv3/9u/t80XBCAAgb0QaJ8ev87+sfv94zciou316evHGd7uh9f+9P/RNDkCEIAABMYTaP9QWbtG8d++Gbx/bal8gcHtfuF+NSLaP7nJFwQgAIG9EXhnRHyFfWT3+8gvLBdO+ycE/4zB7XpwV/1Ch+WgeQ0BCEBASKB9j5lfILfvTwD+JCLav/Hz6OsfsfnvevNvH6l98tG0eAIBCEBgvwQ+xX6y+/3kH86XDx//7/uOrf0SB37wb75ieQ4BCOyVQLtWvcxNwK5vAn5xWjztJwLbT5bzgxv7Y9A+SnuBzX9aqjxCAAJ3hEDbV57n2wG73Vfb39h4628D/ACb/y6H1H6Y5uJ/xOGOXByQCQEI3A8Cz0TEq+wxu9xjvq8twQ8znF0Np30a0/6qX/uJWr4gAAEI3HUC7Vr2MT5p3tU+0z7x/1BbWJ/mBmDYYNq/oNU2/Fciov163/fycf9dv9ahHwIQOEGg/WzAUxHx4sNrXrv28a8IjvvWc/thzfjlwTcA/zoi/taDRfGXTiwawhCAAAQgAIGjEGh73Q9FxBcH772/1ICO/PW/nzjKRPEBAQhAAAIQuJDATw28CWi/Fjj+YJCA9id/viAAAQhAAAL3mcCoTwJ+v0H/o0E3AO1jf74gAAEIQAAC95nADw/ag/+wQR/1Qxjfdp8njncIQAACEIBARHz7oBuANxr9Ub8AiMlDAAIQgAAEIDBwH+YGgOUHAQhAAAIQGEdg2D48rPE41nSGAAQgAAEI7IbAsH14WOPdoEcIBCAAAQhAYByBYfvwsMbjWNMZAhCAAAQgsBsCw/bhYY13gx4hEIAABCAAgXEEhu3DwxqPY01nCEAAAhCAwG4IDNuHhzXeDXqEQAACEIAABMYRGLYPD2s8jjWdIQABCEAAArshMGwfHtZ4N+gRAgEIQAACEBhHYNg+PKzxONZ0hgAEIAABCOyGwLB9eFjj3aBHCAQgAAEIQGAcgWH78LDG41jTGQIQgAAEILAbAsP24WGNd4MeIRCAAAQgAIFxBIbtw8Maj2NNZwhAAAIQgMBuCAzbh4c13g16hEAAAhCAAATGERi2Dw9rPI41nSEAAQhAAAK7ITBsHx7WeDfoEQIBCEAAAhAYR2DYPjys8TjWdIYABCAAAQjshsCwfXhY492gRwgEIAABCEBgHIFh+/CwxuNY0xkCEIAABCCwGwLD9uFhjXeDHiEQgAAEIACBcQSG7cPDGo9jTWcIQAACEIDAbggM24eHNd4NeoRAAAIQgAAExhEYtg8PazyONZ0hAAEIQAACuyEwbB8e1ng36BECAQhAAAIQGEdg2D48rPE41mc7vyMi3hcRn4uIL0fE6xHxjYf/tect9lJEPB0R7di7/oVf5st6vrtnMefv3T9/h+3Dwxrv8Hx7V0R8PCK+HhFbubQbgucior33rn3h9/ycme/dWdWsZ9bz8rp9V87fpW7X680bXW9Be7usfDAivnbBxr/k8WpEPLs3U4Ue/J6/WM5nzHyLxbSDFOuZ9Tw/X5fP937+LvW6Xt/7G4AnHly8no+Ib96w+U/DajVeiIgnd3BBPCUBv5ddKKfZtkfme2pVjYuznlnP83O0er7n87fSrczd6xuAtlF/ocPGvxzQyzu9CcDv9RfL+YyZ77gNf96Z9cx6np+XW5/v8fzdqr33cff6BuDTgs1/GtBPz69UO3mO3z4XzDZj5jt+UbOeWc/T9fbSx72dv5fq73X8vb0BaN8z7AVxrU77uOmZ8dfIRwrw23fezPfR0hryhPXMel677m6N7e383aq793HSTbASO+Sq8bBp+2nh9kMhlb4eufZDhe8eaRS/0hkz3zGLm/NXc+1iPY9Zz61rj/3mmhrjGo9jHZ8wAm9/RXD0F351Jxjz9a9u1jPr+ZrNbu09ezh/2xm0ps0RG9fYf914q2P7pRmX/D3/W4fw2uBfFoRf7cnFfL0nMuuZ9XzrNXn+/tHn73T2zDU5n9+7G4AfHHC39dQ05QGP+NVeMNvJynx9C5v1zHruvUGOPH+nM6e3p6317t0NwM8MuAF4cZrygEf86i+YzNe3sFnPrOetm9vW40aev9OZs1Vr7+Pu3Q3Arw64AXhlmvKAR/zqL5jM17ewWc+s596b4MjzdzpzenvaWu/e3QA4v/8/DaF9n2nUF371F0zm61vdrGfW83Rd7fU48vydzpxeXi6tc+9uAN4c8AnAG9OUBzziV3/BZL6+hc16Zj1fusmdO37k+TudOec0qvL37gZABfJc3WnQ7sdzulR5t8+pn8rPubpTf/fjOV2qvNvn1E/l51zdqb/78ZwuVd7tc+qn8nOu7tR/1OM5fao8NwCmTwTu3cIaZFh1opyrO8gu5y/nr2QNsJ69BM5dX1R5yeLZItaL9+1uW7QpjnlbgfeZwsuWml6Xb3fbok1xzNsKvM8UXrbU9Lp8u9sWbYpj3lbgfabwsqWm1+Xb3bZoUxzztoIxzxSettTkBoA/QUjWwJjTSP/90VMnFX49BE7xV8c97nIXta9T9bMST+SUHnXc4+50F7W/U/UlF/9Tzebx0yi0mbkG53Otq9PVnR7nvU4r0mbmGpzPta5OV3d6nPc6rUibmWtwPte6Ol3d6XHe67QibWauwflc6+p8dafXeS9uAPgEQLIGzi95zRHzxe18rnFzvqrT47zXeWWaI+YanM81bs5XdXqc9zqvTHPEXIPzucbN9qpOr/Nekov/vMGp59vR9D3ylB51vK+L7dXUvk7V366w75Gn9KjjfV1sr6b2dar+doV9jzylRx3v62J7NbWvU/W3K+x75Ck96nhfF5dXU/s7VZ8bAD4BkKyBy0+BPu84tdDV8T7qL6+i9nWq/uVK+7zjlB51vI/6y6uofZ2qf7nSPu84pUcd76P++ipqf6fqSy7+p5rN49ejuu2dcw3O57epvv7dTo/zXtcrvu2dcw3O57epvv7dTo/zXtcrvu2dcw3O57epvv7dTo/zXtcrvu2dcw3O57epvv3dTq/zXtwA8AmAZA3cfkpcV2G+uJ3Pr1N7+7ucHue9bld+XYW5Bufz69Te/i6nx3mv25VfV2Guwfn8OrX93uX0Ou8lufjPG5x63g/dZZVO6VHHL1PZ72i1r1P1+zm4rNIpPer4ZSr7Ha32dap+PweXVTqlRx2/TGW/o9W+TtXv5+CySqf0qOOXqex/tNrfqfrcAPAJgGQN9D9FtlU8tdDV8W3q+h+l9nWqfn8n2yqe0qOOb1PX/yi1r1P1+zvZVvGUHnV8mzrdUWp/p+pLLv6nms3jOpR15bkG5/NalS7r9DjvpXNUV55rcD6vVemyTo/zXjpHdeW5BufzWpUu6/Q476VzVFeea3A+r1Xps06v817cAPAJgGQN6E+Z9Q7zxe18vq5GH3V6nPfSO1vvMNfgfL6uRh91epz30jtb7zDX4Hy+rsYXdXqd95Jc/OcNTj33oX280yk96vjjKnyv1L5O1fc5fLzTKT3q+OMqfK/Uvk7V9zl8vNMpPer44yp8r9S+TtX3OXy80yk96vjjKvyv1P5O1ecGgE8AJGvAfwp9q+Opha6O49dDQD3HU/U97nKXU3rU8azEE1H7OlXf4+50l1O61HHJxX+L6NMotJkt2hTHaF2drq7wsqXmaUXazBZtimO0rk5XV3jZUvO0Im1mizbFMVpXp6srvGypeVqRNrNFm+IYravz1RWettTkBoBPACRr4PyS1xyxZdErjtG4OV9V4WVLzfPKNEds0aY4RuPmfFWFly01zyvTHLFFm+IYjZvtVRWettSUXPw3Nd7OpuuRW7Qpjulq4oJiCi9bal4gseuhW7Qpjulq4oJiCi9bal4gseuhW7Qpjulq4oJiCi9bal4gseuhW7Qpjulq4opiCk9basabpj8Bz8W8cQWgXm+Z63A+76X/0jpOj/Nel+rsdfxcg/N5L/2X1nF6nPe6VGev4+canM976b+0jtPjvNelOnsdP9fgfN5L/7V1hu3DXx9wA/DatZQ6vM+5qOa9Oki/qsRcg/P5VWI7vMnpcd6rg/SrSsw1OJ9fJbbDm5we5706SL+qxFyD8/lVYju8yelx3quD9JtKDNuHvzzgBuBLN6G67c3zoTuf36b6+nc7Pc57Xa/4tnfONTif36b6+nc7Pc57Xa/4tnfONTif36b6+nc7Pc57Xa/4tnfONTif36b69ncP24dfGnAD8JnbeV1dwbmo5r2uFnzjG+canM9vlH31250e572uFnzjG+canM9vlH31250e572uFnzjG+canM9vlH31250e572uFtzpjcP24acH3AC8pxO0a8rMh+58fo3WHu9xepz36qH9mhpzDc7n12jt8R6nx3mvHtqvqTHX4Hx+jdYe73F6nPfqof2aGnMNzufXaO35nmH78Dsi4nXjTUD7/v+TPcldWMu5qOa9LpTZ7fC5BufzbgYuLOT0OO91ocxuh881OJ93M3BhIafHea8LZXY7fK7B+bybgQsLOT3Oe10os/vhQ/fh54w3AB/pju6ygvOhO59fprLf0U6P8179HFxWaa7B+fwylf2Odnqc9+rn4LJKcw3O55ep7He00+O8Vz8Hl1Waa3A+v0yl5uhh+/A7I+IrhpuAr0bEuzTsNld1Lqp5r80COx841+B83tnG5nJOj/NemwV2PnCuwfm8s43N5Zwe5702C+x84FyD83lnG5vLOT3Oe20WKDxw6D78bER8U3gT0Gp/QAhva+n50J3Pt+rrfZzT47xXbx9b6801OJ9v1df7OKfHea/ePrbWm2twPt+qr/dxTo/zXr19bK031+B8vlWf+rih+/CnhDcAn1ST21jfuajmvTbK637YXIPzeXcjGws6Pc57bZTX/bC5Bufz7kY2FnR6nPfaKK/7YXMNzufdjWws6PQ477VRnuWwYftw++G8lwU3AZ8f/IN/86nNh+58PtfgfO70OO/l9DjvNdfgfD7X4Hzu9Djv5fQ47zXX4Hw+1+B87vQ47+X0OO811+B8Ptcw+vnQffiJB+6f7/TtgPax/ws72vzbYJ2Lat5r1KKaa3A+x6+HgHOm814ed7nLXIPzeVbiiTg9znt53OUucw3O51nJ2MjwffiZiHj1hg2z/VDhHr7nvxyjc1HNey11uF7PNTifu/wt+zg9znstdbhezzU4n7v8Lfs4Pc57LXW4Xs81OJ+7/C37OD3Oey117OX10H24/VTixyKi/d39OazqeTv2ow/+5N/eu8evSrsyN4qF0lNVG78eAtUMlDmPu9xF6amqnZV4IpUmZc7jLndReqpqZyX7iQzfh9v3JJ6KiBcj4pWHNwTtXy9q/7UNv8U+GxHv3dnH/WsjrBaBMremxRFTeqpqO7yt9ag0KXNrWhwxpaeqtsPbWo9KkzK3psURU3qqaju8rfWoNClza1r2FjvSPjyMrXIRVbVHGa40KXP49RBQzrCq7XGXu1SalLmsxBNReqpqe9zlLpUmZS4rIXJIAspFVNUeBbPSpMzh10NAOcOqtsdd7lJpUuayEk9E6amq7XGXu1SalLmshMghCSgXUVV7FMxKkzKHXw8B5Qyr2h53uUulSZnLSjwRpaeqtsdd7lJpUuayEiKHJKBcRFXtUTArTcocfj0ElDOsanvc5S6VJmUuK/FElJ6q2h53uUulSZnLSogckoByEVW1R8GsNClz+PUQUM6wqu1xl7tUmpS5rMQTUXqqanvc5S6VJmUuKyFySALKRVTVHgWz0qTM4ddDQDnDqrbHXe5SaVLmshJPROmpqu1xl7tUmpS5rITIIQkoF1FVexTMSpMyh18PAeUMq9oed7lLpUmZy0o8EaWnqrbHXe5SaVLmshIihySgXERV7VEwK03KHH49BJQzrGp73OUulSZlLivxRJSeqtoed7lLpUmZy0qIHJKAchFVtUfBrDQpc/j1EFDOsKrtcZe7VJqUuazEE1F6qmp73OUulSZlLishckgCykVU1R4Fs9KkzOHXQ0A5w6q2x13uUmlS5rIST0TpqartcZe7VJqUuayEyCEJKBdRVXsUzEqTModfDwHlDKvaHne5S6VJmctKPBGlp6q2x13uUmlS5rISIockoFxEVe1RMCtNyhx+PQSUM6xqe9zlLpUmZS4r8USUnqraHne5S6VJmctKiBySgHIRVbVHwaw0KXP49RBQzrCq7XGXu1SalLmsxBNReqpqe9zlLpUmZS4rIXJIAspFVNUeBbPSpMzh10NAOcOqtsdd7lJpUuayEk9E6amq7XGXu1SalLmshMghCSgXUVV7FMxKkzKHXw8B5Qyr2h53uUulSZnLSjwRpaeqtsdd7lJpUuayEiKHJKBcRFXtUTArTcocfj0ElDOsanvc5S6VJmUuK/FElJ6q2h53uUulSZnLSogckoByEVW1R8GsNClz+PUQUM6wqu1xl7tUmpS5rMQTUXqqanvc5S6VJmUuKyFySALKRVTVHgWz0qTM4ddDQDnDqrbHXe5SaVLmshJPROmpqu1xl7tUmpS5rITIIQkoF1FVexTMSpMyh18PAeUMq9oed7lLpUmZy0o8EaWnqrbHXe5SaVLmshIihySgXERV7VEwK03KHH49BJQzrGp73OUulSZlLivxRJSeqtoed7lLpUmZy0qIHJKAchFVtUfBrDQpc/j1EFDOsKrtcZe7VJqUuazEE1F6qmp73OUulSZlLishckgCykVU1R4Fs9KkzOHXQ0A5w6q2x13uUmlS5rIST0TpqartcZe7VJqUuayEyCEJKBdRVXsUzEqTModfDwHlDKvaHne5S6VJmctKPBGlp6q2x13uUmlS5rISIockoFxEVe1RMCtNyhx+PQSUM6xqe9zlLpUmZS4r8USUnqraHne5S6VJmctKiBySgHIRVbVHwaw0KXP49RBQzrCq7XGXu1SalLmsxBNReqpqe9zlLpUmZS4rIXJIAspFVNUeBbPSpMzh10NAOcOqtsdd7lJpUuayEk9E6amq7XGXu1SalLmshMghCSgXUVV7FMxKkzKHXw8B5Qyr2h53uUulSZnLSjwRpaeqtsdd7lJpUuayEiKHJKBcRFXtUTArTcocfj0ElDOsanvc5S6VJmUuK/FElJ6q2h53uUulSZnLSogckoByEVW1R8GsNClz+PUQUM6wqu1xl7tUmpS5rMQTUXqqanvc5S6VJmUuKyFySALKRVTVHgWz0qTM4ddDQDnDqrbHXe5SaVLmshJPROmpqu1xl7tUmpS5rITIIQkoF1FVexTMSpMyh18PAeUMq9oed7lLpUmZy0o8EaWnqrbHXe5SaVLmshIihySgXERV7VEwK03KHH49BJQzrGp73OUulSZlLivxRJSeqtoed7lLpUmZy0qIHJKAchFVtUfBrDQpc/j1EFDOsKrtcZe7VJqUuazEE1F6qmp73OUulSZlLishckgCykVU1R4Fs9KkzOHXQ0A5w6q2x13uUmlS5rIST0TpqartcZe7VJqUuayEyCEJKBdRVXsUzEqTModfDwHlDKvaHne5S6VJmctKPBGlp6q2x13uUmlS5rISIockoFxEVe1RMCtNyhx+PQSUM6xqe9zlLpUmZS4r8USUnqraHne5S6VJmctKiBySgHIRVbVHwaw0KXP49RBQzrCq7XGXu1SalLmsxBNReqpqe9zlLpUmZS4rIXJIAspFVNUeBbPSpMzh10NAOcOqtsdd7lJpUuayEk9E6amq7XGXu1SalLmshMghCSgXUVV7FMxKkzKHXw8B5Qyr2h53uUulSZnLSjwRpaeqtsdd7lJpUuayEiKHJKBcRFXtUTArTcocfj0ElDOsanvc5S6VJmUuK/FElJ6q2h53uUulSZnLSogckoByEVW1R8GsNClz+PUQUM6wqu1xl7tUmpS5rMQTUXqqanvc5S6VJmUuKyFySALKRVTVHgWz0qTM4ddDQDnDqrbHXe5SaVLmshJPROmpqu1xl7tUmpS5rITIIQkoF1FVexTMSpMyh18PAeUMq9oed7lLpUmZy0o8EaWnqrbHXe5SaVLmshIihySgXERV7VEwK03KHH49BJQzrGp73OUulSZlLivxRJSeqtoed7lLpUmZy0qIHJKAchFVtUfBrDQpc/j1EFDOsKrtcZe7VJqUuazEE1F6qmp73OUulSZlLishckgCykVU1R4Fs9KkzOHXQ0A5w6q2x13uUmlS5rIST0TpqartcZe7VJqUuayEyCEJKBdRVXsUzEqTModfDwHlDKvaHne5S6VJmctKPBGlp6q2x13uUmlS5rISIockoFxEVe1RMCtNyhx+PQSUM6xqe9zlLpUmZS4r8USUnqraHne5S6VJmctKiBySgHIRVbVHwaw0KXP49RBQzrCq7XGXu1SalLmsxBNReqpqe9zlLpUmZS4rIXJIAspFVNUeBbPSpMzh10NAOcOqtsdd7lJpUuayEk9E6amq7XGXu1SalLmshMghCSgXUVV7FMxKkzKHXw8B5Qyr2h53uUulSZnLSjwRpaeqtsdd7lJpUuayEiKHJKBcRFXtUTArTcocfj0ElDOsanvc5S6VJmUuK/FElJ6q2h53uUulSZnLSogckoByEVW1R8GsNClz+PUQUM6wqu1xl7tUmpS5rMQTUXqqanvc5S6VJmUuKyFySALKRVTVHgWz0qTM4ddDQDnDqrbHXe5SaVLmshJPROmpqu1xl7tUmpS5rITIIQkoF1FVexTMSpMyh18PAeUMq9oed7lLpUmZy0o8EaWnqrbHXe5SaVLmshIihySgXERV7VEwK01P1NBaAAAgAElEQVTKHH49BJQzrGp73OUulSZlLivxRJSeqtoed7lLpUmZy0qIHJKAchFVtUfBrDQpc/j1EFDOsKrtcZe7VJqUuazEE1F6qmp73OUulSZlLishckgCykVU1R4Fs9KkzOHXQ0A5w6q2x13uUmlS5rIST0TpqartcZe7VJqUuayEyCEJKBdRVXsUzEqTModfDwHlDKvaHne5S6VJmctKPBGlp6q2x13uUmlS5rISIockoFxEVe1RMCtNyhx+PQSUM6xqe9zlLpUmZS4r8USUnqraHne5S6VJmctKiBySgHIRVbVHwaw0KXP49RBQzrCq7XGXu1SalLmsxBNReqpqe9zlLpUmZS4rIXJIAspFVNUeBbPSpMzh10NAOcOqtsdd7lJpUuayEk9E6amq7XGXu1SalLmshMghCSgXUVV7FMxKkzKHXw8B5Qyr2h53uUulSZnLSjwRpaeqtsdd7lJpUuayEiKHJKBcRFXtUTArTcocfj0ElDOsanvc5S6VJmUuK/FElJ6q2h53uUulSZnLSogckoByEVW1R8GsNClz+PUQUM6wqu1xl7tUmpS5rMQTUXqqanvc5S6VJmUuKyFySALKRVTVHgWz0qTM4ddDQDnDqrbHXe5SaVLmshJPROmpqu1xl7tUmpS5rITIIQkoF1FVexTMSpMyh18PAeUMq9oed7lLpUmZy0o8EaWnqrbHXe5SaVLmshIihySgXERV7VEwK03KHH49BJQzrGp73OUulSZlLivxRJSeqtoed7lLpUmZy0qIHJKAchFVtUfBrDQpc/j1EFDOsKrtcZe7VJqUuazEE1F6qmp73OUulSZlLishckgCykVU1R4Fs9KkzOHXQ0A5w6q2x13uUmlS5rIST0TpqartcZe7VJqUuayEyCEJKBdRVXsUzEqTModfDwHlDKvaHne5S6VJmctKPBGlp6q2x13uUmlS5rISIockoFxEVe1RMCtNyhx+PQSUM6xqe9zlLpUmZS4r8USUnqraHne5S6VJmctKiBySgHIRVbVHwaw0KXP49RBQzrCq7XGXu1SalLmsxBNReqpqe9zlLpUmZS4rIXJIAspFVNUeBbPSpMzh10NAOcOqtsdd7lJpUuayEk9E6amq7XGXu1SalLmshMghCSgXUVV7FMxKkzKHXw8B5Qyr2h53uUulSZnLSjwRpaeqtsdd7lJpUuayEiKHJKBcRFXtUTArTcocfj0ElDOsanvc5S6VJmUuK/FElJ6q2h53uUulSZnLSogckoByEVW1R8GsNClz+PUQUM6wqu1xl7tUmpS5rMQTUXqqanvc5S6VJmUuKyFySALKRVTVHgWz0qTM4ddDQDnDqrbHXe5SaVLmshJPROmpqu1xl7tUmpS5rITIIQkoF1FVexTMSpMyh18PAeUMq9oed7lLpUmZy0o8EaWnqrbHXe5SaVLmshIihySgXERV7VEwK03KHH49BJQzrGp73OUulSZlLivxRJSeqtoed7lLpUmZy0qIHJKAchFVtUfBrDQpc/j1EFDOsKrtcZe7VJqUuazEE1F6qmp73OUulSZlLishckgCykVU1R4Fs9KkzOHXQ0A5w6q2x13uUmlS5rIST0TpqartcZe7VJqUuayEyCEJKBdRVXsUzEqTModfDwHlDKvaHne5S6VJmctKPBGlp6q2x13uUmlS5rISIockoFxEVe1RMCtNyhx+PQSUM6xqe9zlLpUmZS4r8USUnqraHne5S6VJmctKiBySgHIRVbVHwaw0KXP49RBQzrCq7XGXu1SalLmsxBNReqpqe9zlLpUmZS4rIXJIAspFVNUeBbPSpMzh10NAOcOqtsdd7lJpUuayEk9E6amq7XGXu1SalLmshMghCSgXUVV7FMxKkzKHXw8B5Qyr2h53uUulSZnLSjwRpaeqtsdd7lJpUuayEiKHJKBcRFXtUTArTcocfj0ElDOsanvc5S6VJmUuK/FElJ6q2h53uUulSZnLSogckoByEVW1R8GsNClz+PUQUM6wqu1xl7tUmpS5rMQTUXqqanvc5S6VJmUuKyFySALKRVTVHgWz0qTM4ddDQDnDqrbHXe5SaVLmshJPROmpqu1xl7tUmpS5rITIIQkoF1FVexTMSpMyh18PAeUMq9oed7lLpUmZy0o8EaWnqrbHXe5SaVLmshIihySgXERV7VEwK03KHH49BJQzrGp73OUulSZlLivxRJSeqtoed7lLpUmZy0qIHJKAchFVtUfBrDQpc/j1EFDOsKrtcZe7VJqUuazEE1F6qmp73OUulSZlLishckgCykVU1R4Fs9KkzOHXQ0A5w6q2x13uUmlS5rIST0TpqartcZe7VJqUuayEyCEJKBdRVXsUzEqTModfDwHlDKvaHne5S6VJmctKPBGlp6q2x13uUmlS5rISIockoFxEVe1RMCtNyhx+PQSUM6xqe9zlLpUmZS4r8USUnqraHne5S6VJmctKiBySgHIRVbVHwaw0KXP49RBQzrCq7XGXu1SalLmsxBNReqpqe9zlLpUmZS4rIXJIAspFVNUeBbPSpMzh10NAOcOqtsdd7lJpUuayEk9E6amq7XGXu1SalLmshMghCSgXUVV7FMxKkzKHXw8B5Qyr2h53uUulSZnLSjwRpaeqtsdd7lJpUuayEiKHJKBcRFXtUTArTcocfj0ElDOsanvc5S6VJmUuK/FElJ6q2h53uUulSZnLSogckoByEVW1R8GsNClz+PUQUM6wqu1xl7tUmpS5rMQTUXqqanvc5S6VJmUuKyFySALKRVTVHgWz0qTM4ddDQDnDqrbHXe5SaVLmshJPROmpqu1xl7tUmpS5rITIIQkoF1FVexTMSpMyh18PAeUMq9oed7lLpUmZy0o8EaWnqrbHXe5SaVLmshIihySgXERV7VEwK03KHH49BJQzrGp73OUulSZlLivxRJSeqtoed7lLpUmZy0qIHJKAchFVtUfBrDQpc/j1EFDOsKrtcZe7VJqUuazEE1F6qmp73OUulSZlLishckgCykVU1R4Fs9KkzOHXQ0A5w6q2x13uUmlS5rIST0TpqartcZe7VJqUuayEyCEJKBdRVXsUzEqTModfDwHlDKvaHne5S6VJmctKPBGlp6q2x13uUmlS5rISIockoFxEVe1RMCtNyhx+PQSUM6xqe9zlLpUmZS4r8USUnqraHne5S6VJmctKiBySgHIRVbVHwaw0KXP49RBQzrCq7XGXu1SalLmsxBNReqpqe9zlLpUmZS4rIXJIAspFVNUeBbPSpMzh10NAOcOqtsdd7lJpUuayEk9E6amq7XGXu1SalLmshMghCSgXUVV7FMxKkzKHXw8B5Qyr2h53uUulSZnLSjwRpaeqtsdd7lJpUuayEiKHJKBcRFXtUTArTcocfj0ElDOsanvc5S6VJmUuK/FElJ6q2h53uUulSZnLSogckoByEVW1R8GsNClz+PUQUM6wqu1xl7tUmpS5rMQTUXqqanvc5S6VJmUuKyFySALKRVTVHgWz0qTM4ddDQDnDqrbHXe5SaVLmshJPROmpqu1xl7tUmpS5rITIIQkoF1FVexTMSpMyh18PAeUMq9oed7lLpUmZy0o8EaWnqrbHXe5SaVLmshIihySgXERV7VEwK03KHH49BJQzrGp73OUulSZlLivxRJSeqtoed7lLpUmZy0qIHJKAchFVtUfBrDQpc/j1EFDOsKrtcZe7VJqUuazEE1F6qmp73OUulSZlLishckgCykVU1R4Fs9KkzOHXQ0A5w6q2x13uUmlS5rIST0TpqartcZe7VJqUuayEyCEJKBdRVXsUzEqTModfDwHlDKvaHne5S6VJmctKPBGlp6q2x13uUmlS5rISIockoFxEVe1RMCtNyhx+PQSUM6xqe9zlLpUmZS4r8USUnqraHne5S6VJmctKiBySgHIRVbVHwaw0KXP49RBQzrCq7XGXu1SalLmsxBNReqpqe9zlLpUmZS4rIXJIAspFVNUeBbPSpMzh10NAOcOqtsdd7lJpUuayEk9E6amq7XGXu1SalLmshMghCSgXUVV7FMxKkzKHXw8B5Qyr2h53uUulSZnLSjwRpaeqtsdd7lJpUuayEiKHJKBcRFXtUTArTcocfj0ElDOsanvc5S6VJmUuK/FElJ6q2h53uUulSZnLSogckoByEVW1R8F8MyIqXYrcG6PMDvA68Rtl+b7NF7/685nzd9TZTF85gemC7X6UGzvR4OsDNsXXTmhxhN1znfo5vK31uG/zxa/+BoDzd+1MI3YIAtMF2/04Ct6XB9wAfGmU2QFep3U0yvJ9my9+9TcAnL+jzmb6yglMF2z3o9zYiQYvDdgUP3NCiyPsnuvUz+Ftrcd9my9+9TcAnL9rZxqxQxCYLtjux1Hwnh5wA/CeUWYHeJ3W0SjL922++NXfAHD+jjqb6SsnMF2w3Y9yYycavCMiXjdujO37h0+e0OIIu+c69XN4W+tx3+aLX+0NAOfv2llG7DAEpgu2+3EkwOeMNwAfGWnU6HO5fkbavk/zbZzxq7sJ4PwdeSbTW05geeF2vZYbKxq8MyK+YtgcvxoR7yp0OFKueS77OLyd6nGf5tsY4FdzA8D5e+oMI34YAssLt+v1aIDPRsQ3hTcBrfYHRpsU+ju3TkZbvy/znTjjt+9NAOfvtLJ4PDSBcxdyVX4PUD8l3CA/uQeDQn/n1sUe7N+H+c4547ffTQDn73xl8fywBM5dyFX5PQBtP5z3smCT/PzgH/ybs1XN71zduYZRz+/DfOds8dvnBoDzd76qeH5oAucu5Kr8XqA+8UDI852+HdA+NnxhR5t/Y6ya37m6zHcMgaOv5yXVo/s9d56p8kvOvD4oAdUCOld3bzifiYhXb9gw2w8V7uF7/kuu5+agyi91jH591Pme4orfy25+OX8f53VqXRE/GAHVBnCu7h4xtp+m/lhEtL/7e07/lG/HfvThT2Lv0dOk0/24RxZHnG/FGb/nz2PO33VG1boidyAC7o1h6rdnhO17qU9FxIsR8crDG4L2r661/9oFo8U+GxHv3dnH/WtMJ97uxzUte4kdab5bmOL3W+cu5+/6Zr92bdiyrjjmAATWhu+IHQDdnbDgmOVajzsBB5EQ2DmBtXPLEds5FuT1IuBYTGs9eumnTk1gjb0jVqsiCwEIbCHgOFfXemzRxjEHILA2fEfsAOjuhAXHLNd63Ak4iITAzgmsnVuO2M6xIK8XAcdiWuvRSz91agJr7B2xWhVZCEBgCwHHubrWY4s2jjkAgbXhO2IHQHcnLDhmudbjTsBBJAR2TmDt3HLEdo4Feb0IOBbTWo9e+qlTE1hj74jVqshCAAJbCDjO1bUeW7RxzAEIrA3fETsAujthwTHLtR53Ag4iIbBzAmvnliO2cyzI60XAsZjWevTST52awBp7R6xWRRYCENhCwHGurvXYoo1jDkBgbfiO2AHQ3QkLjlmu9bgTcBAJgZ0TWDu3HLGdY0FeLwKOxbTWo5d+6tQE1tg7YrUqshCAwBYCjnN1rccWbRxzAAJrw3fEDoDuTlhwzHKtx52Ag0gI7JzA2rnliO0cC/J6EXAsprUevfRTpyawxt4Rq1WRhQAEthBwnKtrPbZo45gDEFgbviN2AHR3woJjlms97gQcREJg5wTWzi1HbOdYkNeLgGMxrfXopZ86NYE19o5YrYosBCCwhYDjXF3rsUUbxxyAwNrwHbEDoLsTFhyzXOtxJ+AgEgI7J7B2bjliO8eCvF4EHItprUcv/dSpCayxd8RqVWQhAIEtBBzn6lqPLdo45gAE1obviB0A3Z2w4JjlWo87AQeRENg5gbVzyxHbORbk9SLgWExrPXrpp05NYI29I1arIgsBCGwh4DhX13ps0cYxByCwNnxH7ADo7oQFxyzXetwJOIiEwM4JrJ1bjtjOsSCvFwHHYlrr0Us/dWoCa+wdsVoVWQhAYAsBx7m61mOLNo45AIG14TtiB0B3Jyw4ZrnW407AQSQEdk5g7dxyxHaOBXm9CDgW01qPXvqpUxNYY++I1arIQgACWwg4ztW1Hlu0ccwBCKwN3xE7ALo7YcExy7UedwIOIiGwcwJr55YjtnMsyOtFwLGY1nr00k+dmsAae0esVkUWAhDYQsBxrq712KKNYw5AYG34jtgB0N0JC45ZrvW4E3AQCYGdE1g7txyxnWNBXi8CjsW01qOXfurUBNbYO2K1KrIQgMAWAo5zda3HFm0ccwACa8N3xA6A7k5YcMxyrcedgINICOycwNq55YjtHAvyehFwLKa1Hr30U6cmsMbeEatVkYUABLYQcJyraz22aOOYAxBYG74jdgB0d8KCY5ZrPe4EHERCYOcE1s4tR2znWJDXi4BjMa316KWfOjWBNfaOWK2KLAQgsIWA41xd67FFG8ccgMDa8B2xA6C7ExYcs1zrcSfgIBICOyewdm45YjvHMlbeOyLifRHxuYj4ckS8HhHfePhfe95iL0XE0xHRjt3zl2MxrfXYM5MjaVtj74gdiSFeIDCKgONcXesxyu8lfe378Lsi4uMR8fWIWIO2Fms3BM9FRHvvHr/WNDtie2RxRE2OWa71OCJLPEHATWDt3HLE3D4v6TdkH/5gRHztgo1/OaRXI+LZS1yajl3qdL022buqjf3O8iqV297kmueyzzZ1Y4460ny3EMQvn9Auz89zr7esqxHH2PfhJx64fD4ivnnD5j/BbjVeiIgnR5A70XPS5n48IWdoeMidpdixe65TP7Gtq8ofcb4VCPye/6SWT2jXGVXrakRuyD7cNuovdNj4p4vi9Pjyjm4CJk3uxxGLqOppv7OsxHTMuec69etooUupo873FBz8rm9s0/pcPvIJ7eO8Tq2rEfFh+/CnBZv/tPB+egTJlZ6THvfjipQhoSF3lkan7rlO/YwWy1ZHn+/SPH4f38im9bjlkU9o32a3XFcjXw/Zh9sd9JZFc+0xbbE9M5Lqw97X6r/1fTuw/ta3YviER7POma+fwLA/KfmtvtXxPvi99Tp77fsHjTS1HbIPt++dtY+EroW39X3thwrfnSx7A1u19j7O63K925A7y3UpsmjvuW2tJzN0QeH7MN85Dvz2u2bzCe18ZY15Pmwf/oRh858upO2vCI78mnS4H0d6br2H3FkOMO2e69RvgNXHWt6X+U6m8dtv829rmE9op5U17nHIPtz+yswlf89/uuBd+/ja4F8WdK3uW983bll963cy8AlP3wvmcj0wXx+BYX9S8ll8rNN98rs8r1yvHwM+4MWwffgHjX/6n4b51ADAU8tJg/tx6j/iccid5QijA9bytI4G2X2r7X2abzOMX93NLJ/QjjmTh+3DPzPgovniGMZvdZ0u2O7HUZaH3VkOMuye69RvkN23fvX2ffoE776t5/vmdzqf3I+jzt+p77B9+FcH3AC8Mrke8OheWFO/AVbfajnsznKQ4Ym3+3GQ3bhv88Wv7k//0znDJ7T+s3nYPuz808O0wNrPAYz6mjS4H0f5HXZnOciwe65Tv0F2477NF7/6GwA+ofWfzcP24TcHfALwhp/vo47TBdv9+EiA+cmwO0uzz6mde65Tv6m/+/G+zRe/+hsAPqF1n8URw/bh6QLmfvQj/lZHt8+p3yi/w+4sBxmeeLsfB9m1/g2eienIT/Du23q+b36nNeZ+HHX+Tn3dfqd+8l/+MzVaPk7G3Y9LHa7Xbp9Tv2F3lpMA86Nrnss+ZpuP2t23+eJX/wkAn9A+Or1sT5bXE9drbgBM3wKxraRFI9dCWvZZyLC9XOpwvbYZXDRy+Vv2WciwvVzqcL22GVw0cvlb9lnIsL1c6nC9thk80cjlc9mHGwBuACRr4MQ6l4eXC9z1Wm7sRAOXv2WfE3Lk4aUO12u5sRMNXP6WfU7IkYeXOlyv5cbONHD5XPaRXPyXTdZen+EhS69pccRkhs4Udnhb63FGliy9psURkxk6U9jhba3HGVmy9JoWR0xm6Exhh7e1HmdkydJrWhwxmaGNhR0e13pwA8AnAJI1sHHddz9sbZE7Yt2NbCzo8LbWY6O87oetaXHEuhvZWNDhba3HRnndD1vT4oh1N3JhQYfHtR6Si/9ao2XsQj7dDl/qcL3uZuDCQi5/yz4Xyux2+FKH63U3AxcWcvlb9rlQZrfDlzpcr7sZuLCQy9+yz4Uyux2+1OF63c3AlYVcPpd9uAHgEwDJGrjyPLj5bcsF7np9s/ArC7j8LftcKffmty11uF7fLPzKAi5/yz5Xyr35bUsdrtc3C7+xgMvnso/k4r9ssvb6Rl5Xv31NiyN2teAb3+jwttbjRtlXv31NiyN2teAb3+jwttbjRtlXv31NiyN2teAb3+jwttbjRtlXv31NiyN2teBOb3R4XOvBDQCfAEjWQKfz4uIya4vcEbtYaKc3OLyt9egk/+Iya1ocsYuFdnqDw9taj07yLy6zpsURu1ho5zc4PK71kFz81xotY535bS631OF6vVlg5wNd/pZ9OtvYXG6pw/V6s8DOB7r8Lft0trG53FKH6/VmgZ0PdPlb9ulsY3O5pQ7X680CRQe6fC77cAPAJwCSNSA6T86WXS5w1+uzwkQHuPwt+4jsnC271OF6fVaY6ACXv2UfkZ2zZZc6XK/PChMf4PK57CO5+C+brL0W8zxZfk2LI3ZSkDjh8LbWQ2zrZPk1LY7YSUHihMPbWg+xrZPl17Q4YicFiRMOb2s9xLZOll/T4oidFGRKODyu9eAGgE8AJGvAdN6kNmuL3BFLQkwBh7e1HiZ7qc2aFkcsCTEFHN7WepjspTZrWhyxJMQccHhc6yG5+K81WsbMfB+1W+pwvX4kwPzE5W/Zx2zzUbulDtfrRwLMT1z+ln3MNh+1W+pwvX4kwPzE5W/Zx2zzUbulDtfrRwIGPXH5XPbhBoBPACRrYNB5JPGyPGnWXuPXQ2CNvSPmcZe7OLyt9chKPJE1LY6Yx93pLg6Paz24YHIDIFkDp5e6NrO2yB0xravT1R3e1nqcVqTNrGlxxLSuTld3eFvrcVqRNrOmxRHTujpf3eFxrYfk4r/WaBk7j0RzxFKH67XGzfmqLn/LPueVaY5Y6nC91rg5X9Xlb9nnvDLNEUsdrtcaN+eruvwt+5xXpjliqcP1WuNme1WXz2UfbgD4BECyBrYv/b5HLhe463VfF9urufwt+2xX2PfIpQ7X674utldz+Vv22a6w75FLHa7XfV1cXs3lc9lHcvFfNll7fTmiPu9407Thzz2/0Uf6VVXwG/I1znyvWppXvYn1zHqeX1t7PB95/k4nQQ8f19SQXxxPiZqMux+/PuAG4DW3yVk//OovmMx3tuDET1nPrOdTe8q18ZHn73S6XKv91vfduxuALw+4AfjSNOUBj/jVXzCZr29hs55Zz7duesv3jzx/pzNnqcn1+t7dALw04AbgM9OUBzziV3/BZL6+hc16Zj333hxHnr/TmdPb09Z69+4G4OkBNwDvmaY84BG/+gsm8/UtbNYz63nr5rb1uJHn73TmbNXa+7h7dwPwjoh43XgT0L6/9OQ05QGP+NVeMJmvd1GznlnPPTfB0efvdPb09HRJrXt3A9CAP2e8AfjINOGBj/jVXTSZr39hs55Zz5dsctWxezh/2xlUaVTmxjX2XzcedXxnRHzFAP2rEfGuR13HPcGv5gRjvmPWNOuZ9dxjU9zL+dvOoh5+rqkxrvGYa8ejrs9GxDeF4FvtDzzqNv4JfvueZMx37JpmPbOer9nwpvfs7fyddLkf7+0NQLt8fUp4A/DJsdfH1e747XfRZL6rS8waZD2znq/dMPd2/l7r49b33esbgPbDeS8LbgI+P/gH/05dhfHb54LJfE+tMG+c9cx6vmYD3OP5e42PHu+51zcA7XL1xIP/Pd/p2wHtY6UXdrr5T5dm/F5/0WS+0yrazyPrmfW8dSPc8/m71UPv4+79DcB0KXsmIl694dOA9kOFe/qe/+Tr1CN+L7twMt9TK2kfcdYz67naHPd+/lbalTluAGbXr/bTxR+LiPZ3Q7dCb8d+9MGf/Nt779oXfs/PmfnenVXNemY9L6/bd+X8Xep2vd680fUWtOfLSvve4lMR8WJEvPLwhqD9K2Ttv7agWuyzEfHenX/cv5Uxfr81W+Y79pdWbV2v545jPbOe79r1uff+urUeNwDnribkIQABCEAAAkICWzfs3sdxAyAcKqUhAAEIQAAC5wj03ti31uMG4NxkyEMAAhCAAASEBLZu2L2P4wZAOFRKQwACEIAABM4R6L2xb63HDcC5yZCHAAQgAAEICAls3bB7H8cNgHColIYABCAAAQicI9B7Y99ajxuAc5MhDwEIQAACEBAS2Lph9z6OGwDhUCkNAQhAAAIQOEeg98a+tR43AOcmQx4CEIAABCAgJLB1w+59HDcAwqFSGgIQgAAEIHCOQO+NfWs9bgDOTYY8BCAAAQhAQEhg64bd+zhuAIRDpTQEIAABCEDgHIHeG/vWetwAnJsMeQhAAAIQgICQwNYNu/dx3AAIh0ppCEAAAhCAwDkCvTf2rfW4ATg3GfIQgAAEIAABIYGtG3bv47gBEA6V0hCAAAQgAIFzBHpv7FvrcQNwbjLkIQABCEAAAkICWzfs3sdxAyAcKqUhAAEIQAAC5wj03ti31uMG4NxkyEMAAhCAAASEBLZu2L2P4wZAOFRKQwACEIAABM4R6L2xb63HDcC5yZCHAAQgAAEICAls3bB7H8cNgHColIYABCAAAQicI9B7Y99ajxuAc5MhDwEIQAACEBAS2Lph9z6OGwDhUCkNAQhAAAIQOEeg98a+tR43AOcmQx4CEIAABCAgJLB1w+59HDcAwqFSGgIQgAAEIHCOQO+NfWu9eDNiyE3At50jQh4CEIAABCBwcALfMWgPfqNx/aNBzX/o4EPFHgQgAAEIQOAcgR8etAf/YRP2B4Oaf/EcFfIQgAAEIACBgxP4N4P24N9vXEAbJd8AAAezSURBVH9rUPP2PYqfOvhgsQcBCEAAAhA4ReCfDNx/f6OJ+uWBAtpNQPskoH0Ews8EnFoixCEAAQhA4CgE2l7X9rxRf/KffkDwlxrQTw++AZjE3MfHb0TE6xHx5Qc3QC9FxNMR8Y6jrHJ8QAACEJgRaNe290XE5x5e89q1r10D7+O1fw+eP9Vm82EGsKsF2E6K5yLiXbMTh6cQgAAE7iqBdi37eER8nb1mV3vNh9qC+n6GsquhTHeGr0bEs3f1jEc3BCAAgYj4YER8jT1ml3vM97YV+kREvMaAdjmgb0bECxHxJJcSCEAAAneIQNtXno+Idg2b/lDD435YtD2/zeitr5cZ0q4XaZsPNwHTauURAhDYM4F2rfoCe8qu95RfmC+gn2RYux5Wu3N+6wc25kPjOQQgAIEdEuAHy/fzJ/1Tn7q89f3/ae1854MfPPtTbgJ2fRPQPkp7ZhoYjxCAAAR2SKB9z//UpkN8H2z+5MHfxPj25dr5PIPb/cJtP0zz7uXgeA0BCEBgBwTaT/u3H15mo983g59fWyvvZ3B3YuF+bG14xCAAAQgMJtD+qh+b//4Z/NjaOmk/EfibDHD3C7j99Ca/LGhtBRODAARGEWjXJP6e//43/1+f//T/crHw/Zv9D7DdYT+1HByvIQABCAwk8IP84XH3f3hse8ffr9ZI++sbv8Mgdz/IF6shkoMABCBgJtB+vS8f/++bwX/b8tfJf5RB7n4hv2I+uWkHAQhAoCLwq+wbu9832j9AtOmLX+Kw7zu59nMAfEEAAhDYCwG+/7/vPeOxX/xzbtH8tYj4Y+7odntH98a5AZKHAAQgYCTwJvvFbveL/x0R33PpWvg7/B7n3Q6UG4BLVzPHQwACSgLcAOzzE4D2C+T+7rWD/2fc1e3yJoBvAVy7onkfBCCgIMC3APZ5A3DTD4z/hYj4FW4CdncT8CXFGUxNCEAAAlcS+E/sE7vbJ/7dg39D5s9fOc9Hb/uOiPgvDHdXw/3Mo+nwBAIQgMB4Ai+xR+xqj/i1td/3f+0y+e6I+F0GvJsBv/faQfI+CEAAAgICT7M/7GZ/+B8R8Vd6z/i7IqL9GkF+2cNYBu37/+0XNvEFAQhAYC8E2q8Cfp39Yfj+2P7k333znxbZt0XEv2XIQ4f8kWkYPEIAAhDYEYHn2BuG7g3/PiLat+ylX3/uQfXnI+L/Mmz7sL8aEe2f3OQLAhCAwN4IvDMivsK+YN8X2l/1+9mIaD+0b/tqf7eQXxbk+3ZAG/IHbNOlEQQgAIHLCTzL74+x3gC0X/LTfmfPkK/224V+joFbBv7JIROmKQQgAIHLCHyKTwEse8IXI+JvXDYazdE/EhG/zdBlQ/88P/inWbhUhQAEuhNoP6T8MvuBbD9o/6rfD3Wf2o0F29B/IiL+M4PvNvj2sf8LbP43rkzeDgEIuAk88aBh+1mxdg3jb471YfBbEfGhiGh/42K3X23w74+IX4yIP2X4Vy/+9sM0fM9/t8scYRCAwAYCz0TEq+wDV+8DfxIRPx8RPxYRbW+9U1/tryR8+OHNQPv769wJnmfQOH30wZ/820/U8gUBCEDgrhNo17KPRQR7wPnrf9sj/1dEtH++t/1p/9vv+vDn+r/voal/GhG/9OBfKfqNiPi9iGg/yXgf/zWp5rmdFK9ExGcjov2GP37Jz3zF8BwCEDgKgXZteyoi2j9Q06557dp3X6/7bc9re1/75XptL2w/ONk2/O89yrDxAQEIQAACEIAABCAAAQhAAAIQgAAEIAABCEAAAhCAAAQgAAEIQAACEIAABCAAAQhAAAIQgAAEIAABCEAAAhCAAAQgAAEIQAACEIAABCAAAQhAAAIQgAAEIAABCEAAAhCAAAQgAAEIQAACEIAABCAAAQhAAAIQgAAEIAABCEAAAhCAAAQgAAEIQAACEIAABCAAAQhAAAIQgAAEIAABCEAAAhCAAAQgAAEIQAACEIAABCAAAQhAAAIQgAAEIAABCEAAAhCAAAQgAAEIQAACEIAABCAAAQhAAAIQgAAEIAABCEAAAhCAAAQgAAEIQAACEIAABCAAAQhAAAIQgAAEIAABCEAAAhCAAAQgAAEIQAACEIAABCAAAQhAAAIQgAAEIAABCEAAAhCAAAQgAAEIQAACEIAABCAAAQhAAAIQgAAEIAABCEAAAhCAAAQgAAEIQAACEIAABCAAAQhAAAIQgAAEIAABCEAAAhCAAAQgAAEIQAACEIAABCAAAQhAAAIQgAAEIAABCEAAAhCAAAQgAAEIQAACEIAABCAAAQhAAAIQgAAEIAABCEAAAhCAAAQgAAEIQAACEIAABCAAAQhAAAIQgAAEIAABCEAAAhCAAAQgAAEIQAACEIAABCAAAQhAAAIQgAAEIAABCEAAAhCAAAQgAAEIQAACEIAABCAAAQhAAAIQgAAEIAABCEAAAhCAAAQgAAEIQAACEIAABCAAAQhAAAIQgAAEIAABCEAAAhCAAAQgAAEIQAACEIAABCAAAQhAAAIQgAAEIAABCEAAAhCAAAQgAAEIQAACEIAABCAAAQhAAAIQgAAEIAABCEAAAhCAAAQgAAEIQAACEIAABCAAAQhAAAIQgAAEIAABCEAAAhCAAAQgAAEIQOAkgf8PFNvaV9kSpsQAAAAASUVORK5CYII=;" parent="1" vertex="1">
          <mxGeometry x="2200" y="240" width="512" height="512" as="geometry" />
        </mxCell>
        <mxCell id="1aiJ_BxQlEHNXpEwWQYT-34" value="" style="shape=image;verticalLabelPosition=bottom;labelBackgroundColor=default;verticalAlign=top;aspect=fixed;imageAspect=0;image=data:image/png,iVBORw0KGgoAAAANSUhEUgAAAgAAAAIACAYAAAD0eNT6AAAAAXNSR0IArs4c6QAAIABJREFUeAHsnQl8G8W9x1MKFFpooS096Ov5eLRoFVvS2nG0koMJFEjiUGib3gdtX0uPV9r32tKLFue+fWrl2Dkcxxo5iPsKJPFKslbROjTcTWmBFkiIQzlabkJIso8xEShGtkfS7Gp39cvnk8/K0h4z35nd329m5z8zaRL+gQAIgAAIWIZAIpE4Oq5qdfFU5leKqt2kpLWH46q2S1G1PYqq7VZU7dq4OvTjLYND/2WZRCMhIAACIAACIAAChRFIJBLHKYPbpimqdrmialsUVXtBUTWd8f+mgdSQq7ArYm8QAAEQAAEQAAHTCei6/rbDgr9AUTMpRdX2MYr9WKbgwICqydRImJ4ZXBAEQAAEQAAEQGB8AonE7R9SVO3XSkp7sETBz2sE4qq29aYdO945firwKwiAAAiAAAiAgOEEYrHY2+PpoZmKOnSdomqvGiH8o86ZTCQSJxieMVwABEAABEAABEDgrQSUbds+PpDKzDs8aC9vi32UcHPbJ57S1r81RfgGBEAABEAABEDAEAJ09L6iZuYoqcxmRdUOGiXwLOfdqg4FDckkTgoCIAACIAACIPA6gSZdP0pRh76pqNpDLOJsyj5p7V5qSFBGIAACIAACIAACnAnQ0fwDqaEvKqq20xRRZw8NHHmdEE9lzuOcZZwOBEAABEAABCqbQDy1fZaS1u60ovBn0zSgam2VXUrIPQiAAAiAAAhwIjCQHjpLSQ1lsiJr8e0DnLKN04AACIAACIBAZRIY2LbNr6QzisUF/y2RBFu37nhPZZYYcg0CIAACIAACJRDYqqofG0hnrreb8GfTu3nbtg+UkH0cCgIgAAIgAAKVRWBkAp+U9r8Fzsv/lhZ4VojLtd2STp9aWSWH3IIACIAACIBAkQS2Dma8iqrtKJdo87wuDECRlQCHgQAIgAAIVA4BOo++ksosf21VvgM8RbiM53qickoPOQUBEAABEACBIggMqJnzlbT2cBnF2oDXB0PXFYECh4AACIAACICA8wnQQXKKqhFnCb/2uplID/3S+SWIHIIACIAACIBAgQQG0tq3FVV72pHir2r6gLr99AKRYHcQAAEQAAEQcC4BulxuPKVFnCr8I/lKDWWcW4LIGQiAAAiAAAgUSGAgNVSlqEN/dbT409Z/OnNJgWiwOwiAAAiAAAg4k0BcHfqBomovO138aR4TicRJzixF5AoEQAAEQAAEGAmk0+kTFVXrrwDhz0YSXMmIBruBAAiAAAiAgDMJJLZt8yiq9kAFib8eTw/NdGZpIlcgAAIgAAIgwEBASWk/UlRtXyWJv6Jqe+k0xgx4sAsIgAAIgAAIOIvAyIx+qnZlhQn/693/qcxyZ5UmcgMCIAACIAACDAQOT+yzvSLFX9X0xLZtbgZM2AUEQAAEQAAEnEOATnyjqJm/V6r4K6p2h3NKEzkBARAAARAAAQYCymBGUlLaUxUs/npc1S5lQIVdQAAEQAAEQMAZBOKpoS9USHx/Nswv33Z/IrHj/c4oUeQCBEAABEAABCYgoKQzP1dU7WAlt/xp3gfSmesnQIWfQQAEQAAEQMD+BJp0/ShFzbRWuvC/mf/MRfYvVeQABEAABEAABMYhsGnTpncoqnbNm+J3ePlbtUK3Ke2p2M6dx46DDD+BAAiAAAiAgL0J7Nix4xhF1W6C+OeYnZTWYe9SRepBAARAAARAYBwCdIa7gbR2NcQ/R/xp7H96e8042PATCIAACIAACNiXAH3nH09pEYj/keKvqJk/27dUkXIQAAEQAAEQGIeArutvi6vaGoj/aPHX9IGUdtk46PATCIAACIAACNiXQFzNhCD+bxV/RdUObEmnT7VvySLlIAACIAACIDAGAUXVVkD884o/nfnv1jGw4WsQAAEQAAEQsC+BgVRmHsQ/v/hTLgOpoa/Yt3SRchAAARAAARDIQyCeznwN4j+2+Cuq9kwikTguDzp8BQIgAAIgAAL2JBBP3y4oqvYCDMC4BqDbnqWLVIMACIAACIBAHgLpdPpERR36K8R/XPHX4yktkAcfvgIBEAABEAABexJQ1MxVEP/xxV9JaQ/as3SRahAAARAAARDIQ2BA1f4P4j+B+KuaHk8P/SEPPnwFAiAAAiAAAvYjsFUdCiqq9ioMwIQG4JCybdvH7VfCSDEIgAAIgAAIjCJA3/sPqJlhiP+E4k9j/xOj8OFPEAABEAABELAngYGU9juI/8TiP8IopV1sz1JGqkEABEAABEAgh0AikThBSWlPwQAwGYAXKK8cfPgIAiAAAiAAAvYkoKQzP4f4M4m/PqAO9dqzlJFqEAABEAABEBhFQFG1u2EA2AyAMrh9+ih8+BMEQAAEQAAE7Ecgrm6vhvgzir+qPUqXRbZfKSPFIAACIAACIDCKgJLWmmEAmA3AglH48CcIgAAIgAAI2I9AIpE4WlG1f8IAsBmAAXX76fYrZaQYBEAABEAABEYRUFRtNsSfTfyV1FBmFD78CQIgAAIgAAL2JDCQ1q6GAWAzAAPpzCX2LGWkGgRAAARAAARyCNyWybxXUbVXYACYDMDLiUTipBx8+AgCIAACIAAC9iQQV4d+DPFnEn9dUbUr7VnKSDUIgAAIgAAIjCKgqNp2GAA2AxBPD80chQ9/ggAIgAAIgID9CCQymc9A/NnEX1G1vbFY7O32K2WkGARAAARAAARGEVDUzGIYAGYDsGIUPvwJAiAAAiAAAvYj0KTrRymqthsGgM0AbB3MTLZfKSPFIAACIAACIDCKwEB66LMQfzbxf22ehDtG4cOfIAACIAACIGBPAvGUFoEBYDMAcVW71J6ljFSDAAiAAAiAQA6BdDp9oqJqL8IAMBmA/alU6pQcfPgIAiAAAiAAAvYkEFcz34X4M4m/PpDOXG/PUkaqQQAEQAAEQGAUASU9NAgDwGYAFDVz0Sh8+BMEQAAEQAAE7Edg8+D2TyqqdggGgMEApLSnYjt3Hmu/UkaKQQAEQAAEQGAUgdeE/wqIP4P4q5qupLSOUfjwJwiAAAiAAAjYj4Cu629T1MzfYQDYDEAivb3GfqWMFIMACIAACIDAKALK4LZpEH828VdUbecofPgTBEAABEAABOxJYEAdWgsDwGYABlLaZfYsZaQaBEAABEAABHII3LRjxzsVVXsOBoDJABzYkk6fmoMPH0EABEAABEDAngQG0trXIf5M4q8PqEO32bOUkWoQAAEQAAEQGEVAUbUtMACMBiA19JVR+PAnCIAACIAACNiPgJLJfERRtYMwAEwG4JlMJnO8/UoZKQYBEAABEACBUQQUdeg3EH8m8dcVVesehQ9/ggAIgAAIgIA9CSiqdj8MAJsBiKe0gD1LGakGARAAARAAgRwCSiozBeLPJv5KSnswBx0+ggAIgAAIgIB9CQyomgwDwGYA4umhP9i3pJFyEAABEAABEDhMgC5ko6ja0zAATAbgkLJt28dReUAABEAABEDA9gTiqaEvQPyZxF+Pq1rC9gWODIAACIAACIAAJaCo2o0wAGwGQElpF6PWgAAIgAAIgIDtCWzetu0Diqq9CgPAZABeSCQSJ9i+0JEBEAABEAABEFDSmZ9D/JnEX1fUzAbUGBAAARAAARBwBIEBdeguGAA2AxBPZc52RKEjEyAAAiAAApVNYCA1VAXxZxN/RdUebdL1oyq7xiD3IAACIAACjiAQV7WVMADMBmCBIwodmQABEAABEKhsAolE4mhF1R6HAWAzAAPq9tMru8Yg9yAAAiAAAo4gMKBmGiH+bOKvpIYyjih0ZAIEQAAEQAAEFDVzFQwAmwEYSGcuQY0BARAAARAAAdsTUFX1ZEXV9sEAMBmAfYlE4iTbFzoyAAIgAAIgAAJKSvsRxJ9J/HVF1a5EjQEBEAABEAABRxBQVG0IBoDNAMTTQzMdUejIBAiAAAiAQGUTiKfTn4b4s4m/omp7Y7HY2yu7xiD3IAACIAACjiAwkBpaBAPAbABWOKLQkQkQAAEQAIHKJkBnslNUbTcMAJsB2DqYmVzZNQa5BwEQAAEQcASBAVU7B+LPJv5KWrvTEYWOTIAACIAACICAktb6YADYDMCAOvQz1BgQAAEQAAEQsD2BdDp9oqJqL8IAMBmA/alU6hTbFzoyAAIgAAIgAAKKOvQdiD+T+OsD6cz1qDEgAAIgAAIg4AgCiqolYQDYDICiZi5yRKEjEyAAAiAAApVNYPPg9k8qqnYIBoDBAKS0p2I7dx5b2TUGuQcBEAABEHAEgYFU5o8QfwbxVzVdSWkdjih0ZAIEQAAEQAAEFFV7CAaAzQAk0ttrUGNAAARAAARAwPYEtqpDQYg/m/grqrbT9gWODIAACIAACIAAJRBXtTUwAGwGYCClXYZaAwIgAAIgAAK2J5DJZI5XVO1ZGAAmA3BgSzp9qu0LHRkAARAAARAAgXg68zWIP5P46wPq0G2oMSAAAiAAAiDgCAJKKrMZBoDNAChq5quOKHRkAgRAAARAoLIJKJnMRxRVOwgDwGQAnqGvSyq7xiD3IAACIAACjiCgqNqvIf5M4q8rqtbtiEJHJixNQI7FPiRHo5fIhNwoE3K7HIn8RSZkV4iQ7SFCQjIh3+rq6/uwpTOBxIEACFifgKJqf4EBYDMA8ZQWsH6JIoV2JNDU1HSUTMjn5Wg0JRNyUCZEn+D/vlAk0g4jYMfSRppBwAIEBrZtq4X4s4m/ktIetECRIQkOIxCLxY4NRSLflQn56wSCP5YheFkm5JcOw4LsgAAIGE0grmZCMABsBiCeHvqD0eWB81cOgeUbNrxLJuR/ZUJ2Fyn8RxiCMCHhWCz29sohiJyCAAgUTYAuZKOo2tMwAEwG4FAioX2iaNg4EAQOEwj19r4vFInMDRHyNA/hH3WO6+mrBMAGARAAgXEJxNPa5yH+TOKvx1UtMS5M/AgCExCQ+/s/KhPSKhPy4ijRPqIlz+G3/50gKfgZBECg0gkoKe0GGAA2A6CktIsrvb4g/8URkDduPCMUja6XCdnPQdxZzMJL4b6+TxeXWhwFAiDgeAKpVOoURdX2wwAwGYAXEonECY6vFMggVwKh/v46mZDrZEIOmST8b5iDMCGYrZJraeJkIOAgAgPq0M8g/kzirytqZoODih5ZMZhAByHnhaPRhNmiP+p6BxEeaHBB4/QgYFcCSlq7EwaAzQDEU5mz7VrOSLc5BOjAu1A0+iWZkDtHCfEbrfIyfP8zc3KPq4AACNiGwNbBzGSIP6P4q9quJl3HqGrb1G5zE9q+adM7woT8QCbkwTII/LjmgvZCmEsDVwMBELA8AUXVVsAAMBqAtLbQ8gWKBJpOYO3atSeGotFfyYQMW034c9Lzd9PB4IIgAALWJUAnClFUbS8MAJsBGFC3n27d0kTKzCbQuWHDB8KELJQJ+XeO0I7bEi/jfs+ZzQfXAwEQsDCBeGr7LIg/m/grqaGMhYsSSTORQGd//yfkSESWCXmpjIJesNEwEREuBQIgYHUCijoUgwFgMwAD6cwlVi9PpM9YAh2RyGSZkIhMyKt2Ev7DaX3RWDo4OwiAgG0IJBKJkxRV2wcDwGQA9lFetilcJJQrATkaDcqRyM3liOHnaDTu5AoFJwMBELAvASWt/RDizyT+uqJqV9q3pJHyYgmE+/tnyYSoHEW44G57XtcOEUKK5YDjQAAEHEZgQNU0GAA2AxBPD810WPEjO2MQaEokjn4tjO/rMiH38hJfK5wnRMjlY2QZX4MACFQSATqaHeLPJv40SgLLqjr/7miOxY6Xo9Efy4T8wwqCzTsNHdHoF5xfisghCIDAhATiaW0hDACzAVgxIVDsYFsCLT09J4UI+Z1MyD95i66lzrdx4xm2LSQkHARAgA8BOpNdXNV2wQCwGQA6UyIf8jiLlQjQufHlaHSpTMizlhJqQowYJ/BqV1fXMVbij7SAAAiUgQCdyx7izyb+dI2EMhQRLmkgAbmv77QQIV0yIfsqQPizZuJ+A5Hi1CAAAnYhQFezgwFgMwB0lUS7lCvSOT6Bzv5+r0zIRpmQAxUk/K8bgGj02vHp4FcQAAHHE6Dr2Cuq9gIMAJMB2J9KpU5xfKVweAY7+voawoTcVnGin/MqgU5X7PBiRvZAAAQmIqCktIsh/kzirysp7YaJeOJ3axLQdf1tIUI+JxOiVbLwZ/MeJmSONUsKqQIBEDCNQFzVEjAAjAZAzVxkWsHgQlwI0IFu4Ujk23Ik8pes+GFL9nfFYu/hAhgnAQEQsCeBREL7hKJqh2AAGAxASnsqtnPnsfYs6cpLdVdX1ztDhFwqE7ILgv+WKIItlVcjkGMQAIEjCMTTQ3+A+DOIv6rR7v+OI+DhD0sSWBOLvTccjf5RJuRJCP9bhH9kAGA4EvmJJQsPiQIBEDCPgKJqD8EAsBmARHp7jXklgysVSqCzt/cjMiHNMiHPQ/jzC/8bXPr7P1ooX+wPAiDgIALxlBaA+LOJv6JqOx1U9I7KSriv79NyNLo2RMgrbwhczmh3fPcWM4B5LBx1ByAzIFAEAUXVumEA2AzAQEq7rAjEOMRAAnIkUisTco1MyEGI/FtEPjvZT77tFQYWC04NAiBgdQKZTOZ4RdWegQFgMgAHtqTTp1q9TCslfWFCzpEJGYDoFyT6uUbAUyl1BfkEARDIQ0BRM1+F+DOJvz6gDt2WByG+MpFAU1PTUXIk8kWZkB0Q/qKFXw8R8qiJxYZLgQAIWJEAFTUYADYDQM2SFcuwEtIUi8WOlQn5nkzI3yD8xQt/ll0oEmmvhHqDPIIACIxBgHZnK6p2AAaAyQA8S1+XjIESXxtEQI7FTpAjkV/I0ehjWfHClosBONugIsNpQQAE7ECADmiD+DOJv66ktdV2KFOnpLErGn2/TMg8mZB/QfBLF/xRDPc0JRJHO6WuIB8gAAJFEKAhbTAAbAZgqzoULAIxDimQQFdv78do97RMyIujRCt38Bo+lxDeGCLk8gKLBbuDAAg4iQCdzAbizyb+dJIkJ5W9FfMSikYFmZBemZBXIfzcW/y5hmlfeyyGVSyteBMgTSBgFgE6nS0MAJsBoNMkm1UulXadUDTqD0WjN8iEHILwGyr8IyYgFI2ur7Q6hvyCAAjkEKAL2Sgp7SkYACYDcIgulJSDDx85EJCj0fNlQgYh+saLfi7jUF+fj0Px4RQgAAJ2JaComYsg/kzir9Mlku1azlZLdywWe3uIkK/IhNyVK0r4bI4JeG3ipLTV6gTSAwIgYDKBgXTmehgANgOgpLSLTS4ex12up6fnODkavSRMyEMQe3PEPh/nMCFzHFe5kCEQAAF2AonEjvcrqrYfBoDJALyQSCROYKeLPXMJtEci7w4T8ms5EtmbT5DwnalmYDdC/3JrJz6DQAUSiKvapRB/JvHXFTWzoQKrSMlZbo1GPyhHIotlQp6ByJsq8rmj/Y/4HI5EfltyweIEIAAC9iagqNodMABsBiCeymC2tAKqe5iQT4UJCcuEvAzht4bwHy6Hl+nESgUUJXYFARBwGoHEtm1uiD+j+KvariZdP8ppdcCI/ISj0So5EonKhByA8FtK+F/vBYhG1xpR7jgnCICAjQgoqcxyGABGA5DWFtqoaMuS1HBfX71MyC0QfQuK/uGZAkOEvEJ7ZspSQXBREAABaxCgIViKqu2FAWAzAAPq9tOtUXLWSoWu62+To9HZciSyzcnC39rToy/r6taXdnbqS8Kd+vLubp1+FyphCt4y8WqzVg1CakAABEwnoKS1GRB/VvHXNNMLyOIXpCPIw9HoN+Ro9L4yCdkRg9qMSEMoEhkR+nmtbfoVK1bm/T+/tU1fuWaN4WnhlL9n8e7f4jcWkgcCZhBQVO1KGABGA5DOXGJGmdjhGs2x2PEyIf8jE/IIJ1GynHh2UOHv6tLnNrfkFf18ZmBJOKzLkYjl8pJbRiFCfmeHOoY0ggAIGEggkUicpKjayzAATAZgH+VlYHHY4tQtPT0nydHo72VCnsgVFSd97ujr05d3dRck/LlmYFFItrIB2NPV1fVOW1Q2JBIEQMA4AgPpzCUQfybx12lPiXElYf0zd/T3nyoTslwm5DkniX1uXqjwL1vVpTetbGZu8ecKf+7nFaut+TogFI3+t/VrG1IIAiBgOAElNZSBAWAzAPH00EzDC8SCF1hFyH/J0Wg3HTWeK5ZO+tzRF+Em/FkTQE0EHTtgJU4hQnbSQb8WrGZIEgiAgJkEtgwO/RfEn038aZREpT046epwMiExmZCDVhIxnml5vcW/ikuLPyv8udvmtessZQBolIaZzxhcCwRAwKIEFFVbAAPAbABWWLQYuSfrtaV4z5IJ2cJTaK12ro4NG0bC+JpW5h/RnyvipXxeLIetYwCi0RT3yoITggAI2I8AjdlWVO1RGAA2A7B1MDPZfqXMnmJaH0KRyEUhQrZbTax5pud14TeuxT/aLCzs6LCMAQj199ex1wjsCQIg4FgCyuD26RB/NvFX0tqdTq0IXV1dx7wWxnexTMj9PIXWaudqpy3+cKdhXf2jhT/794K2dqsYgF6n1mHkCwRAoEACA+pQLwwAmwEYUId+ViBey+++fMOGd4UikZ/LhOy2mljzTA+dnW9ZF59R/VlRL2RrkXDAx9fEYu+1fKVEAkEABIwnQNexV1TtBRgAJgOwP5VKnWJ8qZhzhVBv7/tkQppem8DnKZ5Ca8Vz0Vb/gvb2ksP5ChH80fvSaYLLzaYjGv2CObULVwEBELA8gYG09m2IP5P460pKu8HyBcqQQLm//6PhaLRFJuSFcguSGdcPRYhOp+YdLchm/t20YqXe1ttbbgNwDUP1wC4gAAKVQkBRtTgMAJsBiKe1z9u5XnREo5+RCemRCdlvhvBa5Rp0kR4zxT7ftUamBC7vAkH/kmOxD9m5/iLtIAACHAko27Z9XFG1QzAADAYgpT0V27nzWI74TTtVJyFT5Gj0WpmQQ1YRZbPS0bp+fdnFf15Lq97e11fW1n84Evm2aRUOFwIBELA+AUXVLof4M4i/qtHu/w7rl+iRKZQjkXNlQuJmia0Vr7N01aqyGoC5zc1l7/oPE3LbkTUDf4EACFQ8ASWlPQgDwGYAEuntNXaoME1NTUeFCZkjE3KHFQXZ7DTNbyvfwL9FHSGdzjVgdp5HXe/5rt7ej9mh7iKNIAACJhFQBjMSxJ9N/BVV22lSsRR9mfZNm94hRyLflwl5YJQAlFuAynr9uRwW8sn3Tn+872i8f8s6a0z7G45EflJ0pcKBIAACziQwoGa6YADYDMBASrvMqrVg7dq1J742mv+XMiHDEH7yFrMxt6XVtFcAC9o7LCP8h+vCIJ3V0ap1F+kCARAoA4FEInGcomrPwAAwGYADW9LpU8tQTONesj0WO0WORBbIhPwbwv9W4c8ymd9qvAEYEf6enreYj2wayrR9orO39yPjViL8CAIgUHkEBlJDX4H4M4m/PqAOWWoAVWd//ydkQjpkQl4qk7BYTejGTQ9dgGe87vpSflvYEdJbrCf8lMfBUCRyduU92ZBjEACBCQnEVe1WGAA2A6Coma9OCNSEHTo3bHDLkUifTMirEP6xW/yj2bT28A8DpIv60POOvpZl/o5Gf29ClcQlQAAE7EYgldrx4dfC/w7AADAZgGczmczx5Sxjub9fChNyUyXG8PMSVF6RALTF32rNFv+bZiQSuRnv/ct5x+LaIGBhAvFU5lcQfybx15W0trpcRRkiZKYcjaZ4iWAln6e9t1en8fjFdvfTcL629RZu8b85w+DDYUJOLledxXVBAAQsTkBRM3+GAWAzAFvVoaCZxRmLxd4uR6NflQm5p5IF24i805Z7UwEhgXTufrp6X9v6ss/f/2br/k2hz/fdvtd6ikQz6yuuBQIgYCMCcXVIhPizib+iag+ZVbQ9PT3HhQj5kUzIP4wQP5zz9TEDdDGeRaHQhD0Bi2S57LP3FVxm0eglZtVXXAcEQMCGBJS01g4DwGYABlKZPxpdxF2x2HvCkchvZUIeL/iBP35rMF8L0RLfhSIRvaPM8+LT3oAlnZ36wvYOnc4TQMcI0L9Xrl1b9rQVWQ96ja6rOD8IgICNCezYseMYRdWehAFgMgCHEgntE0YVN12VLUTIEpmQZ4t84FtCzFnSTgV/5Zq1Iy3v3C54+pnGz9PfWM6DfcaIfIhEhrq6ut5pVF3FeUEABBxAYCCVuRDizyT+elzVEkYUefvGjf8pRyKrZEL2OV3QqPAv716tz21pmbDLfV5rq10G2VnLrEQifwn19r7PiLqKc4IACDiIgKIOXQcDwGYAlJR2Mc+iX7pq1edXdq9Oy4QcqAzh79bnNk8s/Lmj8mmPgFXmz7dDGYUIebQ9EvkPnvUU5wIBEHAggURix/sVVdsPA8BkAF5IJBIn8KgGS7q6frSgveOfVOicLm4jLf6uwoV/tAloL//qedZq5ecf6/FkRzT6GR51FOcAARBwOAElpf0U4s8k/rqiZjaUUh3oJCxLO7uumN/W/mxW3Ghr2A6tymLSSIV/WVdXwS3+LJvRWzowr5h0VNAxz8uRSG0pdRTHggAIVBABRdV2wACwGYB4KlPUHOrt7e3vWNzZKc9vbXt5tKgt7VzlOFEL9fWNCH9TgV39o9nk+9tGsfemlmuIkFfChJxTQY8uZBUEQKAUAvH07QLEn1H8VW1Xk64fVQjvxeHwyUvC4f55La2v5hMz+h2NP3dKC5WG8C1b1VXQpDpjcRnr+6WrnGeYOJT/wTAhcwqpm9gXBECgwgkMpIeWwQAwGoC0tpC1uqxct+6ji+Xw5rnNLQfHEjL6PY0x5/DwL/s5qPBTYc4N5Rsv36X8RufcdwIzjnmgg0e/x1o3sR8IgAAITKJTyw6omWEYADYDMKBuP32iarN89eqqRSF5qGll8yEWkVuxerWtxWxE+DvNEf4szwUOMU2cDMCL4b6+Cyaql/gdBEAABI4gMKBmzof4s4q/ph0Bb9Qfyzs7GxaFQjsLaQHTfcs9612xItR8gHsRAAAgAElEQVSxoU9f2tlpSos/K/zZrVN6TYpln3PcPzsJmTKqKuJPEAABEJiYQDylbYQBYDMASlr7YT6iy1at+vLCjtCjWXEqZEsXk8l5mNviMw3DWxIuj/Bn2dLr242bAen9W5iQT+Wrk/gOBEAABMYlsHXrjvcoqvYyDACTAdiXSCROygW6bNWqny5o73giK0rFbJvXrrONkFlB+LOMV65ZYxtuBgi//tpI/zRm+Mu9G/EZBECgIAJxdegHEH8m8dcVVbuSwm1qajpqaWfXgvlt7c9lxajYrV1i/18X/vCE0/UWy6HQ4+a1tOp0bgEjhNUm54zR1SELutmxMwiAAAjkElBUbRsMAJsB2JxIXbiks3PV/Na2fYUK1lj7Wz32v723V18sW0f4sxwruPVPV4S8mE4klXsf4zMIgAAIFEQgkcmcBvFnE/+bleTz48XwZ4Wp0K1VJ7OhcxIslmXLtPhzudIleW3SSueZzufoypDtkci7C7rJsTMIgAAI5COgqNp8GAA2A9DZR7iL4fy2Np4CweVcVPjpoMRcwbXSZ6v3mBhgTJ6Qo9Hft/T0HDH2JN/9jO9AAARAgIkA7UJUVO0RGAA2A0BjznkL4fLubi6izUN02tavt7Tw05C/1vXrLcOLB/MJzvFwOBL5SXMsdjzTDY2dQAAEQICVwEB66CyIP5v4X3XzJu7iT82EFWL/Xxf+kCH542GYqPGyU5TEBKLOYmDulQn5elMicTTrvYz9bExghyi+c3Ba1ScTgTOmxiXX55KS8P2EJFw+6Bc6kgGBjPyXXH3JgNCblISepORam5SE1UlJ6EoEhBDdNym5vjMouc+NB1xCosGDriIb1wezkh5PaethANgMQOvaddwFclGovNPY0tY0nUqXh0gbcY4F7e2OXxp5lFlQw/39s8y6/3EdkwlQoY8HXXWDftcliYB71aBfGEpKwvNJSdAN+P9iUhIeSAbcWwcDruUJSfiKGvzM6fqkSRg5anK5W/Fymzff8y5F1Z6HAZjYAGwd3MZtCdtcoWxeu5alNch9n9aeHosLf4fesq6He75Hia1Vzn8oTMhNHZFIwIrPCaSpSAJUaFNTz/Al/O5fJiUhmpSEvyQl4YABQl+oeXh2UHIlk5KwctAvfE0NTsYMUkWWsZ0Pi6uZb0H8JxZ/ymjD1ddybyXT2H+zY9hbqPC3d3DPS66pKeUzTRtNo0WFmne6XpUjkb7ODRvcdn6OIO05BNKBT584GHB/PuEX1iQlYdgCYs9qDu6nvQRx/+QzEw0NeO+UU6ZO/aikMwoMAJsBWNa5irtomhnGRlvTC6ws/B0hnfZKVIjwvxiKRNpDhHzcqc+WisoX7VZPSq7/G5SEgaQk7LeR6I9lDv5FeywO9w6cXFGFWSGZ3aqqH1NU7RAMwMQGYJOSNGSRGzrwzmjBa1m3Tqfv0UtplRt5LB1/UEGj+v8lEzKvKxp9f4U8Zpybzc3nVr1r0O/+blIStjtA8McyAvT7A4OScHPC727UJ006yrklWlk5U1Tt9xD/icWfMuqK9HMX0Pmtxsb+N1PhNyBkkZcZoIMfzTBARhsspvNHo4+Fo9H/k2OxEyrrKePA3MaDQnVSEuSkJDzrcOHPZwoeTfqFP6Tqz/iwA4u2orKkqNoDMABsBsCId+ZGxf7TQYU0Vp6XUPM+D51cqGKEn5C/hiKR78ZisWMr6uHitMzSkfsjIXavj9jPJ4yV9t2rSb9wTTLg/iwiCuxX2we2bfND/NnE/5pNmw0RU96x/68Lf5shaeVhAuh0wnR2QaYWMyF23+92mZDP08Wi7Pd0QIrfILBVFN8zKLmuSErCvyuwtc9qau4fDLi/BCPwRrWx/Ie4OrQKBoDNALSvW89dVOl7b15CuHLNWp2+TuAh0kacgy4gRBcS4pVfi59nS2c0Ot3yDwAkcHwCVPiTAeGPEP6C5ia4i44TGJ8sfi03gUQicZyiDv0bBoDNANDlZnkLIxXtUoWMjpifZ3nh31ByPkvlZMLxB2VCYqG+Pl+5721cv0QCQ3WnvZu+405KAh0Fz9oCxn5HsHJlBiUBLrjEumjU4QNp7csQfzbxj1x7A3fxb+IQ+79sVRf3dPEyOUvCYb19Q0UI/z45Gu1eRch/GXWv4rwmEaDv+F+fShfCz9H4KCm/a4pJRYjLMBJQVG0TDACbAVixqpu70C4Jl7aELe1S5yXWvM7TtLJZp/mqEOF/LhyJLOvq68NAaMZnjqV3SwZcM5KS8DBH4UOPwJs9AgeTkrs90eBC+IsF7oJE4vYPKap2AAZgYgNwWzxlSOx/a0/xsf90oB8v0eZxnhHh7+zUOyqjxf/PECG/w3K8FniQ8UjCQJ37g0lJ6Ifwm/Kq4xG6SBGPcsM5iiegpId+CfGfWPwpo9XRK7mLLX1nX+w7aTplMJ06mIdwl3oOKvxLO1dZYhXDYnkWcNw/QoT8qKen57ji7zwcaRkCdLQ6XWkP7/lNEf4jekMSfmF9xi+81zKVocISoqjafTAAbAaAxquXKpSjj1/W1V20AbBC67+ShD8cjd4tR6NfjcVib6+wx4Rzszs41X1GUhJSaPWbL/45zB9PSMIXnVvLrJkzJaX5IP5s4n/9bVu5iz81A6W8I6eD60YbCrP+HhH+VRXT4h8MRyIzrHkXI1VFEzjc6t+XI0RHtE7xvbmmICG5I3TwZdEFigMLIjCgam0wAGwGILS+l7vYLuzoKLr1T7ur57eZH+tPhZ9GHIT6+kpKewHd7eW6zqFQNHpDKBr1F3RTYWfrE9g047R3JCVhtR0EPi4J+m1+t37j1Mn61XVVenRKtb6+tlrvrvHoq0Rv3v9dokdfX+MZ2Zcec9PUyfpmv1tPvDkQz7pGJyDco0ju/7R+LbJ3Cnfs2HGMompPwgCwGQAj4utXrllTkriZuaAPHWuwrKvL9KWKy2AUXpUJ6V0VibjsfYcj9XkJDE5zfzQpCbdbUfwH/G79+rrJel9ttd4pevVlXlGfW12jN3H6T8+13OsbMQ2ktlq/oW6yrljTFPxrMHDGzLwFiC+5EIinhj4H8WcT/+j1N3Fv/dOWNB3EV4rA0dkDje7yp8K/vKu75LSWkk+Tjn1RJqStq7f3Y1xuMJzEegToZDRJSXjSKuJPxZe20GmLfalX5Cb0hRiGrCmgPQrX1lXptMfBInwO0pkXMZ2wMfeRomrXwgCwGYCV3au5C+3icLgk8aeiSEfdG2UARoS/2/nCHyLk6VAkMhfL8RrznLHMWZMB96/oMrblFjfanU9b3+0+rz6PU8u+EMGfaN8Fnho9LHr12JQqnfZIlJtXUhJuotMwW6YiOSAhA9u3v09RtVdgACY2AJuTaYNi/3tKNgB0IR3eBqBShF8mZLdMyP8u37DhXQ64pZGFsQjQ9eqTktBdTiGjreqNU6r0Zq+vLK38iUR/rN9p7wA1KrSXoszjB+5X/NUfGauM8X1hBJR05n8g/hOLP2W0dmOMu8jStQR4dWvTgYQ8TMDcllZ9RffqSujqvz8cjX6nq6vrmMLuGuxtOwKxOXPenpRcfeUS/1unuvW1NR59oac83ftjCXsx3y/xiPqG2mp9a/l6Bf6uSGd83HaV0IIJHlAzf4IBYDMASwyYZpcOpuNlAGgvAF1LoFgTQM3IitUVIPyRyNBrcfwX6rr+NgvekkgSbwI7RPGYpCRcVQ7xv65u8kjLuRihtfox9LUFHaBIIwvKwHZXwi+cxruuVNL5BlJDLog/m/jfuEUpWljHE+RSYv/zGQc6lTAdVDjeNUf/9rrwlxaFkC8tVvsuTMhtHX19DZV0j1d8Xg+H+d1ktkDRUL02n726+UsxHLLo1TdNNX2cwHCqXkCITpF3eVzVlsIAsBmA8Ia+gkR1tMjm+3tBe2mx/2MJbOv69fqCtvYJ0zuvtVUvNfxwrDRY6PsDMiEbO/v7vUXeJjjMrgToRDJJSdhipvhTEaRiWIqY2vVYOk6gW/ToW0x9NeB6IiG5PHato+VKN53CVFG1PTAAbAZgfiv/iXZWrja21U2nB6bhgbSFTw0I7RmgpoNO3tOyrvSBhxYS+XyvUfbJkciq9o0bMY9IuR4y5bxuxu8/Pim5B80Sfzq5Tpfo5Rqrb1cjML+6Ru+p8eiK37Qwwn8lJaG2nPXNbteOpzLnQfzZxP/KG2+ZsDWdr4U/3nc8Yv8LEWA6z0Cpcw0Ucr0y7vtsiJAlciz2Ibvdk0gvJwI0XnxQEq42S/zpqP4FDhjcx9tw0MGCdAyESeXwJGYNZL+BFHUoCgPAZgBaVvNfZnexXHrsfxlFNl+Lu9zfPS5Ho7/pisUQJsz+GHDmnklJWGqG6NCu7g5fZXb3F2IW6MRC5swy6PqrGpx8sjNrNb9cbd264z2Kqr0EAzCxAdgymDZkmd0K6II3xRCECXkoHIn8EMvx8ns+2PpMhxf1MbzVeSVa/QWNc1jqEUemNjbBmMVp1IetK7HBiVdS2vch/hOLP2W0PnYN9+5/nrH/FdwLcFeIkK9gOV6DHxZ2On0y4P5sUhJeNVJkBvyCHkKrvyDxz+0toHMhGD+RkHudneqt2WlVVC0NA8BmAJaGO7kbADoIr4KFu9S8J+Vo9Hyz7xlcz+IEaDhYUnI9Y6T408l8lpdpnv5cEbX7ZxoeafjUwgHXby1eZcuSvPjVVwsQfzbxv3lrgrv404GB7b0bShXBSjv+kEzIdeFIZGpZbhpc1NoEUvXeU5KS8LCR4k9X5nPCLH5WMQ90dUOD5w04NBhwf8naNde81EXq6t7dJfpit13UeOChH31Lv6OjRU9uVXSYgbHNQGcf4W4A6LK9aP0TVgb7ZUJ65I0bzzDvTsGVbEdgUBKuN1L8o1OqEd5nwGJFNHLC4CiBlxL+yZ+xXYXmmOAej+ekLp/36kUe8QCdp+GvF52jDzcGR/7vueBM/YGf/0D/U/cqPRFPwQyoR5oBlsl0xgv1y/cbnWoXBmBCA/BCOBptkfv7P8rxVsCpnEhgMOD+npHiv7rGU/T7bqu0tq2cDipK0dpqwwZtDvpdOypxUCAJTj55lei5lgp/tvxDUuAN8c+agOz2sc+frd//60v17b3r9fjgtoo3A1fdvIl769/s2H8bGo2nXkvzFaHe3vc5UauQJ84E1ODkTyUl4XmjDACd2Cf78LTCdrFHPLTS53uu3ed7MOT1bunweZrbfZ6L19V6z7xxStUnb/JXfyRSV/UfraL4sflVUz65pLpWWF3jmdlb6/nx2hpPqLPGO9ji8z262CO+ZIX85KYhYqQJkIT5nKueZU8X8wvvXSX6rlvkEQ/m8qWft3y+cUwDkDUCdLv7S+fpO/94mZ7ZuLFijUDr2nXcDcBiWUbrn+Rt/e+SCfkZluO17GPFegmjq/sNBoS0ceJf/pb/fE/NoWav72FZ9HaurvE00AmOeJVEk8t1Qpfo+Vq3r/rqdq/3cTp732jBMPtvYpwJODDod0u82FnxPL1Tpryvy+e9IZ/w03Jc4KnRd33uLCYDkGsGHv36Bfq9C6/Q09ddXzFmYOvgNoNi/9fBAOQYgBAhO8ORyLexHK8VnygWT1My4P6dUeJP57M3W/yy11vh9e1fJXq3r63x/CTmch1rVjFQAems8S1s9voemFddcyibHrO3BpqAvycaXCeYxdOs66zzek/pFD03LczT4s8tu/VnFy7+uUaAfv7Hd7+k371isZ665VZHm4ENV1/HvfU/t6UF4v+m+GshQj6H5XjNeko47DqpqWf4kpKw3wgDUA7xp+/BW3y+h9bUVF/Cs5VfbLGP9A74PEvbfL4nadpyhcSMz0aZgIRfWFMsE6sdt0Gq+kCn6L1lIuHPltfQHLbu/9Gin//vep1GEtzp0EiCZZ2ruBuApatWwQBEIreGo9EzrXYvIT02IkC7/pOS614jxH+dyQP+FnjEQyGfd8faKd4aqxbBhimeOW0+36NZITFrS2daNKKM45Lrc1ZlzZKuEeH3eTexCj8tLzp3RX4hfz0aoJTf3owk6HREJMEmJTmyal6+EfylfNfW21upBuBAmJD+9r6+apb6jX1AYFwCRk31SwXHLHFb6BEPra6pHohNqfrkuJm10I/dvurzmr2+B81iNK+6Rr9pqiELCe2mK0VaCC1TUnpqXR/qFL230bpTaBlcLdUYZgByzcObkQQ9to0k6CL93Fv/NJzQhiPyS03zy2FCwmFCPsVUwbETCExEgL7DTUrC47xbhlRoqOAU+mAtZv9WUbxrvei27RrVnT5fY4vP92QxeS/0mMUeUacLLvEu74QkXD5RXbPK72u93lNl0buF9hYVyo/uT1/h3H+e3xQDkGsG3owk6NcVNWObMQMLO0LcDUCFxf4/E4pGF7VGox+0yj2EdDiEwKAkzOctBlRgqNAU83At5JilXnFfp89zsUOKYtI60dNaTGu0EGZ03xafT49LAm8T8Hyi1mXp9cJ7/dUf6azxDhQr/FnOsmhc93+u4I/3+dGvz7ZFJME1mzZzF38a+9/R11dqa9r6x0cie+VI5LL2SOTdTnnGIR8WIpCoq/qPpCS8xNMAUGFp9voMFX/as9ApetNrA58+0UI4uSRlTU2Ve6XXN5wVG6O2XaKHtwHQrTogcF2t+6Nh0RcvVfizZbFlWq3prf/xzMDD35mj3718kSUjCdrXreduABaFHB/7/2CYkB+0b9r0Di4PFZwEBPIRSPiF9TzFn57L6Fn+lnnF/f111d/Mlx+nfEejFtp8vi6jQwc38h8UeDBV566ySjlsFcX3xAPCvLHi+LOCXsiWTrX86MyxZ/8bT6iN/61ef+iH39TvbG/Wk1ussSYBXaa3lIF++Y5tXuvY2P87Q9Hol5qamo6yyj2EdDiUwKDf5U1KwiGeBoAu7lPIw7TQfWnLmM7K59AieUu2On2+8+hrjkI5se5PxWwz7/EAAffWt2TE5C8SDZ6TEpK7ia5keXUd34Go66eUv/ufxUiMRBL87Pv6n7rCZYskiFx7A3fxn9vsyNj/uByJnGvybYLLVTKBZEC4laf4K5KgLzXwvX+bz3d3U0PD0ZVWZn2i+OFmr/dpVlEvdL8On5f7q4C45J5VjnJSg5NPTgaEeblLWId8fKee3j69zlLd/yxm4LGLpuv3X3apvn29uZEEK1Z1czcASzsdE/t/SI5Gr+0kZEo57hVcs4IJ0NXceLf+jer6pyOuV9V4b63g4poUc7lOaPH5dhUq7qz7838V4LrXzPLK+IX3Hh7M+myuqd3qd3NdcdLI2H8WIeexz+455+k7/3CZnuk3NpLgtnjKmNj/9baP/d8fImRdRzRa0Stqmvl8wLVGEUgEhFDug7LUz0Z1/dO59HtET/eo5Ffkn12ieEyLz3cfq6gXsp8xrwKEs4wuKCr8CUlYkJSE5/LVYTr7YSEcJtr3Kske3f+sRoFGEty34I96+trruIcUdhsQ+z/f3rH/z8uENLdHIhXzCtPo+x/nL4IAHRjFc7U/Oup/qZd/yB9t+a8XPcuLyKJjD2maNOmoFp8vM5FQFfM7/1cB7uuMKoiBKZ95X9LvXjSW8GfNwEqO0Si0Pu48d6rtuv9ZzQDvSAI6UU++AXylfLe8u9v6oXtvzs2fTeuT4Wj0j2tisfcadT/gvCDATCDhF36efUDy2NIlZ4sRnImOCdd4QsyZqrAdQ6L3ron4FfP7dXVcZwk8oEhnfJxn0SQaTn//YEBYzGJgb5nKd0BqhwVi/1nFvLT9So8kuOaW27iLPzUOdor9DxHyaDga/WlXV9c7ed4DOBcIFE1AnzTpqKQkPMRD+Ok5FL+gLzRg4F+Hz7e56ExWwIF07YY2H/+5Auj8DbzqxuHzLOVRHKl67ykJSVjCIvzZ9K/lvAbFbfXWiv0vTeTZ1is4MpJgkPk1Qfu6Hu4GYFEolG1RW3375xAh32xKJCpuwDKPex3nMJBAwu9uzD4geWzXc37I0lZrm8/3sIEIHHPqaJ37g0aECNKwOR514/A5ni5ljQAq/Em/a1nSL7xQSJoSkqAv4mhM53tq9EcsEPv/8EXT9Xu/2qjv+tyZpr+KoJEEf73sp0yRBMbE/q+1tvBHItvkaHQ2luN1zCPWeRlJSsLmQh6k4+1Lp/ulD8ZiuprHOqbZ63uBBCef7DzyxuRodY2nYb6npqj57Mcqg2VeUacCOl7ZF/LboF/4VqG53yZVfWAw4FqelIQXC7lWdt9rOcf+rytj7P+Ob1yo9/76//QVC+a/0apuWr5Cb517hU5++TP9L18633Qz8Hokwa90rT/6ljUJyHU3vpHOUt735x5LY/9DkYhVDcAt4b6++kLrOPYHAVMJDNS5P5iUhIPZh2SpW95hf4s94sFrplb5TIXigIuFvN5fjyXmxX7POSzwJlbMh+voymKFP1unwyLf2P9tZ00xXWR3XXCmftXPfzyhmM5ftkzf/MOLTU9f9hXEo1+jkQR/0NPXXjvyimBl1+oJ05wr7iyfl3R2Wk38D4QIIeFo1DKzXrLeY9ivQgnwXPKXtv55r/TXLVbPrdCiKTnbHV5vulixz3fcEg/XXoBXhupOG3cxE7qIUNIvNPNYl2KAc92kES5ZsTNr+8iFZ+kt85oKEtK1v/2V6ekczeNvl3zDoNj/9VYxAC/JkYjcsWGDbZYcL/nhghM4g0BSct+SbSGVuu3lPPK/2ev7izMolycXMb//+JVe34v5xLzY73iOBRgMuL6ej0yq/owPDwaEFh7Cn63T0Sl8o1I2Tq0xXVhp1z5Ly3j0Plsu+bbpac01ATddfllR6R6dj9y/57e2WUH8/x0mZGHnhg0fyFeP8R0IWJpAOvDpE5OSsC/7kCxlS98P81zqd6FHPBjyermGi1m6MAxKXE+t52Iaq16s4I8+rp3rFMFHzgmQDnz61KTkaktKwsul1MV8x/JeifK+z5ob+5+5eE7RIjp/6TL9r3POK5sJWNHcXHTac0U/93OZY/+HQ9Hor9auXeu4VUcNegzhtFYkMBhwfynfw7KY766awndxla4aT5cVmdkxTW0+3/2jhbyUv2/jt1DQy4kG1wmvC7+73Qjhp3X51qlubgaIcmsrQ+x/e9MfSxLRK//vf8piAHZ+6/MlpTtX9HM/lyn2/wE5Evk+luO141MQaX4LgaQk9Bcj9vmOafX5uD1kW32+Z+nSt29JML4oikC4purT86v5RQWsq/HwiwaQhAFevVD56iX9rodzWOrNQXNj/+nAv7nLV5QkpKEr/lAWA0AWzC0p3bmin/28sMP02P8dciTyRSzHW9TjBwdZkcBOl+vYpCQcsUjKWA/Qib6/hWMLi3ZX99dWf9mKzOycphaf78pSWv25x9JJnuhUzxPVC6v8Tgcv5qa/lM90kOs/ZgRMFdO7vnZBySI6d9ly/bELppmabjoOYEFzS8lpzwp/dtu81rTY/4EwIefY+b5H2kEgL4FByX0urwc0bRGW8lDNPbZNFHfnTTC+LInA8qqqdy3yiK/msi7lc2wK14mBDDMTdBrjUvI5+tjVteaP/o9//+tcRHTnl2eYagC2/fS/uaQ7K/x0a0Ls/8EwIVd39PfXlHTD4WAQsDKBhORu4mUA6CQxox+Uxf4d8vkusjI3O6etW/T0FFsuo4+TRa9hos2rXtLzdHKO/R9sMD/2f8c3LipZSOkkQY9+rsFUA7Bq2dKS050r/vTzkrAxsf8hQl6RCVkT2rjxdDvf40g7CDARSPqFTTwetDwHWC33+p5iSjx2KopArMF1Ap1YabSYF/M3XSqY58yAPOri6HPQNSno0tHF5C/fMTTK5bFGtvnyc8PgSv1M4/9HC2Ghf7fOazJV/B+5cLo+dyX/0f9t67nH/j8vR6MrOnt7P1LUTYWDQMCOBJKS8OToB2Yxf/dxjP3vqvEstCNLO6W5s8Y7mE/civnuer6rBHLvUaAzFxaTr7GOIVPN7/7Pmofm+fNKMgGRX/3cVANw/a+Km7NgPGPDOfb/iRAhl4cJwRTjdnqAIa2lExicVvXJYsQ+3zEtnEb/L/GIB7pE8ZjSc4czjEdgnVjl4zUvAF1ZL1+dsMp3PCNTqCm4y+TY/6z40+2WH367aANAu//v+voFphqAFcuXF53esUzA8q5uHpP/PCwT8j/Nsdjx490n+A0EHEtgMOD+Mo+HNJ36l5eYdNd4tjgWuMUy1uLz7RqrlVvI93TsB496ZMQ56FwFheRlon2bfeVr/WeNQNflvy1KVK/52Y9MFf+dX5tdVDrHEv7s9+0bNhRvAKLR+8LR6DewHK/FHkZIjvkEEpJ7BY+HLh0JPtGDk+V3aiI21npqzSdRmVfsEr2/YSkXln3oGBAedYn3OdZzfDVFOdwQMH/q36zwZ7d/++K5+sIlSwoSV/run84jkD2HGdsNV/y+oDRmBX687cL2jqLE/7UwvnQoEmnEcryV+axDrvMQSEpCiscDl3YBs4jERPss9/mey5NMfGUQgZjLdQKv5YL7LRoOSBfrmajesf5ODeoD50umiuhYQk1NQPfvf8MksP2/uFSnAwjHOpdR3y80YPDfyjVrCjEAh8KE3CRHo0GDbiGcFgTsSyDpF17gYQB4vWNt9/luti9Ne6a81efbyyqA4+1Hl3/mUZd4nuMGzrH/q2rK3/0/WqwHfvBNvW3uFTp9v5/bcp63bJku//Fyffu3vmC68NM0pn/wjSPSk5u2Yj83rWzWQ5EIiwF4VY5E+jo3bHDb865EqkHAYAIZv/BeHg9bGgI238MnxCoser5mcLZx+lEEVtd6yHjCzvobNYE86hPPc3SJfHqmsgyUM82d+ne02I/3967PnanTmQJT3/uqft9XZumPza4vi/Bn09i5aD53A7BYDk8k/i/JhHR09vd/YlQ1x58gAAK5BBLSGW4eD1te0/8u8IiHmhoajs5NIz4bT6C/1iNlBa6ULZ0PgEd94nUOOkXxAk7GlHKh0x7vnmV+7H9WUO203X1BgyGx/+uUdcQAACAASURBVC3r1o1lAP4VJmR+eyx2ivF3DK4AAg4gwGsKYF4x1m0+37ADsNoyC0u94v5SxD97LMfVAUs2E1dyGpiazVtvnfW6/61qCm7+xf9wb/3PbWnJJ/575EjkF3IsdoItbzwkGgTKRSAhuS7m0driNQBwtei5tlwsKv26K72+R7JCV8r26jrrrAvQzmleiiyPP51dV9YudauKfb50rVy+jLsBWNq5KtcA/E0m5HuxWOzYSr93kX8QKIpAMuD+HQ8DEOY0x3rflKr/LiojOKhkAi1e75as0JWy7a2tLrnlzqNObuY4LwXlscKL1n8+oc/33V+/PIO7+NNBg229vdQA/KkjGv0CluMt+ZbHCSqdQCIghHg8bHnNANhTW/uhSi+TcuW/TRTbSxH+7LFWiQTYwDn2/xqp/LH/+cTWit9F/8AWmlhIJMCC9vYnQ5HI2eW6P3BdEHAcgWRAuJaHAeCxxvoCj3jAcYBtlKFWr/d7WREvZWuVlQF5rkpJY///ep4f3f+Mix8tWrmSWw/Agrb2vYvDYfQM2uhZgqTahMBgQEjzMAA8pgBe5hVfsAk2RyZzhdfrKkX4s8fS3iAedaqUc9w4dTK3iX9ovmQR3f+sPQ1D3/sqF/Ff2N7x4LLOzkZH3mzIFAhYgUBSEraX8qClx9I1ALIP/1K2rT7fHiswqdQ00MWXOBm5shsA+hqilLo4+tjN06wb+88qzGbt172g+JUK6SQ/CzrkO5d2dk6p1PsQ+QYB0wgkJeFPpRqAmzi1tjpF772mZRwXyktgsUfcN1r8Cv273HMB0Nh/Gq9faLrH2p/OI/DozAC6/xm6/3dfME2fV8TUv03NzYcWhULxxbJ8Wt6KiS9BAAT4E0hK7jtKNQC8plrtrvFs5p9DnLEQAiu93sfHEsJCvqczQ5Zar4o9/irOsf89U9D9z9p7cNvPf1hQ9//c5pYDizrkaxa1t2PynkJuVOwLAjwIJCXhrmIftNnjeBmAtaInwiNPOEfxBNpF8c+FCP1Y+w74y2cAOnxebq1/mj9tOmL/WQ1A67KlTAZgXkvrviVyZ3dzc/PxxddWHAkCIFASgWRAuCcr5MVur+e02Eqn6F1dUmZwcMkE2n2++8cS9UK+V8pkAOh4FB7jGLJ5pasIsopfpe/34JzzdPoOf7zQvvmtbc8tljsXIIa/5FsVJwCB0gkkJfd9xQp/9jheBkAWfd2l5whnKIVAi4/PbID0PXy2fpi5jXCO/Y/5EfvPamyu/P2vxhT/BW3tTywJh39aSt3EsSAAApwJJP3CzlIf0Ndx6gGQRc+VnLOH0xVIYAWnMQDlMgArvD6u3f9/Ruw/cw/Ikjyx/wvaOx5ZHA7PKbAaYncQAAEzCPAwANdyMgCdPu8mM/KMa4xNYJlX/Fe2+7uUbTkGAd7MKRolm+92xP4zi/8dF895o/VPXwMs7Oi4b0lo1bSxaxp+AQEQKDuBQcmVLLUHgNcrgLDoUcsOpMITsNgjvpAVwFK25TAAazjH/m+qR+w/a/f/mvlN9P3/ocWh0LZFq1a5Kvw2QvZBwB4EEpKwsVQDsGkqn4mAVoneu+xBzbmpXOARXylF+OmxdBBeqXWq0OOp4VjEMfZ/XnWN/jBi/5l7ADpWrrhuaUfHqc69M5AzEHAggYQktBb6sB29/wCnmQBl0fsPByK2VZbmVtccKtUA0HUhRtcRo/++pq6K67v/NbUY/c/a+t8zu37QVpUciQUBEHidQMLv+g2PhzOP0KuVXt8zKJfyEWg/7bR3lCr+9Phmr/lrAdAFiHikPXsOtWEKc+uXVSidut+exuB3yldrcWUQAIGiCSQk18U8DMBiDt2vCzziwaIzggNLJkDqJotZASxla/ZqgFv9bp122ZeS5txjaV3ewzDtrVMFvcB8vfjkBYETS658OAEIgID5BBJ+4XweBoBX+NVqn+8M8yngipRAj+j9Ta4QFvuZDsbjUadYz0E4x/5HpyL2n9kEzA704e4BARCwKYGE5PKwPmjH24/X9KurXxMhm6K0fbJDolcpVvRzj+urrTbVAKzkHPt/z2enovufsQdkz6zgObav+MgACFQqgUTD6e8fT9hZf1vHKQSrq8Z7a6WWRbnzvdzrezJXyIv9HJtSZZoB4BWBks1riw+D/5hb/43BXXrTpKPKXW9xfRAAgRIIJCVhD6vQj7UffehnH6KlbEM+764SsoJDiySwvKrqXTwiAGjZ3zLVbZoB4GU8s3X2xiBi/5kNwOzAwiKrGw4DARCwCoGkX7hxLGFn/Z5XS2ypVzxgFS6VlI5FHvHCrAiWsp3vqdHNmgSIXofH4NNsfulAwr/PkND9z9r9f0Hg05V0jyCvIOBIAgnJ3cQq9GPtRx/G8zmNxF4rVp/rSNAWzlSzz3dTVghL2bb6zAsB5DUFdTa/XTXo/mdt/e9pDGoWrs5IGgiAACuBZFCYPZawF/I9jf/OPkxL2Xb4fNexph378SGw1Cs+U0qZZY9da2IEQJhz7H8Csf8F9H4Efsin5uEsIAACZSWg+Ks/UojQj7VvN6eBgMu94vNlBVJhF1/j9X48K+Clbs0aADjgF7jG/tNphB+bFSxAACt6332PzgqeXGG3CbILAs4lkJSEx8cSdtbveQ0EpCLUU+NpcC5ta+VsdU11e6nCnz3+Vr85AwD7p1Rz6W3KpruvDrH/rN3/w7ODMWvVYKQGBECgJAJJyX0Lq9CPtR9dE4DHlMD0odxVUz1QUoZwMDOBVp9vb1YIS9mauQZAi4/P66Zsfnecg9h/VgOwd1b9LObKhR1BAASsTyAZEP44lrAX8j0dBJZ9qJaybfb6XonNmfN265Ozdwrba2qmlFJOuceaNQPgrZxWn8ymfQVi/wt59bFXx31p75seqQeB0QRSU8/wFSL0Y+27geO0rBtqqy4dnU78zZfASq9Pywphqdvr6iabEv/fw2msSTa/10mI/Wdt/Q/PDq7gWwNxNhAAAUsQSEqux8YSdtbv6SQw2Qdrqdtmr2/YEmAcmohmn+80XpP/LPCIpsX/01cNpdat7PH0ldXfzkfsP6sBeHzmtMkOvR2QLRCobAKDflcnq9CPtx/PB7Ts882u7FIxLvctPl8yK4SlbjtFrymt/+vrJnMTf5rnMGL/C+j+D9xpXG3EmUEABMpKIBlwzRhP2Fl/o7HgpQpK9vhmr7i7rFAcevH2qqr/mFddcyjLudTtVSbN/7+Kc+z/1mlTChDAig79o5x+5tDbAdkCARDYNOO0dyT9wgusQj/WfrymBc6K0ura6i+jdPgSaPN6t2T5lrql3f+KJBjeA0CvQacaLjW92eMXeGr0XYj9ZzNAs4P7986oP4VvLcTZQAAELEUgGRCuHUvYC/meVzQAfVi3er2PWwqSzROzus79wfkefq1/s0b/X8lpwamsAVhfh6l/Wd/9722sv8Hm1R7JBwEQmIhAQnJdXIjQj7Uvz0mB6AN7Ta3nlxOlHb+zEZB93q1ZEeSxpT0+Y9UDnt+3cQoxzeZ5aDpi/1kNwPCswOfZahf2AgEQsC0BNTj55KQkvFTqg5suDkSnV80+bEvdLvaIr671ek+1LViLJDwser7Ga7ImWqZUlEutKyzH3+bnF11C073Mi9Y/s/g31j+1c47rWItUYSQDBEDASAJJybWW5aE80T6847XbRPFvRubb6edurav74CKP+EqpZiz3+KvrqkwxAL0c55eg6b9KwtS/rAZgb2N9h9PvDeQPBEDgMIF4cLI4kbiz/E5bbTxbm/TB3Vnja0JBFUeg2et7IFe8S/282MTY/6Vefr1JNN9/Oc/PNvitseJH/uvDMwM1xdU4HAUCIGBLAklJ2M4i8hPts5pjSCB9cC/wiAe7RPEztoRaxkS3iSK3BX+yxoHUVpvS+r9xKt/Y/w4R3f+srf/hWcGdZay2uDQIgEA5CAwGhG9PJO4sv2/1u6locxsLQMWnxef79w5RfGc5uNjxmq1e7zSeMf+0DJaa2PrvFvnNK0HTfms9pv5lNQB7Gusvs2OdR5pBAARKIJBo+MRxSUl4ikXkJ9qnj/P7W/oQ7xY9D+4QxWNKyGJFHLpEFN+z2CM+T5nx/E9D8iYqdx6/xyWBq4GcX12jPzIzgO5/tlcbB3ZdEMDA24p4UiCTIDCKQNLvWsbrIU5bjDwFiJ5rTU31Dn3SpLeNSjb+PEyAsmnz+f7Om/sKrzkj/2nd4x1OurYW3f+srf/hxuBtuJlAAAQqlIAanPyppCQc4GEC6FSxvIWInm9djWdLhRbPuNmm4h8WvXcbwfxak0b+03rX7vNyrTfbzqpD65+t9a/vmVX/lXErGX4EARBwNgFeCwTRh3kL54lcqLjRKIN1tR7i7FIoLHdNDQ1Ht/p8O40Qf7Pi/ml92cI5imSJV9T3MIpfAa1kpxqKZ3fP8R9fWM3D3iAAAo4isE2q+kBSEp7l0QvAezR3VuCoCeip8bQ4CnyRmWn2+49fzjncL8uZvj+/1W/OrH+0vvEeO7JxKmL/2Y1NYHWRVRCHgQAIOIlAMuD6LQ8DQM8R5ryaW1ac5lXX6Ktrq1c4iXuheVk8efLJSzzio1kmvLdmhf1l69pyr49r9/995yL2n9UA7LmgPlBo/cP+IAACDiRwOCLg0eyDuZQtDQukE8jwFqfs+eQa759i/srruuwQxc8s8YjPZjnw3tLFnUop90KPvYlz7H+rD4P/WMV/b2P9gw58jCFLIAACxRIY9AtfK/QhPtb+9FUA7xkCcwWvxed7LlZTPaXYvNrtuPU13gvoWgm5DHh+pkvw0lkdxypPI77nPYHUzUHE/jMbgFmBP9jtHkB6QQAEDCRAR5UnJeF2Xg972p3MU6RGn2uxRzxIaqsvNxCJJU7dW1u9ZKFHPDQ6/zz/jk4xZ8a/bN2iC0kt5NhLRF8P/X1G4BCrAFb4fof2XtjwCUtUbiQCBEDAOgQSAVcw+5DmsTVqPEBW/OiDv6fGk3birIFr/MJ7O0Tvn7N5NWrbKXpNbfnTekUXGOKVHzp19JX+mjsqXNQLiVRIWOeJg5SAAAhYigDPsEBFEvTlnBd5yScczV7fi2tEzxxLgSwhMetrqy9f7BH358srz+9Wen06nYmPh9kr5BwhDrH/Cz3iQbnGe+M6r/eU4cZgEgaAbVGjvbPrLy6hauJQEAABJxPYfG7Vu5KS8FAhD/Tx9t001a3Td8w8hWusc7X5fPeuneKttmv5RGurZsui93Ejx09k2S3yiPpmk9/703pCB4mWkr9FHvFAuMZ7TXjy5JNpOdPu7OHGILr/2eY/eOGJOQ0n2PX+QLpBAARMIBCfKgSSknBwPGEv5DejZgnMilnulpqNbtG7/Sb/ZNusKEhqPR5Z9N5PX2nk5sWoz1SAb6ibbHrLn9aZSJFjQxZ5xFc7fd7+SF3du3Nvgb2z6/+I1j9b63+4Mbghlx0+gwAIgEBeAglJWFKIyE+0bw/nZYMnEkcairiuxvOna6dM9ufNoAW+XFPjCXSIXo1OwDNRfnj+bvagv9y6QdcZKCQvNPohLHp7N1RVvStfkQ3PDj4EA8BmAB6fPW16Pob4DgRAAASOILDT5To2KbnuzX14l/rZbBNAhYa2qttEcXeXz/cTKyws1ORynSCL3hUrvL6nChFCXvtuqDV3xH9unbm5gNj/JR5x/yrRu6anoeG4Iypmzh/DjYEgxJ9N/Icbg49aof7nFB8+ggAIWJlAPChUJyVhf+5DvNTPvUV2AfMQwMUecV/Y503Gaqu/TCc/Mou9PmnSUd21nu+3iuJd86trDvLISzHnKKf403qzlqEXaIlHfKVT9Ia7GJaCHm4MrIYBYDQAs4ILzKrvuA4IgIBDCCT87l+WKvqjj6dCVIyA8TxmmVc8FPJ5966p8dwQqa3+RszlOpZXkcVcrhM6fb4vdYje3laf72E6ZwHPtBdzrnKLP439pwMPx0r7Uq/48irR15poaDiapRzoQjbDjcFnYQDYDMBjM4Ons3DFPiAAAiBwBIFkQOgdLeKl/s17IZixhIX1+wUe8VCLz/ck7SHo9lX3r62tbuutrf4Nqan+5nVTPQ0DwcmfyviF98bmzHl70ycajmsXxf/sET0Xrq+t+m1vbfW69bXViU7Ru2ul17fPrMF8rHkrt/jTunLNGLH/y7ziS101nmVNkyYddUSlm+CPPbODX4X4s4n/3sb6zAQ48TMIgAAI5Cfw+ngAQS1V9EcfX+yIcFbh47kfHTlPZ6+zmriPl0eaZmq0RnMvx9/yqEWilnvFF7pF7/xi30sPNwZvgwFgMwDDswOX5L+z8S0IgAAIMBBINJz+/qTf9Q/e4mH0lMHjCaSTf6PhkLTVzbu8ijkfjf3PGqflPt9zXaK3pLnod10QOHW4MXgABoDJALz88IUNJzHc4tgFBEAABMYmkKoXXElJeLYYERjvmOvqJo/7ftjJQm1E3pZ4RP2WqeWJ889XztTkrfD6nukWq389du1i/2VPY/1lEH8m8df3NtZvZCeLPUEABEBgHAIJv3B+UhIO5HvQl/LdFr9bb/MVFiNuhHja/ZwtPt/IbHullAXnY5WrpkzmOk3zcGPwzzAAjAZgdmDGOLczfgIBEACBwggkJfePOIvEG13VdMBaKVPF2l3AS0l/l+gpy9z+Y9SFzXRGycJq1sR7D88KihB/NvEfbgzu1V8btDoxVewBAiAAAgUQSEruS8d48L8h5sX+Tqeppd3YpYhhJR1LZz20yvv+QUm4OR501RVQlQrade/sQDsMAJsB2DOrfnlBcLEzCIAACLASGPQLP0lKwqFihX684wb8bp3HqnFONwKrRK9OWY3H0oTfDg1KwvXx4GSRte4Us58uiscMNwafhAFgMwCPz5LcxXDGMSAAAiDARCARcP/QKBNAhat/ShUGCOZZK8AirX4q/FfTGSOZKkuJOw3Prr8Q4s8m/sONwTtKxI3DQQAEQGBiAoN+1w+MNAGKJOh0CmGzlhW2cq8BDadbU+Mpd6ufrhTZHw+4hIlrB789hhuD18EAMBqA2cFL+ZHHmUAABEBgHAKDAff3jDQBtDeAxpNT8cvGlFtZqHmnjQ6MpN39t5W3u/9AUnL1Jcqw1PLw7Ib3D88O7ocBYDAAlNPshvePc7viJxAAARDgSyAuCV9I+oUXjH7nfKvfrYdHzSzHW3CtdD46FuKWqWV9z/9qUhJ6En7hNL41hv1se2bV/xTizyD+jSP7XMdOFnuCAAiAACcCqTp3VVISHjbaBNDz3zR1st7u8zoyWoC2+Knw31jeCX3oSpDdg9OqPsmpehR9muHG4A4YAEYDMLv+wqJB40AQAAEQKIXA69MGCwkzTAC9Bu0Wp2MElnrtHzpIB/etr/Hom8vb1b8vKQlhNeD6WCn1gNexe2cHBIg/o/g3Bp+k0RK82OM8IAACIFAwAbqsayIghMwyAdnr0DkEukSvvsBTY6uegXafT7+6rkqny+Zm81KG7ctJyd2u+Ks/UnCBG3jAnsbAMhgANgNA50kwsChwahAAARBgJ5CUhO8nJeEVs8UsLgn6lVOqRqYXtuLMgnQgIxV9uiJimQf2UcPxYlISViZqXR9iL1lz9qQz2Q3PDg7DALAZADpTojklg6uAAAiAAAOB1NQzfElJ+LPZJiB7PRo9QGfK66nxjBiCcoUT0lcUq2s8I2mhoY3Z9JVx+3xSEpam6r2nMBRjWXYZnhk8H+LPKP50AOCsYHp4dn3L8Ozg1x6bGTy92OWWy1LYuCgIgIAzCWyacdo7kn7XsqQk0Bjysoof7Wa/eepkPTqleiS0bhnnsQO0db/c6xuJVFhfW61fNaVKp5EL5c53zvWfTUjCgoEpn3mf1Wvb3sZgPwxAAQbg9SgA/U1mgWf2NgYHhmcFF+y5oD6gN006yupljvSBAAg4lMCg3y0lJeHBHDGyhDAqfkG/dap7ZNQ97S3YOKVqpHue9hp0ix5dFr16q8838r/D59U7Re9Ia35djUenCxjRJW+p0G+a6i73e/zxeP47Ibmb1ODkk+1Qvf51zjnvGW4MvvSmmJUihDj2MEc6lXLv3sb6Lz55QeBEO9QDpBEEQMBBBHaI4jsH/UKH0RMHWc1klDE9Tyck4fKhutPebadqNNxY/32Iv6HG5ZXhWcEtw7OD39w9x3+8neoG0goCIGBzAsmAcFZSct1bRmEcr7XsgN9cTwxKwq8TDa4T7FhVhhuDKgyAoQYg51VB8N97G+s7dl9QX2XHuoI0gwAI2JCAPmnSUYN+93eTkusxGAFuYyMeH5Rcv6A9LTasEiNJ/ucM6T8h/qaJf64RoJ+375kd+N4TcxpsaRztWueRbhCoWAIZv//4ZMD9u6QkPAsjULQR2DPod/+MsrR7RdozKzAXBqBsBiBrCJ7b0xgMPTaj4T/sXp+QfhAAARsQoCFph8cH0GloHdANb0oediUl4cc00sIGRTxhEmno2vCswMMwAGU3AFkjsG+4Mdj2xMwGy80TMWFlwg4gAAL2I0Dnnx8MCC3oERjXQDxMl2Le6XIda78SHjvFe2fXnwnxt4z4Z00A3b44MisjVhocu/LiFxAAAX4E0oFPn5iU3JcmJeEh9Ai8YQa2Jf2uObE5c97Oj7R1zrS3MbgOBsCSBiBrBp4bbgzOf/jChpOsU2uQEhAAAccSGBksGBAuSEqCUqFG4KVkQCApv2uKYwt50qRJw7PFdw43BqnAZMUGW+uyeJqGEDq5PiJvIAACFiMQD7gEOpNdUhLud7gZ2D8oCTcPBlxft2soX6FVZ3hW/Tcg/rYzP5v2fG7aRwsta+wPAiAAAiURoGZgUHJdkZTc9znEDNCpkuN0EaWMX3hvSXBsePBwY3ArDIDtDADtpXluuDHwQ6w9YMObDkkGAScQiAeqPj0ouX+flNyDSUl42UaG4J+DknD1oF/4Sar+jA87oSyKyQMNNxtuDB6EAbClAci+qknuvsB/WjHlj2NAAARAgAsBOjL+8LoDlyUl4aakJDxtIUOwOyG5I3QEf8I/+TNcMuyAkww3Bn4L8be1+GdNwEt7G4M/cUCVRBZAAAScQIB2TY6MHQgI/z0YcC1PBoRrR6Yh9gsvGGgMnkxKrkxSEjYk/cIfEpLwFRre6ASeRuRhuDF4v1MNwGOzAvqjMyX9H+f79YfOq9P/du4U/S/n1Or3nV2j3z3dp9/Z4NX/dKZH3z6tWt/R4NHvOsun33u2OLIP3feh86bqD8/w67tnBrIia4ftBqwxYMSdgnOCAAhwI5CodX0oEXAFBwPCt0deIfjdi5KSuz0pudYmJGHjSA+CX0gkJeH2pCRsPxyJcAMdlZ+UhK6E5F5BV9lL+N2/TPqFryYC7ppEgwchUgWU0OMzg3VOEn8q1vd/tnZE2LcFJ3Of0EoNuHWtvmrEKFCDsGumZFVDcMfwTOnjBVQF7AoCIAACIFBJBIYbg2G7GoA9swL638+fqv/57JqRVnwq4OYu+Cy9VJn6qpHehAfOrdNpj4OFeD75WGP92ZVUn5FXEAABEAABBgIPzpjxjuHG4L8sJFgTiicVWNrCp132gxadsnpoWpV+73Rx5JUDNSll5ntg76zgLxiqA3YBARAAARCoFAJ7G+u/WGZxYhZH+g6fvp8vVyufpScg3z6DAffI6wjaU1Fe1vURXRSPqZS6jXyCAAiAAAiMQ2BvY/DG8orS+CPvs619+s49n7ja7TuaDzoAsWyvCWYFrt85x1nrV4xTvfETCIAACIBAPgKPXyR9YLgx+KoVDcA/zp9qy9Y+qyGhvQK0N+PRGWUZQLjp4YaG4/LVCXwHAiAAAiBQAQSGZwV+bjXxf2SGNDKYj1VI7b4fHcNAjUAZIgm20rUfKqCaI4sgAAIgAAKjCQw3Bu+yigGgXeL3TBctO6jPaKNBewRo/nebO2Aw+cSchhNG1wv8DQIgAAIg4GACuy+or7KK+P/1s1P0tAHx+kaLthHnpwMc6QRFe8xbhXDb0zPq3u3gqo6sgQAIgAAI5BIYbgyuLLcBoO/5h6ZVO2JwH28zQAcL0qgHk8oogeiA3LsDn0EABEDAoQT0hoajhxuDj5skLm8RMfq+m06/y1s0nXg+OiWxSb0B3Q6t7sgWCIAACIBAlsDeWfWzyiX+dF59OpWuE8XaqDzRWQZpb4nhZTYr8PNsHcEWBEAABEDAgQSGZwdjhotJnnfYNP7dqjP3GSXePM/753NqjDYBB4ZnBs93YJVHlkAABEAABB6dFTx5uDG4z0wDQLuw7zwLXf48zAB9dWLw1MLPDs+adgbuFBAAARAAAYcRGG4M/NBM8afv+zHQT+D6yoPyNHTegNnBhx67aMr7HFb1kR0QAAEQqGwCexqDmlkGgM59ryK8j6v4Z3sRaNikseMC6jfrkya9rbLvFuQeBEAABBxC4LGZwdPNEn+6Wp8d3vfTCXhSAfchO6Q1K/7ZLU0zXX7YqDLdOzv4Y4dUfWQDBEAABCqbwPDswEKjxCL3vPedLRrS6s0KX6FbKpTbgpNf2T6t+vEdDdU77jzLG737bPEX95wl1ulNk47K1oqdDa4T7psu/uc9Db6p90z3zb7nbPHbd5/l+9+7G8T5d57lXX/7mZ6H0sHJrxZ6fSP3N9gEvLD7Av9pWT7YggAIgAAI2JAAFbrhxuCuXKE24jMd6W+k4LGcm7bqb59Wveeus3zN955Veybv1e/uPkcM3n2WuMYqhsBQEzArmM41STas+kgyCIAACFQ2gcdnT5tuhODnnpNO6csi0EbtMzSt6ikqzHdPr/6ImaV973TvtDvP8q29/UzP3+nrBKPyN955jTQBexrrLzOTJ64FAiAAAiDAkcBwY7A3V6x5f37wvLqyvPPX6queu3O696p7zq1xc8RV9Kn+Mt378TsavJvSwckHxhNsI3573QRMMWJMwL7HZ0mW4Ft0weBAEAABEKhEAnTFt+HG4Au8RT97Pjran3a7GyFqY53zT2d6IYFt5QAAGXRJREFU76Utb6uWJx1PcNd07+pMfdXLY+XBiO+pCTAmOiBwJ9YLsGptQ7pAAARAYAwCe2cFvp0Va97bh8/301H0pok/7ea/96yaz42RVUt+fc/Zvt8NTat+2gjBz3dOGiJoyDwBs4OXWhIwEgUCIAACIJCfwPDsYJy38NPzPTLDb9q8/tuCk/fT0fj5c2iPb++dLs7ZPq16OJ9o8/5uaFqVETMGPomlg+1R15BKEAABEJg0PFP6+HBj8BBvA7B7VkCnLU3ewjX6fHRQ3R0N3htpl7pTipOGFJrxyuSOBq8B4wHqFzmlHJAPEAABEHA0geHG4OW8xZ+ej4rLaLHm/fefzvT85d5zxc84sYDuPatmZqa+6iXezEafz4AFhF7a3eg3NcrCieWPPIEACICA4QSGG4MP8DYAD5xrbLgfbR3fOV1cYjicMl/gwRl1795xpueu0aLN8+/XBwX6ufYE7G0Mri0zOlweBEAABEBgPAJ7Zk2TeIs/7fpXDRz0pwbcB++d7vvOePly2m93Tfc10XzzFP7cc2n1VTpdkZFjXTiIsECn1ULkBwRAwFEEhmcHuzg+9EcEZEeDx7Cu/231k/fRWfYcVQiMmdn52VqPkZEC954t8jQA+nBj/S2MWcNuIAACIAACZhJ4uKHhuOHG4L95GoC/Gdj1PzSt6l90Eh0zGVntWomGhqO3n1n9SG7rnddnI14FDM8KilZjiPSAwP+3d++xkV31HcC3kKRVCq0aoClK0xJBKAr2PP2+587cmfFj7XuuyUZdtekrPCoViqhAgKBVUYhCm5RSBSGaJhWkrRQQKVBaUFDaUC1Zb/z2eLxeZzeb7Cv2PdfZZfMk2TzITvvz7mTHXu9i+/7OzH18/4j8iO+553zO2Tm/e+55QAACsRdwpfF7nJ0/rSvXNfQ/kU89Nu1kL499pW3bto0cJnLJ41wdf3063K8CXNv4F9QZBCAAAQgETEBJ8UPOAGAqr2fof8ZK/yhgdE3PzsJA9xVjZuuz9Z031/f7Sm2crwJOLe3oeEvTwZABCEAAAhA4I3B8yPqN/1/+9zOuAEDXIT/TVmoEdba+AL0O0bFMkHZtpImcXG0DBwWtX3/4LQQgAIGmCHiO8Sm+D3ihZcMf2tKX3nk3BSgkN6UDjmgHRK6n/1o6c0XGCYG2cQTHBYekQSGbEIBA9AVcKfZyBQA6nv73iNZXZ/tS10a/JvyXkFZFcJ8sSPsscJ4V4NrGsP+SIgUIQAACEPAl4A7n0lydP6UzaiZYl/1R51MpZf7IVyFjdjEdfkRbItee4Dm+zhYybK8BlC3+J2ZVguJCAAIQCJ6Acsw7uAKAg/2drJ0/dVyzhdQ9wVMLfo7KhcxdHB1/fRp0mBNTWzm9ONz9ruArIocQgAAEIipA72KVIxTTh3p1PJdkDQCm8sn9EaVvSLHGc4mn6ztwv9+XC3yHBbm2+ExDEHATCEAAAhA4X8CzjQJX5//4QBdr5z9mJn5Ke9+fn2v8ZqMCs4WsTRv6+O34a9fT6xiuFQGeNEc3Wg78HQQgAAEIMAsoKf6ZKwCYZFz3Tx3NnJXpYi5uLJObslKjtQ6c4+tCL9u+AK89Odx5ZSwrBYWGAAQg0EyBleF/af6EIwA4vL2b7SmTOqnpfGqimTZRuvejVvattIqCo/OnNB4WrVzzAKquY3woStYoCwQgAIFQCHDO/p+20mwBAM1er5Q63h0KxJBkslJI38IVAFA6jw10sgQBnhTfDwkhsgkBCEAgOgLKMT/B8fRP74Q5Oxcaso6OcnBKMpFLKq56om2eOdqOkuJFhTMdgtNIkBMIQCAeAp40/4vjQ3x/XztbAEBP//PF7DvjUQONLSXNqaC5FVxBANdkQOWY1zdWAneDAAQgEGOBM+//xVMcAQDnoT8zVnp3jKtFe9En86mDXAEAHfXM0X6ULe7SXnDcAAIQgAAEzggsDfWkOD68l2yjyvVUSU//dKAN6kifQKWU/SRXADBjse0JMK2vxEgZAhCAAARWCSjb+DhHAHCwv4NtSLlspXetyiR+YBegw5S4zgkYMVp4RgCkeKmazV7KXlgkCAEIQAAC5wso2/hPjgCgzDT7f2XmfzF51fk5xW+4Baat1DjXKMCh7V0sQQCtSOEuJ9KDAAQgAIF1BJQUJzgCgBHBM6lsOp+qrJNN/EqDQKWQuYErAOA6Jhj7AWioaCQJAQhAYK3A0o6Ot3B0/nQ8LFdHUi5mb1+bT/ysT2DUTLzIUXfjuQTLCICS4k59pUXKEIAABCCwIuDauR6OAIDz/f9sX+paVE/jBGas1A84AgA6Z8CVgiMIwM6Pjat+3AkCEIirgOeY7+cIAPYWsywjAKNm4lRc66JZ5a70tqU5AgBK4wjPEcGnqpZ1SbM8cF8IQAACsRBQUtzGEQBM5nmO/sX7/+Y0u/Fc4imOIOBAH89+AEtDAts/N6cp4K4QgEBcBJQjvssRAOxm2lWuYqVvi4t9kMrJtRpgrpjheAVQpaOpg+SDvEAAAhCInICSYp/fAOAY4wRAbP3bnCY2W0jdwzECMJFLsgQAShp/2BwJ3BUCEIBADATObgH8kt8AgNZ/c3QeNBs9BuyBLGKlmP4wRx1ybQjkSfPTgYRCpiAAAQhEQeDEgPl2v50/XX+AaQfA6XxqNgquYSwDrbzgCAAoDZaVAI55RxgdkWcIQAACoRBYlLlrOQKAfb1tLCMAs4XM3aGAi2gmR4yW0xxBAO0J4bdduba4L6LMKBYEIACB5gvQlqt+P6jp+koxwxQApP+2+SrxzcGYmXiOIwA4zLMl8Eh8awIlhwAEIKBZQElDcAQA01aKJQCg0+k0FxnJX0SA63jgg/2dvkcAlBSHLpJV/C8IQAACEPAjoGxzgCMAGM/x7AEwV8re5Kc8uNafwIyV/iHHCMD+vnaOAOBpf6XB1RCAAAQgcEEBZRs3cAQAY2aCZQRgtpC1L5hZ/A/tArQHA0cAsK/UxhEAPKW9wLgBBCAAgbgKKEf8cZACgH2l9va41kUQyj1XyvwVRwAwzxMAnAyCCfIAAQhAIJICnm1+JEgBwHx/+9WRhA5JoSrF9Jc4AgCeEQDzJyFhQzYhAAEIhE/Ak+KjHAHAKNMrgF04AKapjahcyHydJQDoZXkFcKKpGLg5BCAAgSgLeLZxU1ACgIeMlmqUrcNQtnIh/V2OAGCBJwA4HgYz5BECEIBAKAW4JgFyjADsNlpOhxIxQpmesdIPBigAeDJCtCgKBCAAgWAJKKenn2MEYDzHswqgUkxeFSyheOVm2kqO8QQALMsAl+Olj9JCAAIQaKCAa+d6OAKAqTzPRkDYB6CBlb/OrabyqXmOAOBAXwfHMsCj62QRv4IABCAAAQ6B5aFcK0cAMFvg2Qq4YmX/iaNcSGNrApP51CGOAODxgS7fAYArxfjWSoGrIAABCEDg5wosO7lrOAKA+VKWZSOgaSuF/d9/bq3p+4OJXFJxBABHB/0fBqSk+J6+kiJlCEAAAjEXUI71Vo4A4JG+dpYAYDKfXIx5lTS1+KNm4gWOAMC1Dd8jAEqKO5uKgZtDAAIQiLJA9fPb3qCkOOU3CKDDXzg6jlEzcSrK3kEuG23CxFGHI0YLR+df9Wzjc0H2Qt4gAAEIhF5ASbHPbwBwZLCbJQCgvQCwGVBzmlSlkL6FIwCgcyH8tie63pXmnzZHAneFAAQgEBMBJcV/+P3AdqWoPtTzXpYgoNKbFTGhD1Qxp6zUFEcAMGOlWQIAzzZxMFSgWggyAwEIRE7Ac8TtfgMAup7rRMBKIYuh3ya0Mq73/0y7ANIIQKYJDLglBCAAgfgIuI7xIY4AoFxIs4wATOdTC/HRD0ZJud7/0wjCoe3+lwBSe1wc6L4iGDrIBQQgAIGICijbMDkCgEd6eVYC0JbAC9Z1b4oodyCLxfX+nwKAJY4VALZxJJBQyBQEIACBKAk8Odx5JUcAQE9+HO+QKY1yMXt7lIyDXhau9/9cEwCVNL4TdDPkDwIQgEAkBJQUT/sNAujJj2si4GQu6UYCNiSF4Hr/TztC+m1HZ643PhsSOmQTAhCAQLgFlDTv5/jgnswnWUYBKJCY6++4Jtyq4cj9nJXp4hq5YToDoOoOG33h0EMuIQABCIRcwLXFZzgCAJoBztWZzBQy94acNRTZn8on93PV2SLH+39MAAxFu0EmIQCBiAgsO0YXRwBAe8BzdSZjZuuzEeENbDH2FtM5ttc2+STT8L84HFgwZAwCEIBA1ASq2eylSooXOIKAUTPBFgRQBxU16yCVZyqfepQrYKNVIBztR0nx7SAZIS8QgAAEIi+gpHiQ4wN8rshzMiB1TNNWek/k4ZtUwH2lbIHr6Z/q6okhlhMAq8oRf9EkEtwWAhCAQDwF6PAVjgCAczkgnQ2AUQA97XEyn3qc6+l/PMc2/F/1rrfeoafESBUCEIAABNYV8BwzzxEAUBqcrwEmcsnj62YYv9yyQKWY7efq/Ckdru1/lRSVLRcKF0IAAhCAwNYEzs4DOMkRBHDtCljrpGYLmS9urVS4aj2ByXzySM3W71c6/pdl9z86AdA2blkvv/gdBCAAAQhoFlCOuJsjAFjZFMhoYZsMuEe0/my+1Hml5uLHIvnZQtb22+nXX7+3lOWa/IcDgGLRAlFICEAgkAKeFBZHAEBp0K5w9R2F3+9pu9pAooUoU3TGwpiZeM5vXdSupzkaXGv/lRRPhIgSWYUABCAQLYHq57e9QUmxxBEEHNnezRoA0Iz1SiFzQ7TEG1uaqXxqvtZ5c3ytFLm2/hVVV4qvNlYDd4MABCAAgVUCSop/4AgAKI2JHM/WwLXOijYHoiBlVYbxw4YEZguZu2uOHF8pIGNb+kfv/7H974bqEX8EAQhAQJuAGjLauAIAziWBtU5rtpC6T1vhI5rwXLHtRhqurxlyfC0X0mzv/pVtHKnu3PnGiPKjWBCAAATCI6CkOMgVBEzlU6wdD3VeOC54421pvph95x7R+ipHp1+fxtHBbs4A4OMbLxH+EgIQgAAEtAkoafwlVwBwZJB3LgB1QivzAUrZT2oDiEjCuyzrkvFc8kR9x83x/bSV4uv8pfHMiWHjzREhRzEgAAEIhFvgmC1+TUnxPFcQULbS7KMAu42W03Ol7E3hltab+2krNcLR4a9N4/D2LrYAwLXNv9ergNQhAAEIQGBTAsox7+AKAI4N9aw8ta/tSPz+PGK0nKZ17ZsqWEz+uFzI3OXXd73r5xhn/ispXnXfl7s6JlWCYkIAAhAIh4CSxm/RBzRXEEAbxqzXofj9HW0SNGdlusKh2phczljpB/26rnf9qNlKu/WxPf0rW3yzMSK4CwQgAAEIbEpASfNergDAZT4joL6Deli0vrxQSl+3qcJF8I+nnezlk/nUwXobzu9pVQdXe1hJxxbZCFYDigQBCEAg/AJLUiQ5P/APb+/W8iqAOrlRM3FqrpAuhV99ayWY72+/ejyXPMnZ4denRcc8c7YFJcWurZUUV0EAAhCAQEMElBQPcH7w63oVQJ0VTQysFLJfawhMgG4yX2zvedhsfam+w+b8nk53ZB36l+L08pDoDBAhsgIBCEAAAmsFXDvXwxkA0KuAMTOhZT5ArdObzCeO0RPx2rJE8WdaCTFitLxWK7uOr5yz/s+2pW9EsS5QJghAAAKRE6DJWpxBAO0NQGv5dXRWtTRp85tKMf3hyFXG2QLRlsg02sG9w1/Nr/aV87S/s23oRcz8j2qrRLkgAIHICdAHtpLiBc4g4EBfh9YAoNaBla30roWd110WpUqpFNIfHDMTz9fKqOsrjdTQiA1nvSspbo1SXaAsEIAABCIv4ElxM3NHUKWJZbo6r/p06RChKEwQ3FvIZCfzqcP1ZdP1/R7RWqX9G1jr3BHq+E7rTZH/x4ICQgACEIiSgHKyl9OZ7awdghRVHWcFXKhTnMwnF/cWMx8IW70sDHRfMZNP/+9u5gN9LuQ0YrRU6TUNd127UoTOPmxtBfmFAAQgoEXAdcSN3J3Ckm3QEr6GjATUOryxXOKZipW9NQxHC88WM1/WcZhPzWLtV5pTwL7ef+U1glEOg7eWfzhIFAIQgEAUBJQt9nAHAccGe6r01Lm2M9L9M20gVC6k/+2xwc5fCVLd0LK+cj59P+1toNugPn2amPnYQCf7k79yxCsKm/4EqYkhLxCAAAQ2L7A0JN7NPSGQAgoacm5GEEAdIC2joyH2vYW29zXrKXWuv62lXMj8+5iZeK6+U27k94/2d/B3/mee/j+7+ZaGKyAAAQhAIHACyjH+jHsUgNKjM+ZHRONHAuo7WQoGJnLJxdlC6j4KCHTiP1JM//ZsIXWPzh386st2se/397Xr6fwd46FmBVU66w5pQwACEIitgCfF9/UFAa0Nfx1woc6RAgKaPFgupL81V8w4W6nwRwayb99byP4Bvc+nkYbJfOoQLePTvRfChcq09vf7Sm16On9pPEOHSm3FDNdAAAIQgEBABbxB821KimVdQQAtQ1vbUQXhZ5okR0HBw6L1lVEz8eKYmXhmIpc8TrsPTuVTj07nU+VpK72Hvqf/NyL07tLn12Rfr67OX1Rp0mhAmy+yBQEIQAACfgQ8aQzpCADOvA7oafjqAL+daZiupyWFWib8vb5xkHmvn7aFayEAAQhAIOACri3+UVcQQEsEp61UIEcCwtTZr80rLbuk+Ra66k1Jcfip3t5fDXjTRfYgAAEIQMCPwBHL+iVPmqMaO5PqfKkxOwau7Sij+DNtvESBlb76Mp7xHOO9ftoUroUABCAAgZAInJ0PcEhfpyKqB/s76bhfjAb4OERJw8E+qwMJR7yyJM1SSJotsgkBCEAAAhwCyul+j5LiKZ1BAA1bj+cau2tgFEYBKHDSt8b/3GFB2OqX418S0oAABCAQQgFPCktJ8bLOIIDSpmVrQVlCF/QAYSyX0LKv/3l1bIsvhLDJIssQgAAEIMAl4EnxJ+d1Dq/PDD/3tOj3b86MBiTxSuACrwRoQyVtm/usrU9bfLO6bdsvcLUhpAMBCEAAAiEVcG3jFr8d/Eavp3XstDY/6E/ijcofjYzQMct6J/qtCuRGHhsc/MWQNlVkGwIQgAAEuAU8Kf5uo5243797YqinOlvIxP61AM3w17y8b/WkPyl2nxg23szddpAeBCAAAQiEXMCT4ma/nftmrj862FOdsdKxGw0YNVs1b+qz6om/FgQ8oJzs5SFvosg+BCAAAQjoEvCk+enNdOIcf0snC9LTcKOG3Zt1H9rQ55He9qq79p28/p+/t7Dzust0tRmkCwEIQAACERHwpPiokuI0R+e+mTRoOHyumGnaMcM6AgN6x0+jHI8PdNWexBv81by3almXRKRpohgQgAAEIKBbwLXFB5UUr22mA+f6W9c2qgf6OqrjufCuGqCn/YXetuqi1l381h3qPxdgOOJuHO2r+18K0ocABCAQQQFlGzcoKZ7n6ti3kg69HpgvtVUncsnATxps/tN+XUDgGH8TwSaJIkEAAhCAQKMEaJ94JcXBrXTe3NfQyMDjA51V2iKXRgeavbkQ3Z8CE1rGR1sfN/Vp/9w8gmeVFDsa1T5wHwhAAAIQiLAAnRTnSvED7g7db3q0dp6OyKUOeMzUv+XwiNGyctoh7WVwaHtXMybznRveP9fh1/9uflHmro1wU0TRIAABCECg0QK0c9zZDYMaPjlwo4ECPYFTx0xP47SrHm1BTJMKy1a6OplPrQQJe0TreSMHtDER/Z6CiMl8cmXSHu1TQCMN9B7/QH9Ho9fr13fqG/3+G8v9/b/c6HaB+0EAAhCAQEwEXNsYVlLQMPNGO6ZA/h2NHtCGRPRaIdRlccQrrm1+LCbND8WEAAQgAIFmCiw7uWuUFA+GuuMMeQBz1v7AsmN0NbMt4N4QgAAEIBBDAc8x36+kOIlAoMGjIY54RdniC9jTP4b/6FBkCEAAAkERWN7R8+ueNL+FIKBRQYA5uThsJoJS/8gHBCAAAQjEXMCVwlFSLCIQ0BYI/FQ55ieqO3e+MeZNDcWHAAQgAIGgCdBJc2dPFXwBgQBnIGDe711vvSNo9Y38QAACEIAABFYJPDnceaWS4stKilMIBHwFAj9W0hCrcPEDBCAAAQhAIOgCi7L7KiXFnYomrUVj1n1Dlgy6Uoy5tugNev0ifxCAAAQgAIGLCtDwtSfF15UUryIQuNiIgFH2bNO+KCb+JwQgAAEIQCBsAkuD1m96tvE5JcVRBAKvBwKnPSl+pBzzetptMWx1ivxCAAIQgAAENixAR9Qqp6dfSfHtGL8eOOFK44uLw93v2jAc/hACEIAABCAQFQFv0Hyb5xifUlLsj8mowI9dR9y4sPO6y6JShygHBCAAAQhAwJcAbXCjpPhr5YgpJUVgDx3aZKBymsrjSXGzcrrf4wsIF0MAAhCAAASiLkArCDzb/IiS4gElxcub7HQbMlv/Inl6TknjO64UH6AlkVGvK5QPAhCAAAQgoEVgZYMhW+x0pfgqLZFTUrx4kc63GZ3/80qKEeWILy1Js1TNZi/VAoFEIQABCEAAAnEWoO1wl4dyrZ5t3OQ5xleUFA8rKRq1++BJmrVPE/hc2/x9d9j4HZrUGOf6QNkhAAEIQAACTRNYCQqc3DWunevxpPm7rm1+TElxm3LMf1XS/G8lxbxyhFJSLF/kvyUljbKS5v3KFl9TUtzqOeLPlRQ76NhdWsbYtALixhCAQKAF/g+FZeG01oZ1qAAAAABJRU5ErkJggg==;rotation=-45;" parent="1" vertex="1">
          <mxGeometry x="2440" y="585" width="330" height="330" as="geometry" />
        </mxCell>
        <mxCell id="1aiJ_BxQlEHNXpEwWQYT-35" value="" style="endArrow=none;dashed=1;html=1;rounded=0;endSize=12;strokeWidth=8;strokeColor=#CC0000;exitX=0.701;exitY=1.004;exitDx=0;exitDy=0;exitPerimeter=0;" parent="1" edge="1">
          <mxGeometry width="50" height="50" relative="1" as="geometry">
            <mxPoint x="2600" y="694" as="sourcePoint" />
            <mxPoint x="2601" y="240" as="targetPoint" />
          </mxGeometry>
        </mxCell>
        <mxCell id="1aiJ_BxQlEHNXpEwWQYT-36" value="Truncate barcodes" style="text;html=1;strokeColor=none;fillColor=none;align=center;verticalAlign=middle;whiteSpace=wrap;rounded=0;fontSize=100;" parent="1" vertex="1">
          <mxGeometry x="2180" y="-145" width="550" height="230" as="geometry" />
        </mxCell>
        <mxCell id="1aiJ_BxQlEHNXpEwWQYT-37" value="Source" style="text;html=1;strokeColor=none;fillColor=none;align=center;verticalAlign=middle;whiteSpace=wrap;rounded=0;fontSize=100;" parent="1" vertex="1">
          <mxGeometry x="-1070" y="-65" width="616" height="130" as="geometry" />
        </mxCell>
        <mxCell id="4DvO3Scps5FqZWl34dbX-1" value="" style="shape=image;verticalLabelPosition=bottom;labelBackgroundColor=default;verticalAlign=top;aspect=fixed;imageAspect=0;image=https://cdn-icons-png.flaticon.com/512/6301/6301374.png;" vertex="1" parent="1">
          <mxGeometry x="3010" y="240" width="512" height="512" as="geometry" />
        </mxCell>
        <mxCell id="4DvO3Scps5FqZWl34dbX-2" value="" style="endArrow=classic;html=1;rounded=0;strokeWidth=15;exitX=1;exitY=0.5;exitDx=0;exitDy=0;entryX=0;entryY=0.5;entryDx=0;entryDy=0;" edge="1" parent="1" source="1aiJ_BxQlEHNXpEwWQYT-22" target="1aiJ_BxQlEHNXpEwWQYT-31">
          <mxGeometry width="50" height="50" relative="1" as="geometry">
            <mxPoint x="1924" y="810" as="sourcePoint" />
            <mxPoint x="2212" y="810" as="targetPoint" />
          </mxGeometry>
        </mxCell>
        <mxCell id="4DvO3Scps5FqZWl34dbX-3" value="" style="endArrow=classic;html=1;rounded=0;strokeWidth=15;exitX=1;exitY=0.5;exitDx=0;exitDy=0;entryX=0;entryY=0.5;entryDx=0;entryDy=0;" edge="1" parent="1">
          <mxGeometry width="50" height="50" relative="1" as="geometry">
            <mxPoint x="2712" y="494" as="sourcePoint" />
            <mxPoint x="3000" y="494" as="targetPoint" />
          </mxGeometry>
        </mxCell>
        <mxCell id="4DvO3Scps5FqZWl34dbX-4" value="Ready source" style="text;html=1;strokeColor=none;fillColor=none;align=center;verticalAlign=middle;whiteSpace=wrap;rounded=0;fontSize=100;" vertex="1" parent="1">
          <mxGeometry x="2958" y="-120" width="616" height="240" as="geometry" />
        </mxCell>
      </root>
    </mxGraphModel>
  </diagram>
</mxfile>
